<svg xmlns="http://www.w3.org/2000/svg" width="162" height="162" viewBox="0 0 162 162">
  <g id="Grupo_14" data-name="Grupo 14" transform="translate(-10.7 -10.7)">
    <path id="Caminho_22" data-name="Caminho 22" d="M161.143,64.56l-5.366,5.159a69.4,69.4,0,0,1,3.508,21.875A70.888,70.888,0,1,1,88.295,21.017a69.4,69.4,0,0,1,21.875,3.508l5.366-5.366A74.374,74.374,0,0,0,88.295,14a77.595,77.595,0,0,0,0,155.19c42.718,0,77.8-34.67,77.8-77.389A76.773,76.773,0,0,0,163,69.926C162.381,68.069,161.762,66.211,161.143,64.56Z" transform="translate(0 3.51)" fill="#6dbe45"/>
    <path id="Caminho_23" data-name="Caminho 23" d="M73.935,34.41a41.76,41.76,0,0,1,8.874,1.032V28.425a43.063,43.063,0,0,0-8.874-.825A49.735,49.735,0,1,0,123.67,77.335a41.77,41.77,0,0,0-.825-8.874h-6.81a41.76,41.76,0,0,1,1.032,8.874A42.925,42.925,0,1,1,73.935,34.41Z" transform="translate(14.36 17.976)" fill="#6dbe45"/>
    <path id="Caminho_24" data-name="Caminho 24" d="M84.727,47.846V61.26l-16.1,16.1a19.608,19.608,0,0,0-9.906-2.476A20.224,20.224,0,1,0,78.948,95.105,22.681,22.681,0,0,0,76.472,85.2l16.1-16.1h13.414l37.146-37.146H121.873V10.7ZM72.345,95.311A13.414,13.414,0,1,1,58.931,81.9a17.58,17.58,0,0,1,4.746.825L55.01,91.39c-.206.206-.413.619-.619.825a5.624,5.624,0,0,0,0,6.191c.206.206.413.619.619.825a5.482,5.482,0,0,0,7.842,0l8.668-8.668A17.579,17.579,0,0,1,72.345,95.311Z" transform="translate(29.571)" fill="#6dbe45"/>
  </g>
</svg>
