<svg xmlns="http://www.w3.org/2000/svg" width="100" height="100" viewBox="0 0 100 100">
  <g id="Grupo_27" data-name="Grupo 27" transform="translate(-155 -2605)">
    <path id="Caminho_25" data-name="Caminho 25" d="M70.954,30,54.112,25.146a2.973,2.973,0,0,1-2-2.047L47.375,5.857a2.942,2.942,0,0,0-5.684,0L36.954,23.1a2.924,2.924,0,0,1-2.105,2.047L18.007,30a3.051,3.051,0,0,0,0,5.819l16.842,4.849a3.35,3.35,0,0,1,2.105,2.047l4.737,17.241a2.942,2.942,0,0,0,5.684,0l4.737-17.241a2.971,2.971,0,0,1,2-2.047l16.842-4.849A3.02,3.02,0,0,0,70.954,30Z" transform="translate(153.178 2601.325)" fill="#fff"/>
    <path id="Caminho_26" data-name="Caminho 26" d="M97.991,58.405,86.412,55.065a1.835,1.835,0,0,1-1.368-1.4L81.78,41.811a2,2,0,0,0-3.895,0L74.622,53.664a2.011,2.011,0,0,1-1.368,1.4L61.675,58.405a2.075,2.075,0,0,0,0,3.987l11.579,3.341a1.835,1.835,0,0,1,1.368,1.4l3.263,11.853a2,2,0,0,0,3.895,0l3.263-11.853a1.833,1.833,0,0,1,1.368-1.4l11.579-3.341A2.075,2.075,0,0,0,97.991,58.405Z" transform="translate(155.509 2604.165)" fill="#fff"/>
    <path id="Caminho_27" data-name="Caminho 27" d="M44.5,75.149,31.657,71.485a2.4,2.4,0,0,1-1.579-1.616L26.5,56.722a2.22,2.22,0,0,0-4.316,0L18.6,69.869a2.4,2.4,0,0,1-1.579,1.616L4.183,75.149a2.3,2.3,0,0,0,0,4.418l12.842,3.664A2.4,2.4,0,0,1,18.6,84.847l3.579,13.147a2.22,2.22,0,0,0,4.316,0l3.579-13.147a2.4,2.4,0,0,1,1.579-1.616L44.5,79.567C46.6,78.92,46.6,75.688,44.5,75.149Z" transform="translate(152.475 2605.309)" fill="#fff"/>
  </g>
</svg>
