<svg xmlns="http://www.w3.org/2000/svg" width="100" height="82" viewBox="0 0 100 82">
  <g id="Grupo_28" data-name="Grupo 28" transform="translate(-732 -2816)">
    <g id="Grupo_22" data-name="Grupo 22" transform="translate(732 2837.744)">
      <path id="Caminho_31" data-name="Caminho 31" d="M2,21.684V38.452a4.661,4.661,0,0,0,4.583,4.721h3.771V16.985H6.583A4.656,4.656,0,0,0,2,21.684Z" transform="translate(-2 -16.985)" fill="#fff"/>
    </g>
    <g id="Grupo_23" data-name="Grupo 23" transform="translate(817.729 2839.581)">
      <path id="Caminho_32" data-name="Caminho 32" d="M46.462,17.845a10.164,10.164,0,0,0-3.312.534V39.846a10.849,10.849,0,0,0,3.312.513,11.261,11.261,0,0,0,0-22.513Z" transform="translate(-43.15 -17.845)" fill="#fff"/>
    </g>
    <g id="Grupo_24" data-name="Grupo 24" transform="translate(744.521 2833.131)">
      <rect id="Retângulo_38" data-name="Retângulo 38" width="11.333" height="35.393" fill="#fff"/>
    </g>
    <g id="Grupo_25" data-name="Grupo 25" transform="translate(750.229 2872.796)">
      <path id="Caminho_33" data-name="Caminho 33" d="M16.4,33.395H10.75V51.658A6.854,6.854,0,0,0,17.5,58.6h1.938a6.854,6.854,0,0,0,6.75-6.942V33.416H16.4Z" transform="translate(-10.75 -33.395)" fill="#fff"/>
    </g>
    <g id="Grupo_26" data-name="Grupo 26" transform="translate(760.042 2816)">
      <path id="Caminho_34" data-name="Caminho 34" d="M37.627,23.935H15.46V59.35H37.627C56.106,59.35,67,73.64,68.981,76.5V6.8C67,9.667,56.168,23.935,37.627,23.935Z" transform="translate(-15.46 -6.805)" fill="#fff"/>
    </g>
  </g>
</svg>
