<svg id="Grupo_20" data-name="Grupo 20" xmlns="http://www.w3.org/2000/svg" width="100" height="123" viewBox="0 0 100 123">
  <g id="Grupo_19" data-name="Grupo 19" transform="translate(0 0)">
    <path id="Caminho_28" data-name="Caminho 28" d="M62.9,127.065a4.064,4.064,0,0,1-1.582-.318.732.732,0,0,0-.087-.032C28.711,113.952,12.9,98.15,12.9,78.4V17.867a4.141,4.141,0,0,1,4.97-4.062,59.119,59.119,0,0,0,19.062.156c11.532-1.623,19.807-5.486,22.944-8.62a4.213,4.213,0,0,1,4.613-1,4.11,4.11,0,0,1,1.5,1.064c3.188,3.124,11.427,6.945,22.882,8.557a58.993,58.993,0,0,0,19.061-.156,4.141,4.141,0,0,1,4.971,4.062V78.4c0,19.758-15.826,35.565-48.37,48.329l-.039.017a4.061,4.061,0,0,1-.978.272,4.248,4.248,0,0,1-.619.047ZM21.177,22.667V78.4c0,15.693,13.652,28.8,41.724,40.053C90.975,107.2,104.626,94.094,104.626,78.4V22.667a73.016,73.016,0,0,1-16.906-.495C77.635,20.753,68.557,17.56,62.9,13.558c-5.657,4-14.733,7.2-24.818,8.614A72.784,72.784,0,0,1,21.177,22.667Z" transform="translate(-12.902 -4.065)" fill="#fff"/>
  </g>
  <path id="Caminho_29" data-name="Caminho 29" d="M81.318,43.876H65.972V28.5h-20V43.876H30.625V63.917H45.971V79.294h20V63.917H81.318Z" transform="translate(-6.178 5.273)" fill="#fff"/>
</svg>
