<svg xmlns="http://www.w3.org/2000/svg" width="100" height="140" viewBox="0 0 100 140">
  <path id="Caminho_30" data-name="Caminho 30" d="M105,52.04a50,50,0,1,0-60.4,48.873l-4,24.07a14.6,14.6,0,1,0,28.8,0l-4-24.136A50.065,50.065,0,0,0,105,52.04ZM55,128.716a3.334,3.334,0,1,1,3.333-3.334A3.335,3.335,0,0,1,55,128.716Zm0-40A36.671,36.671,0,1,1,91.667,52.04,36.665,36.665,0,0,1,55,88.711Zm9-52.34a3.2,3.2,0,0,1,.147,4.521L64,41.039l-20,20a3.2,3.2,0,0,1-4.52.147l-.147-.147a3.2,3.2,0,0,1-.147-4.521l.147-.147,20-20a3.2,3.2,0,0,1,4.52-.147Zm0,20a3.2,3.2,0,0,1,.147,4.521L64,61.041l-6.667,6.667a3.2,3.2,0,0,1-4.52.147l-.147-.147a3.2,3.2,0,0,1-.147-4.521l.147-.147,6.667-6.667a3.2,3.2,0,0,1,4.52-.147Z" transform="translate(-5 -1.994)" fill="#fff"/>
</svg>
