<?xml version="1.0" encoding="utf-8"?>
<!-- Generator: Adobe Illustrator 23.1.0, SVG Export Plug-In . SVG Version: 6.00 Build 0)  -->
<svg version="1.1" id="Camada_1" xmlns="http://www.w3.org/2000/svg" xmlns:xlink="http://www.w3.org/1999/xlink" x="0px" y="0px"
	 viewBox="0 0 720 544.2" style="enable-background:new 0 0 720 544.2;" xml:space="preserve">
<style type="text/css">
	.st0{opacity:0.4;}
	.st1{fill:#6DBE45;}
</style>
<g id="Grupo_35" transform="translate(-628 -3654)" class="st0">
	<circle id="Elipse_1" class="st1" cx="643" cy="3671.1" r="5"/>
	<circle id="Elipse_652" class="st1" cx="643" cy="3911.1" r="5"/>
	<circle id="Elipse_464" class="st1" cx="643" cy="3791.1" r="5"/>
	<circle id="Elipse_653" class="st1" cx="643" cy="4031.1" r="5"/>
	<circle id="Elipse_83" class="st1" cx="643" cy="3731.1" r="5"/>
	<circle id="Elipse_654" class="st1" cx="643" cy="3971.1" r="5"/>
	<circle id="Elipse_465" class="st1" cx="643" cy="3851.1" r="5"/>
	<circle id="Elipse_655" class="st1" cx="643" cy="4091.1" r="5"/>
	<circle id="Elipse_684" class="st1" cx="643" cy="4151.1" r="5"/>
	<circle id="Elipse_42" class="st1" cx="643" cy="3701.1" r="5"/>
	<circle id="Elipse_656" class="st1" cx="643" cy="3941.1" r="5"/>
	<circle id="Elipse_466" class="st1" cx="643" cy="3821.1" r="5"/>
	<circle id="Elipse_657" class="st1" cx="643" cy="4061.1" r="5"/>
	<circle id="Elipse_84" class="st1" cx="643" cy="3761.1" r="5"/>
	<circle id="Elipse_658" class="st1" cx="643" cy="4001.1" r="5"/>
	<circle id="Elipse_467" class="st1" cx="643" cy="3881.1" r="5"/>
	<circle id="Elipse_659" class="st1" cx="643" cy="4121.1" r="5"/>
	<circle id="Elipse_683" class="st1" cx="643" cy="4181.1" r="5"/>
	<circle id="Elipse_16" class="st1" cx="883" cy="3671.1" r="5"/>
	<circle id="Elipse_629" class="st1" cx="883" cy="3911.1" r="5"/>
	<circle id="Elipse_438" class="st1" cx="883" cy="3791.1" r="5"/>
	<circle id="Elipse_522" class="st1" cx="883" cy="4031.1" r="5"/>
	<circle id="Elipse_59" class="st1" cx="883" cy="3731.1" r="5"/>
	<circle id="Elipse_573" class="st1" cx="883" cy="3971.1" r="5"/>
	<circle id="Elipse_388" class="st1" cx="883" cy="3851.1" r="5"/>
	<circle id="Elipse_498" class="st1" cx="883" cy="4091.1" r="5"/>
	<circle id="Elipse_685" class="st1" cx="883" cy="4151.1" r="5"/>
	<circle id="Elipse_34" class="st1" cx="883" cy="3701.1" r="5"/>
	<circle id="Elipse_600" class="st1" cx="883" cy="3941.1" r="5"/>
	<circle id="Elipse_410" class="st1" cx="883" cy="3821.1" r="5"/>
	<circle id="Elipse_500" class="st1" cx="883" cy="4061.1" r="5"/>
	<circle id="Elipse_53" class="st1" cx="883" cy="3761.1" r="5"/>
	<circle id="Elipse_548" class="st1" cx="883" cy="4001.1" r="5"/>
	<circle id="Elipse_386" class="st1" cx="883" cy="3881.1" r="5"/>
	<circle id="Elipse_499" class="st1" cx="883" cy="4121.1" r="5"/>
	<circle id="Elipse_660" class="st1" cx="883" cy="4181.1" r="5"/>
	<circle id="Elipse_8" class="st1" cx="763" cy="3671.1" r="5"/>
	<circle id="Elipse_630" class="st1" cx="763" cy="3911.1" r="5"/>
	<circle id="Elipse_439" class="st1" cx="763" cy="3791.1" r="5"/>
	<circle id="Elipse_544" class="st1" cx="763" cy="4031.1" r="5"/>
	<circle id="Elipse_60" class="st1" cx="763" cy="3731.1" r="5"/>
	<circle id="Elipse_574" class="st1" cx="763" cy="3971.1" r="5"/>
	<circle id="Elipse_411" class="st1" cx="763" cy="3851.1" r="5"/>
	<circle id="Elipse_545" class="st1" cx="763" cy="4091.1" r="5"/>
	<circle id="Elipse_686" class="st1" cx="763" cy="4151.1" r="5"/>
	<circle id="Elipse_38" class="st1" cx="763" cy="3701.1" r="5"/>
	<circle id="Elipse_601" class="st1" cx="763" cy="3941.1" r="5"/>
	<circle id="Elipse_412" class="st1" cx="763" cy="3821.1" r="5"/>
	<circle id="Elipse_546" class="st1" cx="763" cy="4061.1" r="5"/>
	<circle id="Elipse_61" class="st1" cx="763" cy="3761.1" r="5"/>
	<circle id="Elipse_549" class="st1" cx="763" cy="4001.1" r="5"/>
	<circle id="Elipse_413" class="st1" cx="763" cy="3881.1" r="5"/>
	<circle id="Elipse_547" class="st1" cx="763" cy="4121.1" r="5"/>
	<circle id="Elipse_679" class="st1" cx="763" cy="4181.1" r="5"/>
	<circle id="Elipse_9" class="st1" cx="1003" cy="3671.1" r="5"/>
	<circle id="Elipse_631" class="st1" cx="1003" cy="3911.1" r="5"/>
	<circle id="Elipse_440" class="st1" cx="1003" cy="3791.1" r="5"/>
	<circle id="Elipse_523" class="st1" cx="1003" cy="4031.1" r="5"/>
	<circle id="Elipse_356" class="st1" cx="1183" cy="3671.1" r="5"/>
	<circle id="Elipse_632" class="st1" cx="1183" cy="3911.1" r="5"/>
	<circle id="Elipse_441" class="st1" cx="1183" cy="3791.1" r="5"/>
	<circle id="Elipse_524" class="st1" cx="1183" cy="4031.1" r="5"/>
	<circle id="Elipse_62" class="st1" cx="1003" cy="3731.1" r="5"/>
	<circle id="Elipse_575" class="st1" cx="1003" cy="3971.1" r="5"/>
	<circle id="Elipse_389" class="st1" cx="1003" cy="3851.1" r="5"/>
	<circle id="Elipse_483" class="st1" cx="1003" cy="4091.1" r="5"/>
	<circle id="Elipse_687" class="st1" cx="1003" cy="4151.1" r="5"/>
	<circle id="Elipse_357" class="st1" cx="1183" cy="3731.1" r="5"/>
	<circle id="Elipse_576" class="st1" cx="1183" cy="3971.1" r="5"/>
	<circle id="Elipse_390" class="st1" cx="1183" cy="3851.1" r="5"/>
	<circle id="Elipse_484" class="st1" cx="1183" cy="4091.1" r="5"/>
	<circle id="Elipse_688" class="st1" cx="1183" cy="4151.1" r="5"/>
	<circle id="Elipse_30" class="st1" cx="1003" cy="3701.1" r="5"/>
	<circle id="Elipse_602" class="st1" cx="1003" cy="3941.1" r="5"/>
	<circle id="Elipse_414" class="st1" cx="1003" cy="3821.1" r="5"/>
	<circle id="Elipse_501" class="st1" cx="1003" cy="4061.1" r="5"/>
	<circle id="Elipse_358" class="st1" cx="1183" cy="3701.1" r="5"/>
	<circle id="Elipse_603" class="st1" cx="1183" cy="3941.1" r="5"/>
	<circle id="Elipse_415" class="st1" cx="1183" cy="3821.1" r="5"/>
	<circle id="Elipse_502" class="st1" cx="1183" cy="4061.1" r="5"/>
	<circle id="Elipse_43" class="st1" cx="1003" cy="3761.1" r="5"/>
	<circle id="Elipse_550" class="st1" cx="1003" cy="4001.1" r="5"/>
	<circle id="Elipse_372" class="st1" cx="1003" cy="3881.1" r="5"/>
	<circle id="Elipse_468" class="st1" cx="1003" cy="4121.1" r="5"/>
	<circle id="Elipse_661" class="st1" cx="1003" cy="4181.1" r="5"/>
	<circle id="Elipse_359" class="st1" cx="1183" cy="3761.1" r="5"/>
	<circle id="Elipse_551" class="st1" cx="1183" cy="4001.1" r="5"/>
	<circle id="Elipse_373" class="st1" cx="1183" cy="3881.1" r="5"/>
	<circle id="Elipse_469" class="st1" cx="1183" cy="4121.1" r="5"/>
	<circle id="Elipse_662" class="st1" cx="1183" cy="4181.1" r="5"/>
	<circle id="Elipse_3" class="st1" cx="703" cy="3671.1" r="5"/>
	<circle id="Elipse_633" class="st1" cx="703" cy="3911.1" r="5"/>
	<circle id="Elipse_442" class="st1" cx="703" cy="3791.1" r="5"/>
	<circle id="Elipse_594" class="st1" cx="703" cy="4031.1" r="5"/>
	<circle id="Elipse_79" class="st1" cx="703" cy="3731.1" r="5"/>
	<circle id="Elipse_595" class="st1" cx="703" cy="3971.1" r="5"/>
	<circle id="Elipse_435" class="st1" cx="703" cy="3851.1" r="5"/>
	<circle id="Elipse_596" class="st1" cx="703" cy="4091.1" r="5"/>
	<circle id="Elipse_689" class="st1" cx="703" cy="4151.1" r="5"/>
	<circle id="Elipse_40" class="st1" cx="703" cy="3701.1" r="5"/>
	<circle id="Elipse_604" class="st1" cx="703" cy="3941.1" r="5"/>
	<circle id="Elipse_436" class="st1" cx="703" cy="3821.1" r="5"/>
	<circle id="Elipse_597" class="st1" cx="703" cy="4061.1" r="5"/>
	<circle id="Elipse_80" class="st1" cx="703" cy="3761.1" r="5"/>
	<circle id="Elipse_598" class="st1" cx="703" cy="4001.1" r="5"/>
	<circle id="Elipse_437" class="st1" cx="703" cy="3881.1" r="5"/>
	<circle id="Elipse_599" class="st1" cx="703" cy="4121.1" r="5"/>
	<circle id="Elipse_681" class="st1" cx="703" cy="4181.1" r="5"/>
	<circle id="Elipse_14" class="st1" cx="943" cy="3671.1" r="5"/>
	<circle id="Elipse_634" class="st1" cx="943" cy="3911.1" r="5"/>
	<circle id="Elipse_443" class="st1" cx="943" cy="3791.1" r="5"/>
	<circle id="Elipse_525" class="st1" cx="943" cy="4031.1" r="5"/>
	<circle id="Elipse_64" class="st1" cx="943" cy="3731.1" r="5"/>
	<circle id="Elipse_577" class="st1" cx="943" cy="3971.1" r="5"/>
	<circle id="Elipse_391" class="st1" cx="943" cy="3851.1" r="5"/>
	<circle id="Elipse_485" class="st1" cx="943" cy="4091.1" r="5"/>
	<circle id="Elipse_690" class="st1" cx="943" cy="4151.1" r="5"/>
	<circle id="Elipse_32" class="st1" cx="943" cy="3701.1" r="5"/>
	<circle id="Elipse_605" class="st1" cx="943" cy="3941.1" r="5"/>
	<circle id="Elipse_416" class="st1" cx="943" cy="3821.1" r="5"/>
	<circle id="Elipse_503" class="st1" cx="943" cy="4061.1" r="5"/>
	<circle id="Elipse_54" class="st1" cx="943" cy="3761.1" r="5"/>
	<circle id="Elipse_552" class="st1" cx="943" cy="4001.1" r="5"/>
	<circle id="Elipse_374" class="st1" cx="943" cy="3881.1" r="5"/>
	<circle id="Elipse_481" class="st1" cx="943" cy="4121.1" r="5"/>
	<circle id="Elipse_663" class="st1" cx="943" cy="4181.1" r="5"/>
	<circle id="Elipse_5" class="st1" cx="823" cy="3671.1" r="5"/>
	<circle id="Elipse_635" class="st1" cx="823" cy="3911.1" r="5"/>
	<circle id="Elipse_444" class="st1" cx="823" cy="3791.1" r="5"/>
	<circle id="Elipse_526" class="st1" cx="823" cy="4031.1" r="5"/>
	<circle id="Elipse_65" class="st1" cx="823" cy="3731.1" r="5"/>
	<circle id="Elipse_578" class="st1" cx="823" cy="3971.1" r="5"/>
	<circle id="Elipse_392" class="st1" cx="823" cy="3851.1" r="5"/>
	<circle id="Elipse_519" class="st1" cx="823" cy="4091.1" r="5"/>
	<circle id="Elipse_691" class="st1" cx="823" cy="4151.1" r="5"/>
	<circle id="Elipse_36" class="st1" cx="823" cy="3701.1" r="5"/>
	<circle id="Elipse_606" class="st1" cx="823" cy="3941.1" r="5"/>
	<circle id="Elipse_417" class="st1" cx="823" cy="3821.1" r="5"/>
	<circle id="Elipse_520" class="st1" cx="823" cy="4061.1" r="5"/>
	<circle id="Elipse_56" class="st1" cx="823" cy="3761.1" r="5"/>
	<circle id="Elipse_553" class="st1" cx="823" cy="4001.1" r="5"/>
	<circle id="Elipse_393" class="st1" cx="823" cy="3881.1" r="5"/>
	<circle id="Elipse_521" class="st1" cx="823" cy="4121.1" r="5"/>
	<circle id="Elipse_677" class="st1" cx="823" cy="4181.1" r="5"/>
	<circle id="Elipse_10" class="st1" cx="1063" cy="3671.1" r="5"/>
	<circle id="Elipse_636" class="st1" cx="1063" cy="3911.1" r="5"/>
	<circle id="Elipse_445" class="st1" cx="1063" cy="3791.1" r="5"/>
	<circle id="Elipse_527" class="st1" cx="1063" cy="4031.1" r="5"/>
	<circle id="Elipse_352" class="st1" cx="1243" cy="3671.1" r="5"/>
	<circle id="Elipse_637" class="st1" cx="1243" cy="3911.1" r="5"/>
	<circle id="Elipse_446" class="st1" cx="1243" cy="3791.1" r="5"/>
	<circle id="Elipse_528" class="st1" cx="1243" cy="4031.1" r="5"/>
	<circle id="Elipse_66" class="st1" cx="1063" cy="3731.1" r="5"/>
	<circle id="Elipse_579" class="st1" cx="1063" cy="3971.1" r="5"/>
	<circle id="Elipse_394" class="st1" cx="1063" cy="3851.1" r="5"/>
	<circle id="Elipse_486" class="st1" cx="1063" cy="4091.1" r="5"/>
	<circle id="Elipse_692" class="st1" cx="1063" cy="4151.1" r="5"/>
	<circle id="Elipse_344" class="st1" cx="1243" cy="3731.1" r="5"/>
	<circle id="Elipse_580" class="st1" cx="1243" cy="3971.1" r="5"/>
	<circle id="Elipse_395" class="st1" cx="1243" cy="3851.1" r="5"/>
	<circle id="Elipse_487" class="st1" cx="1243" cy="4091.1" r="5"/>
	<circle id="Elipse_693" class="st1" cx="1243" cy="4151.1" r="5"/>
	<circle id="Elipse_27" class="st1" cx="1063" cy="3701.1" r="5"/>
	<circle id="Elipse_607" class="st1" cx="1063" cy="3941.1" r="5"/>
	<circle id="Elipse_418" class="st1" cx="1063" cy="3821.1" r="5"/>
	<circle id="Elipse_504" class="st1" cx="1063" cy="4061.1" r="5"/>
	<circle id="Elipse_346" class="st1" cx="1243" cy="3701.1" r="5"/>
	<circle id="Elipse_608" class="st1" cx="1243" cy="3941.1" r="5"/>
	<circle id="Elipse_419" class="st1" cx="1243" cy="3821.1" r="5"/>
	<circle id="Elipse_505" class="st1" cx="1243" cy="4061.1" r="5"/>
	<circle id="Elipse_45" class="st1" cx="1063" cy="3761.1" r="5"/>
	<circle id="Elipse_554" class="st1" cx="1063" cy="4001.1" r="5"/>
	<circle id="Elipse_375" class="st1" cx="1063" cy="3881.1" r="5"/>
	<circle id="Elipse_470" class="st1" cx="1063" cy="4121.1" r="5"/>
	<circle id="Elipse_664" class="st1" cx="1063" cy="4181.1" r="5"/>
	<circle id="Elipse_345" class="st1" cx="1243" cy="3761.1" r="5"/>
	<circle id="Elipse_555" class="st1" cx="1243" cy="4001.1" r="5"/>
	<circle id="Elipse_376" class="st1" cx="1243" cy="3881.1" r="5"/>
	<circle id="Elipse_471" class="st1" cx="1243" cy="4121.1" r="5"/>
	<circle id="Elipse_665" class="st1" cx="1243" cy="4181.1" r="5"/>
	<circle id="Elipse_2" class="st1" cx="673" cy="3671.1" r="5"/>
	<circle id="Elipse_638" class="st1" cx="673" cy="3911.1" r="5"/>
	<circle id="Elipse_447" class="st1" cx="673" cy="3791.1" r="5"/>
	<circle id="Elipse_622" class="st1" cx="673" cy="4031.1" r="5"/>
	<circle id="Elipse_81" class="st1" cx="673" cy="3731.1" r="5"/>
	<circle id="Elipse_623" class="st1" cx="673" cy="3971.1" r="5"/>
	<circle id="Elipse_448" class="st1" cx="673" cy="3851.1" r="5"/>
	<circle id="Elipse_624" class="st1" cx="673" cy="4091.1" r="5"/>
	<circle id="Elipse_694" class="st1" cx="673" cy="4151.1" r="5"/>
	<circle id="Elipse_41" class="st1" cx="673" cy="3701.1" r="5"/>
	<circle id="Elipse_625" class="st1" cx="673" cy="3941.1" r="5"/>
	<circle id="Elipse_449" class="st1" cx="673" cy="3821.1" r="5"/>
	<circle id="Elipse_626" class="st1" cx="673" cy="4061.1" r="5"/>
	<circle id="Elipse_82" class="st1" cx="673" cy="3761.1" r="5"/>
	<circle id="Elipse_627" class="st1" cx="673" cy="4001.1" r="5"/>
	<circle id="Elipse_450" class="st1" cx="673" cy="3881.1" r="5"/>
	<circle id="Elipse_628" class="st1" cx="673" cy="4121.1" r="5"/>
	<circle id="Elipse_682" class="st1" cx="673" cy="4181.1" r="5"/>
	<circle id="Elipse_15" class="st1" cx="913" cy="3671.1" r="5"/>
	<circle id="Elipse_639" class="st1" cx="913" cy="3911.1" r="5"/>
	<circle id="Elipse_451" class="st1" cx="913" cy="3791.1" r="5"/>
	<circle id="Elipse_529" class="st1" cx="913" cy="4031.1" r="5"/>
	<circle id="Elipse_68" class="st1" cx="913" cy="3731.1" r="5"/>
	<circle id="Elipse_581" class="st1" cx="913" cy="3971.1" r="5"/>
	<circle id="Elipse_396" class="st1" cx="913" cy="3851.1" r="5"/>
	<circle id="Elipse_488" class="st1" cx="913" cy="4091.1" r="5"/>
	<circle id="Elipse_695" class="st1" cx="913" cy="4151.1" r="5"/>
	<circle id="Elipse_33" class="st1" cx="913" cy="3701.1" r="5"/>
	<circle id="Elipse_609" class="st1" cx="913" cy="3941.1" r="5"/>
	<circle id="Elipse_420" class="st1" cx="913" cy="3821.1" r="5"/>
	<circle id="Elipse_506" class="st1" cx="913" cy="4061.1" r="5"/>
	<circle id="Elipse_55" class="st1" cx="913" cy="3761.1" r="5"/>
	<circle id="Elipse_556" class="st1" cx="913" cy="4001.1" r="5"/>
	<circle id="Elipse_387" class="st1" cx="913" cy="3881.1" r="5"/>
	<circle id="Elipse_482" class="st1" cx="913" cy="4121.1" r="5"/>
	<circle id="Elipse_666" class="st1" cx="913" cy="4181.1" r="5"/>
	<circle id="Elipse_7" class="st1" cx="793" cy="3671.1" r="5"/>
	<circle id="Elipse_640" class="st1" cx="793" cy="3911.1" r="5"/>
	<circle id="Elipse_452" class="st1" cx="793" cy="3791.1" r="5"/>
	<circle id="Elipse_530" class="st1" cx="793" cy="4031.1" r="5"/>
	<circle id="Elipse_69" class="st1" cx="793" cy="3731.1" r="5"/>
	<circle id="Elipse_582" class="st1" cx="793" cy="3971.1" r="5"/>
	<circle id="Elipse_408" class="st1" cx="793" cy="3851.1" r="5"/>
	<circle id="Elipse_531" class="st1" cx="793" cy="4091.1" r="5"/>
	<circle id="Elipse_696" class="st1" cx="793" cy="4151.1" r="5"/>
	<circle id="Elipse_37" class="st1" cx="793" cy="3701.1" r="5"/>
	<circle id="Elipse_610" class="st1" cx="793" cy="3941.1" r="5"/>
	<circle id="Elipse_421" class="st1" cx="793" cy="3821.1" r="5"/>
	<circle id="Elipse_532" class="st1" cx="793" cy="4061.1" r="5"/>
	<circle id="Elipse_58" class="st1" cx="793" cy="3761.1" r="5"/>
	<circle id="Elipse_557" class="st1" cx="793" cy="4001.1" r="5"/>
	<circle id="Elipse_409" class="st1" cx="793" cy="3881.1" r="5"/>
	<circle id="Elipse_533" class="st1" cx="793" cy="4121.1" r="5"/>
	<circle id="Elipse_678" class="st1" cx="793" cy="4181.1" r="5"/>
	<circle id="Elipse_11" class="st1" cx="1033" cy="3671.1" r="5"/>
	<circle id="Elipse_641" class="st1" cx="1033" cy="3911.1" r="5"/>
	<circle id="Elipse_453" class="st1" cx="1033" cy="3791.1" r="5"/>
	<circle id="Elipse_534" class="st1" cx="1033" cy="4031.1" r="5"/>
	<circle id="Elipse_353" class="st1" cx="1213" cy="3671.1" r="5"/>
	<circle id="Elipse_642" class="st1" cx="1213" cy="3911.1" r="5"/>
	<circle id="Elipse_454" class="st1" cx="1213" cy="3791.1" r="5"/>
	<circle id="Elipse_535" class="st1" cx="1213" cy="4031.1" r="5"/>
	<circle id="Elipse_70" class="st1" cx="1033" cy="3731.1" r="5"/>
	<circle id="Elipse_583" class="st1" cx="1033" cy="3971.1" r="5"/>
	<circle id="Elipse_397" class="st1" cx="1033" cy="3851.1" r="5"/>
	<circle id="Elipse_489" class="st1" cx="1033" cy="4091.1" r="5"/>
	<circle id="Elipse_697" class="st1" cx="1033" cy="4151.1" r="5"/>
	<circle id="Elipse_349" class="st1" cx="1213" cy="3731.1" r="5"/>
	<circle id="Elipse_584" class="st1" cx="1213" cy="3971.1" r="5"/>
	<circle id="Elipse_398" class="st1" cx="1213" cy="3851.1" r="5"/>
	<circle id="Elipse_490" class="st1" cx="1213" cy="4091.1" r="5"/>
	<circle id="Elipse_698" class="st1" cx="1213" cy="4151.1" r="5"/>
	<circle id="Elipse_28" class="st1" cx="1033" cy="3701.1" r="5"/>
	<circle id="Elipse_611" class="st1" cx="1033" cy="3941.1" r="5"/>
	<circle id="Elipse_422" class="st1" cx="1033" cy="3821.1" r="5"/>
	<circle id="Elipse_507" class="st1" cx="1033" cy="4061.1" r="5"/>
	<circle id="Elipse_350" class="st1" cx="1213" cy="3701.1" r="5"/>
	<circle id="Elipse_612" class="st1" cx="1213" cy="3941.1" r="5"/>
	<circle id="Elipse_423" class="st1" cx="1213" cy="3821.1" r="5"/>
	<circle id="Elipse_508" class="st1" cx="1213" cy="4061.1" r="5"/>
	<circle id="Elipse_47" class="st1" cx="1033" cy="3761.1" r="5"/>
	<circle id="Elipse_558" class="st1" cx="1033" cy="4001.1" r="5"/>
	<circle id="Elipse_377" class="st1" cx="1033" cy="3881.1" r="5"/>
	<circle id="Elipse_472" class="st1" cx="1033" cy="4121.1" r="5"/>
	<circle id="Elipse_667" class="st1" cx="1033" cy="4181.1" r="5"/>
	<circle id="Elipse_351" class="st1" cx="1213" cy="3761.1" r="5"/>
	<circle id="Elipse_559" class="st1" cx="1213" cy="4001.1" r="5"/>
	<circle id="Elipse_378" class="st1" cx="1213" cy="3881.1" r="5"/>
	<circle id="Elipse_473" class="st1" cx="1213" cy="4121.1" r="5"/>
	<circle id="Elipse_668" class="st1" cx="1213" cy="4181.1" r="5"/>
	<circle id="Elipse_4" class="st1" cx="733" cy="3671.1" r="5"/>
	<circle id="Elipse_643" class="st1" cx="733" cy="3911.1" r="5"/>
	<circle id="Elipse_455" class="st1" cx="733" cy="3791.1" r="5"/>
	<circle id="Elipse_568" class="st1" cx="733" cy="4031.1" r="5"/>
	<circle id="Elipse_77" class="st1" cx="733" cy="3731.1" r="5"/>
	<circle id="Elipse_585" class="st1" cx="733" cy="3971.1" r="5"/>
	<circle id="Elipse_432" class="st1" cx="733" cy="3851.1" r="5"/>
	<circle id="Elipse_569" class="st1" cx="733" cy="4091.1" r="5"/>
	<circle id="Elipse_699" class="st1" cx="733" cy="4151.1" r="5"/>
	<circle id="Elipse_39" class="st1" cx="733" cy="3701.1" r="5"/>
	<circle id="Elipse_613" class="st1" cx="733" cy="3941.1" r="5"/>
	<circle id="Elipse_433" class="st1" cx="733" cy="3821.1" r="5"/>
	<circle id="Elipse_570" class="st1" cx="733" cy="4061.1" r="5"/>
	<circle id="Elipse_78" class="st1" cx="733" cy="3761.1" r="5"/>
	<circle id="Elipse_571" class="st1" cx="733" cy="4001.1" r="5"/>
	<circle id="Elipse_434" class="st1" cx="733" cy="3881.1" r="5"/>
	<circle id="Elipse_572" class="st1" cx="733" cy="4121.1" r="5"/>
	<circle id="Elipse_680" class="st1" cx="733" cy="4181.1" r="5"/>
	<circle id="Elipse_13" class="st1" cx="973" cy="3671.1" r="5"/>
	<circle id="Elipse_644" class="st1" cx="973" cy="3911.1" r="5"/>
	<circle id="Elipse_456" class="st1" cx="973" cy="3791.1" r="5"/>
	<circle id="Elipse_536" class="st1" cx="973" cy="4031.1" r="5"/>
	<circle id="Elipse_360" class="st1" cx="1153" cy="3671.1" r="5"/>
	<circle id="Elipse_645" class="st1" cx="1153" cy="3911.1" r="5"/>
	<circle id="Elipse_457" class="st1" cx="1153" cy="3791.1" r="5"/>
	<circle id="Elipse_537" class="st1" cx="1153" cy="4031.1" r="5"/>
	<circle id="Elipse_72" class="st1" cx="973" cy="3731.1" r="5"/>
	<circle id="Elipse_586" class="st1" cx="973" cy="3971.1" r="5"/>
	<circle id="Elipse_399" class="st1" cx="973" cy="3851.1" r="5"/>
	<circle id="Elipse_491" class="st1" cx="973" cy="4091.1" r="5"/>
	<circle id="Elipse_700" class="st1" cx="973" cy="4151.1" r="5"/>
	<circle id="Elipse_361" class="st1" cx="1153" cy="3731.1" r="5"/>
	<circle id="Elipse_587" class="st1" cx="1153" cy="3971.1" r="5"/>
	<circle id="Elipse_400" class="st1" cx="1153" cy="3851.1" r="5"/>
	<circle id="Elipse_492" class="st1" cx="1153" cy="4091.1" r="5"/>
	<circle id="Elipse_701" class="st1" cx="1153" cy="4151.1" r="5"/>
	<circle id="Elipse_31" class="st1" cx="973" cy="3701.1" r="5"/>
	<circle id="Elipse_614" class="st1" cx="973" cy="3941.1" r="5"/>
	<circle id="Elipse_424" class="st1" cx="973" cy="3821.1" r="5"/>
	<circle id="Elipse_509" class="st1" cx="973" cy="4061.1" r="5"/>
	<circle id="Elipse_362" class="st1" cx="1153" cy="3701.1" r="5"/>
	<circle id="Elipse_615" class="st1" cx="1153" cy="3941.1" r="5"/>
	<circle id="Elipse_425" class="st1" cx="1153" cy="3821.1" r="5"/>
	<circle id="Elipse_510" class="st1" cx="1153" cy="4061.1" r="5"/>
	<circle id="Elipse_52" class="st1" cx="973" cy="3761.1" r="5"/>
	<circle id="Elipse_560" class="st1" cx="973" cy="4001.1" r="5"/>
	<circle id="Elipse_379" class="st1" cx="973" cy="3881.1" r="5"/>
	<circle id="Elipse_480" class="st1" cx="973" cy="4121.1" r="5"/>
	<circle id="Elipse_669" class="st1" cx="973" cy="4181.1" r="5"/>
	<circle id="Elipse_363" class="st1" cx="1153" cy="3761.1" r="5"/>
	<circle id="Elipse_561" class="st1" cx="1153" cy="4001.1" r="5"/>
	<circle id="Elipse_380" class="st1" cx="1153" cy="3881.1" r="5"/>
	<circle id="Elipse_474" class="st1" cx="1153" cy="4121.1" r="5"/>
	<circle id="Elipse_670" class="st1" cx="1153" cy="4181.1" r="5"/>
	<circle id="Elipse_21" class="st1" cx="1123" cy="3671.1" r="5"/>
	<circle id="Elipse_646" class="st1" cx="1123" cy="3911.1" r="5"/>
	<circle id="Elipse_458" class="st1" cx="1123" cy="3791.1" r="5"/>
	<circle id="Elipse_538" class="st1" cx="1123" cy="4031.1" r="5"/>
	<circle id="Elipse_354" class="st1" cx="1303" cy="3671.1" r="5"/>
	<circle id="Elipse_647" class="st1" cx="1303" cy="3911.1" r="5"/>
	<circle id="Elipse_459" class="st1" cx="1303" cy="3791.1" r="5"/>
	<circle id="Elipse_539" class="st1" cx="1303" cy="4031.1" r="5"/>
	<circle id="Elipse_73" class="st1" cx="1123" cy="3731.1" r="5"/>
	<circle id="Elipse_588" class="st1" cx="1123" cy="3971.1" r="5"/>
	<circle id="Elipse_401" class="st1" cx="1123" cy="3851.1" r="5"/>
	<circle id="Elipse_493" class="st1" cx="1123" cy="4091.1" r="5"/>
	<circle id="Elipse_702" class="st1" cx="1123" cy="4151.1" r="5"/>
	<circle id="Elipse_342" class="st1" cx="1303" cy="3731.1" r="5"/>
	<circle id="Elipse_589" class="st1" cx="1303" cy="3971.1" r="5"/>
	<circle id="Elipse_402" class="st1" cx="1303" cy="3851.1" r="5"/>
	<circle id="Elipse_494" class="st1" cx="1303" cy="4091.1" r="5"/>
	<circle id="Elipse_703" class="st1" cx="1303" cy="4151.1" r="5"/>
	<circle id="Elipse_26" class="st1" cx="1123" cy="3701.1" r="5"/>
	<circle id="Elipse_616" class="st1" cx="1123" cy="3941.1" r="5"/>
	<circle id="Elipse_426" class="st1" cx="1123" cy="3821.1" r="5"/>
	<circle id="Elipse_511" class="st1" cx="1123" cy="4061.1" r="5"/>
	<circle id="Elipse_347" class="st1" cx="1303" cy="3701.1" r="5"/>
	<circle id="Elipse_617" class="st1" cx="1303" cy="3941.1" r="5"/>
	<circle id="Elipse_427" class="st1" cx="1303" cy="3821.1" r="5"/>
	<circle id="Elipse_512" class="st1" cx="1303" cy="4061.1" r="5"/>
	<circle id="Elipse_49" class="st1" cx="1123" cy="3761.1" r="5"/>
	<circle id="Elipse_562" class="st1" cx="1123" cy="4001.1" r="5"/>
	<circle id="Elipse_381" class="st1" cx="1123" cy="3881.1" r="5"/>
	<circle id="Elipse_475" class="st1" cx="1123" cy="4121.1" r="5"/>
	<circle id="Elipse_671" class="st1" cx="1123" cy="4181.1" r="5"/>
	<circle id="Elipse_340" class="st1" cx="1303" cy="3761.1" r="5"/>
	<circle id="Elipse_563" class="st1" cx="1303" cy="4001.1" r="5"/>
	<circle id="Elipse_382" class="st1" cx="1303" cy="3881.1" r="5"/>
	<circle id="Elipse_476" class="st1" cx="1303" cy="4121.1" r="5"/>
	<circle id="Elipse_672" class="st1" cx="1303" cy="4181.1" r="5"/>
	<circle id="Elipse_6" class="st1" cx="853" cy="3671.1" r="5"/>
	<circle id="Elipse_648" class="st1" cx="853" cy="3911.1" r="5"/>
	<circle id="Elipse_460" class="st1" cx="853" cy="3791.1" r="5"/>
	<circle id="Elipse_540" class="st1" cx="853" cy="4031.1" r="5"/>
	<circle id="Elipse_74" class="st1" cx="853" cy="3731.1" r="5"/>
	<circle id="Elipse_590" class="st1" cx="853" cy="3971.1" r="5"/>
	<circle id="Elipse_403" class="st1" cx="853" cy="3851.1" r="5"/>
	<circle id="Elipse_513" class="st1" cx="853" cy="4091.1" r="5"/>
	<circle id="Elipse_704" class="st1" cx="853" cy="4151.1" r="5"/>
	<circle id="Elipse_35" class="st1" cx="853" cy="3701.1" r="5"/>
	<circle id="Elipse_618" class="st1" cx="853" cy="3941.1" r="5"/>
	<circle id="Elipse_428" class="st1" cx="853" cy="3821.1" r="5"/>
	<circle id="Elipse_514" class="st1" cx="853" cy="4061.1" r="5"/>
	<circle id="Elipse_57" class="st1" cx="853" cy="3761.1" r="5"/>
	<circle id="Elipse_564" class="st1" cx="853" cy="4001.1" r="5"/>
	<circle id="Elipse_404" class="st1" cx="853" cy="3881.1" r="5"/>
	<circle id="Elipse_515" class="st1" cx="853" cy="4121.1" r="5"/>
	<circle id="Elipse_673" class="st1" cx="853" cy="4181.1" r="5"/>
	<circle id="Elipse_12" class="st1" cx="1093" cy="3671.1" r="5"/>
	<circle id="Elipse_649" class="st1" cx="1093" cy="3911.1" r="5"/>
	<circle id="Elipse_461" class="st1" cx="1093" cy="3791.1" r="5"/>
	<circle id="Elipse_541" class="st1" cx="1093" cy="4031.1" r="5"/>
	<circle id="Elipse_355" class="st1" cx="1273" cy="3671.1" r="5"/>
	<circle id="Elipse_650" class="st1" cx="1273" cy="3911.1" r="5"/>
	<circle id="Elipse_462" class="st1" cx="1273" cy="3791.1" r="5"/>
	<circle id="Elipse_542" class="st1" cx="1273" cy="4031.1" r="5"/>
	<circle id="Elipse_364" class="st1" cx="1333" cy="3671.1" r="5"/>
	<circle id="Elipse_651" class="st1" cx="1333" cy="3911.1" r="5"/>
	<circle id="Elipse_463" class="st1" cx="1333" cy="3791.1" r="5"/>
	<circle id="Elipse_543" class="st1" cx="1333" cy="4031.1" r="5"/>
	<circle id="Elipse_75" class="st1" cx="1093" cy="3731.1" r="5"/>
	<circle id="Elipse_591" class="st1" cx="1093" cy="3971.1" r="5"/>
	<circle id="Elipse_405" class="st1" cx="1093" cy="3851.1" r="5"/>
	<circle id="Elipse_495" class="st1" cx="1093" cy="4091.1" r="5"/>
	<circle id="Elipse_705" class="st1" cx="1093" cy="4151.1" r="5"/>
	<circle id="Elipse_343" class="st1" cx="1273" cy="3731.1" r="5"/>
	<circle id="Elipse_592" class="st1" cx="1273" cy="3971.1" r="5"/>
	<circle id="Elipse_406" class="st1" cx="1273" cy="3851.1" r="5"/>
	<circle id="Elipse_496" class="st1" cx="1273" cy="4091.1" r="5"/>
	<circle id="Elipse_706" class="st1" cx="1273" cy="4151.1" r="5"/>
	<circle id="Elipse_369" class="st1" cx="1333" cy="3731.1" r="5"/>
	<circle id="Elipse_593" class="st1" cx="1333" cy="3971.1" r="5"/>
	<circle id="Elipse_407" class="st1" cx="1333" cy="3851.1" r="5"/>
	<circle id="Elipse_497" class="st1" cx="1333" cy="4091.1" r="5"/>
	<circle id="Elipse_707" class="st1" cx="1333" cy="4151.1" r="5"/>
	<circle id="Elipse_29" class="st1" cx="1093" cy="3701.1" r="5"/>
	<circle id="Elipse_619" class="st1" cx="1093" cy="3941.1" r="5"/>
	<circle id="Elipse_429" class="st1" cx="1093" cy="3821.1" r="5"/>
	<circle id="Elipse_516" class="st1" cx="1093" cy="4061.1" r="5"/>
	<circle id="Elipse_348" class="st1" cx="1273" cy="3701.1" r="5"/>
	<circle id="Elipse_620" class="st1" cx="1273" cy="3941.1" r="5"/>
	<circle id="Elipse_430" class="st1" cx="1273" cy="3821.1" r="5"/>
	<circle id="Elipse_517" class="st1" cx="1273" cy="4061.1" r="5"/>
	<circle id="Elipse_365" class="st1" cx="1333" cy="3701.1" r="5"/>
	<circle id="Elipse_621" class="st1" cx="1333" cy="3941.1" r="5"/>
	<circle id="Elipse_431" class="st1" cx="1333" cy="3821.1" r="5"/>
	<circle id="Elipse_518" class="st1" cx="1333" cy="4061.1" r="5"/>
	<circle id="Elipse_50" class="st1" cx="1093" cy="3761.1" r="5"/>
	<circle id="Elipse_565" class="st1" cx="1093" cy="4001.1" r="5"/>
	<circle id="Elipse_383" class="st1" cx="1093" cy="3881.1" r="5"/>
	<circle id="Elipse_477" class="st1" cx="1093" cy="4121.1" r="5"/>
	<circle id="Elipse_674" class="st1" cx="1093" cy="4181.1" r="5"/>
	<circle id="Elipse_341" class="st1" cx="1273" cy="3761.1" r="5"/>
	<circle id="Elipse_566" class="st1" cx="1273" cy="4001.1" r="5"/>
	<circle id="Elipse_384" class="st1" cx="1273" cy="3881.1" r="5"/>
	<circle id="Elipse_478" class="st1" cx="1273" cy="4121.1" r="5"/>
	<circle id="Elipse_675" class="st1" cx="1273" cy="4181.1" r="5"/>
	<circle id="Elipse_371" class="st1" cx="1333" cy="3761.1" r="5"/>
	<circle id="Elipse_567" class="st1" cx="1333" cy="4001.1" r="5"/>
	<circle id="Elipse_385" class="st1" cx="1333" cy="3881.1" r="5"/>
	<circle id="Elipse_479" class="st1" cx="1333" cy="4121.1" r="5"/>
	<circle id="Elipse_676" class="st1" cx="1333" cy="4181.1" r="5"/>
</g>
</svg>
