<?xml version="1.0" encoding="utf-8"?>
<!-- Generator: Adobe Illustrator 23.1.0, SVG Export Plug-In . SVG Version: 6.00 Build 0)  -->
<svg version="1.1" id="Camada_1" xmlns="http://www.w3.org/2000/svg" xmlns:xlink="http://www.w3.org/1999/xlink" x="0px" y="0px"
	 viewBox="0 0 1020.5 1020.5" style="enable-background:new 0 0 1020.5 1020.5;" xml:space="preserve">
<style type="text/css">
	.st0{fill:#FFFFFF;}
	.st1{fill:#6DBE45;}
</style>
<rect class="st0" width="1020.5" height="1020.5"/>
<g id="Layer_1">
</g>
<path class="st1" d="M489.4,104.2h161.4v557.9c0,38.1-6.4,72.6-19.1,103.6c-12.7,30.9-30.1,57.6-52.1,80.1
	c-22.1,22.4-48.1,39.8-78.2,52.1c-30.1,12.3-62.5,18.4-97.2,18.4c-85.6,0-148.9-23.5-190-70.5S152.6,742,152.6,661.5h155
	c0,35.6,6.6,56.8,19.7,77.6s35.8,31.1,68,31.1c33,0,61.2-10.2,74.3-30.5s19.7-48.3,19.7-83.9L489.4,104.2L489.4,104.2z"/>
<rect x="776.7" y="104.2" width="91.3" height="299.4"/>
</svg>
