<svg xmlns="http://www.w3.org/2000/svg" width="20" height="20.009" viewBox="0 0 20 20.009">
  <path id="WA_Logo" data-name="WA Logo" d="M432.2,340.286a9.966,9.966,0,1,1,8.629,4.966h0a9.984,9.984,0,0,1-4.759-1.207l-5.279,1.379Zm4.413,2.143a8.291,8.291,0,0,0,4.213,1.149h0a8.271,8.271,0,0,0,8.277-8.241,8.26,8.26,0,0,0-8.273-8.247,8.239,8.239,0,0,0-7.015,12.626l.2.312-.836,3.041,3.133-.818Zm5.841-2.476a14.328,14.328,0,0,1-1.419-.522,11.075,11.075,0,0,1-4.251-3.741,4.809,4.809,0,0,1-1.016-2.563,2.774,2.774,0,0,1,.871-2.067.916.916,0,0,1,.664-.31c.166,0,.332,0,.477.009h.056c.145,0,.326,0,.5.425.207.5.705,1.716.767,1.84a.455.455,0,0,1,.021.434,1.69,1.69,0,0,1-.249.413c-.124.145-.261.323-.373.434s-.254.258-.109.506a7.473,7.473,0,0,0,1.384,1.716,6.8,6.8,0,0,0,2,1.23c.249.124.394.1.539-.062s.622-.723.788-.971.332-.207.56-.124,1.452.682,1.7.806.415.186.477.289a2.062,2.062,0,0,1-.145,1.178,2.563,2.563,0,0,1-1.679,1.178,4.1,4.1,0,0,1-.6.047A3.171,3.171,0,0,1,442.458,339.953Z" transform="translate(-430.792 -325.415)" fill="#fff"/>
</svg>
