<svg xmlns="http://www.w3.org/2000/svg" width="104.656" height="94.15" viewBox="0 0 104.656 94.15">
  <g id="Grupo_39" data-name="Grupo 39" transform="translate(-141.768 -199.462)">
    <g id="Grupo_37" data-name="Grupo 37" transform="translate(237.71 222.13)">
      <path id="Caminho_40" data-name="Caminho 40" d="M781.327,778.007v-1.223h1.414a2.429,2.429,0,0,1,.753.116,1.759,1.759,0,0,1,.637.364,1.735,1.735,0,0,1,.44.626,2.3,2.3,0,0,1,.162.9,2.4,2.4,0,0,1-.162.929,1.756,1.756,0,0,1-.435.632,1.649,1.649,0,0,1-.637.359,2.608,2.608,0,0,1-.768.111h-4.445v-1.293h1.344v-2.748h.93v2.748H782.6a1.286,1.286,0,0,0,.732-.177.653.653,0,0,0,.258-.581.675.675,0,0,0-.253-.581,1.189,1.189,0,0,0-.717-.187Z" transform="translate(-777.811 -712.001)" fill="#fff"/>
      <path id="Caminho_41" data-name="Caminho 41" d="M791.391,744.724a2,2,0,0,1-.445.081,1.62,1.62,0,0,1,.419.616,2.342,2.342,0,0,1,.157.889,1.779,1.779,0,0,1-.379,1.258,1.3,1.3,0,0,1-.985.4,1.8,1.8,0,0,1-.854-.172,1.279,1.279,0,0,1-.5-.475,2.288,2.288,0,0,1-.268-.722q-.086-.419-.157-.914a1.754,1.754,0,0,0-.187-.667.462.462,0,0,0-.758.055,1.184,1.184,0,0,0-.136.611.883.883,0,0,0,.2.652.947.947,0,0,0,.536.248v1.222a2.25,2.25,0,0,1-.707-.126,1.355,1.355,0,0,1-.556-.374,1.749,1.749,0,0,1-.359-.672,3.5,3.5,0,0,1-.126-1.01,3.284,3.284,0,0,1,.131-1,1.6,1.6,0,0,1,.379-.657,1.447,1.447,0,0,1,.616-.359,2.9,2.9,0,0,1,.833-.111h3.142Zm-2.435.091a.711.711,0,0,1,.162.293,5.331,5.331,0,0,1,.131.556,1.887,1.887,0,0,0,.283.778.6.6,0,0,0,.5.212q.556,0,.556-.636a1.268,1.268,0,0,0-.086-.47,1.146,1.146,0,0,0-.576-.626.945.945,0,0,0-.419-.1Z" transform="translate(-784.602 -683.761)" fill="#fff"/>
      <path id="Caminho_42" data-name="Caminho 42" d="M793.315,711.559h-6.895V710.3l.606-.01a1.516,1.516,0,0,1-.738-1.384,2.058,2.058,0,0,1,.182-.864,1.889,1.889,0,0,1,.525-.682,2.55,2.55,0,0,1,.839-.444,3.61,3.61,0,0,1,1.122-.162,3.707,3.707,0,0,1,1.035.136,2.448,2.448,0,0,1,.814.4,1.8,1.8,0,0,1,.53.642,1.924,1.924,0,0,1,.187.864,1.728,1.728,0,0,1-.778,1.475h2.57Zm-2.914-2.344q0-1.131-1.536-1.132a1.769,1.769,0,0,0-1.086.313.966.966,0,0,0-.419.808.981.981,0,0,0,.394.793,1.59,1.59,0,0,0,1.03.318Q790.4,710.317,790.4,709.215Z" transform="translate(-784.602 -652.576)" fill="#fff"/>
      <path id="Caminho_43" data-name="Caminho 43" d="M789.249,675.291a1.419,1.419,0,0,0,.9-.328,1,1,0,0,0,.333-.783,1.1,1.1,0,0,0-.146-.571.662.662,0,0,0-.409-.318v-1.354a2.18,2.18,0,0,1,1.182.808,2.29,2.29,0,0,1,.414,1.374q0,2.486-2.708,2.485a3.149,3.149,0,0,1-1.04-.162,2.246,2.246,0,0,1-.8-.47,2.027,2.027,0,0,1-.51-.753,2.746,2.746,0,0,1-.177-1.02,2.1,2.1,0,0,1,.738-1.743,3.509,3.509,0,0,1,2.223-.591Zm-.829-2.071a1.382,1.382,0,0,0-.48.1,1,1,0,0,0-.343.227.9.9,0,0,0-.2.323,1.1,1.1,0,0,0-.065.374.932.932,0,0,0,.288.682,1.229,1.229,0,0,0,.8.328Z" transform="translate(-784.602 -622.976)" fill="#fff"/>
      <path id="Caminho_44" data-name="Caminho 44" d="M781.327,642.207v-1.223h1.414a2.433,2.433,0,0,1,.753.116,1.761,1.761,0,0,1,.637.364,1.735,1.735,0,0,1,.44.626,2.3,2.3,0,0,1,.162.9,2.4,2.4,0,0,1-.162.929,1.756,1.756,0,0,1-.435.632,1.651,1.651,0,0,1-.637.359,2.608,2.608,0,0,1-.768.111h-4.445v-1.293h1.344v-2.748h.93v2.748H782.6a1.286,1.286,0,0,0,.732-.177.653.653,0,0,0,.258-.581.675.675,0,0,0-.253-.581,1.189,1.189,0,0,0-.717-.187Z" transform="translate(-777.811 -596.772)" fill="#fff"/>
      <path id="Caminho_45" data-name="Caminho 45" d="M789.249,609.192a1.419,1.419,0,0,0,.9-.328,1,1,0,0,0,.333-.783,1.1,1.1,0,0,0-.146-.571.663.663,0,0,0-.409-.318v-1.354a2.181,2.181,0,0,1,1.182.808,2.29,2.29,0,0,1,.414,1.374q0,2.485-2.708,2.486a3.154,3.154,0,0,1-1.04-.162,2.245,2.245,0,0,1-.8-.47,2.027,2.027,0,0,1-.51-.753,2.745,2.745,0,0,1-.177-1.021,2.1,2.1,0,0,1,.738-1.743,3.51,3.51,0,0,1,2.223-.591Zm-.829-2.071a1.384,1.384,0,0,0-.48.1,1,1,0,0,0-.343.227.907.907,0,0,0-.2.323,1.1,1.1,0,0,0-.065.374.932.932,0,0,0,.288.682,1.229,1.229,0,0,0,.8.328Z" transform="translate(-784.602 -566.889)" fill="#fff"/>
      <path id="Caminho_46" data-name="Caminho 46" d="M787.926,573.956a.729.729,0,0,0-.5.258,1.045,1.045,0,0,0-.157.632,1.513,1.513,0,0,0,.1.611.335.335,0,0,0,.328.207.364.364,0,0,0,.323-.207,2.65,2.65,0,0,0,.232-.6q.182-.647.308-1.091a2.707,2.707,0,0,1,.3-.712,1,1,0,0,1,.429-.384,1.711,1.711,0,0,1,.692-.116,1.355,1.355,0,0,1,1.106.556,2.617,2.617,0,0,1,.44,1.647,3.6,3.6,0,0,1-.121.97,2.264,2.264,0,0,1-.348.743,1.556,1.556,0,0,1-1.258.652v-1.354a.623.623,0,0,0,.546-.278,1.243,1.243,0,0,0,.192-.722,1.608,1.608,0,0,0-.116-.642.381.381,0,0,0-.359-.268.427.427,0,0,0-.394.2,2.053,2.053,0,0,0-.212.6,7.856,7.856,0,0,1-.339,1.172,2.459,2.459,0,0,1-.389.692,1.068,1.068,0,0,1-.465.333,1.746,1.746,0,0,1-.566.086,1.264,1.264,0,0,1-.535-.116,1.177,1.177,0,0,1-.444-.369,1.985,1.985,0,0,1-.308-.657,3.63,3.63,0,0,1-.116-.99,2.34,2.34,0,0,1,.435-1.566,1.673,1.673,0,0,1,1.2-.545Z" transform="translate(-784.602 -538.705)" fill="#fff"/>
      <path id="Caminho_47" data-name="Caminho 47" d="M778.543,521.855v-1.263h1.809a2.51,2.51,0,0,1,.935.167,2.1,2.1,0,0,1,.717.465,2.041,2.041,0,0,1,.46.712,2.511,2.511,0,0,1,.162.919,2.977,2.977,0,0,1-.162,1.021,2.216,2.216,0,0,1-.445.753,1.887,1.887,0,0,1-.667.47,2.115,2.115,0,0,1-.829.162,2.025,2.025,0,0,1-.48-.061,2.193,2.193,0,0,1-.46-.167,1.571,1.571,0,0,1-.374-.258,1.074,1.074,0,0,1-.242-.323,1.448,1.448,0,0,1-1.4.778,1.615,1.615,0,0,1-.768-.182,1.759,1.759,0,0,1-.591-.516,2.509,2.509,0,0,1-.384-.8,3.652,3.652,0,0,1-.136-1.031h1.1a1.584,1.584,0,0,0,.217.96.858.858,0,0,0,.712.273.718.718,0,0,0,.626-.283,1.684,1.684,0,0,0,.2-.95h.95a1.554,1.554,0,0,0,.247.94.888.888,0,0,0,.763.333,1.192,1.192,0,0,0,.4-.066.9.9,0,0,0,.328-.2,1,1,0,0,0,.227-.344,1.3,1.3,0,0,0,.086-.5q0-1.01-1.192-1.01Z" transform="translate(-775.603 -494.616)" fill="#fff"/>
      <path id="Caminho_48" data-name="Caminho 48" d="M793.315,471.175h-6.895v-1.263l.606-.01a1.516,1.516,0,0,1-.738-1.384,2.058,2.058,0,0,1,.182-.864,1.891,1.891,0,0,1,.525-.682,2.553,2.553,0,0,1,.839-.444,3.609,3.609,0,0,1,1.122-.162,3.706,3.706,0,0,1,1.035.136,2.455,2.455,0,0,1,.814.4,1.8,1.8,0,0,1,.53.642,1.924,1.924,0,0,1,.187.864,1.727,1.727,0,0,1-.778,1.475h2.57Zm-2.914-2.344q0-1.131-1.536-1.132a1.767,1.767,0,0,0-1.086.313.966.966,0,0,0-.419.808.981.981,0,0,0,.394.793,1.589,1.589,0,0,0,1.03.318Q790.4,469.932,790.4,468.831Z" transform="translate(-784.602 -448.604)" fill="#fff"/>
      <path id="Caminho_49" data-name="Caminho 49" d="M776.373,454.472h-1.222v-1.313h1.222Zm5.567,0H776.97v-1.313h4.971Z" transform="translate(-775.151 -437.398)" fill="#fff"/>
      <path id="Caminho_50" data-name="Caminho 50" d="M787.926,420.347a.729.729,0,0,0-.5.258,1.045,1.045,0,0,0-.157.632,1.513,1.513,0,0,0,.1.611.335.335,0,0,0,.328.207.364.364,0,0,0,.323-.207,2.645,2.645,0,0,0,.232-.6q.182-.646.308-1.091a2.709,2.709,0,0,1,.3-.712,1,1,0,0,1,.429-.384,1.714,1.714,0,0,1,.692-.116,1.355,1.355,0,0,1,1.106.556,2.618,2.618,0,0,1,.44,1.647,3.6,3.6,0,0,1-.121.97,2.264,2.264,0,0,1-.348.743,1.555,1.555,0,0,1-1.258.652v-1.354a.623.623,0,0,0,.546-.278,1.244,1.244,0,0,0,.192-.722,1.606,1.606,0,0,0-.116-.642.381.381,0,0,0-.359-.268.427.427,0,0,0-.394.2,2.052,2.052,0,0,0-.212.6,7.849,7.849,0,0,1-.339,1.172,2.459,2.459,0,0,1-.389.692,1.069,1.069,0,0,1-.465.333,1.745,1.745,0,0,1-.566.086,1.267,1.267,0,0,1-.535-.116,1.174,1.174,0,0,1-.444-.369,1.983,1.983,0,0,1-.308-.657,3.628,3.628,0,0,1-.116-.99,2.339,2.339,0,0,1,.435-1.566,1.672,1.672,0,0,1,1.2-.546Z" transform="translate(-784.602 -408.365)" fill="#fff"/>
      <path id="Caminho_51" data-name="Caminho 51" d="M791.523,384.983a2.866,2.866,0,0,1-.192,1.081,2.215,2.215,0,0,1-1.364,1.3,3.157,3.157,0,0,1-1.061.172,3.109,3.109,0,0,1-1.071-.177,2.307,2.307,0,0,1-.829-.51,2.276,2.276,0,0,1-.53-.8,2.864,2.864,0,0,1-.187-1.066,2.8,2.8,0,0,1,.187-1.051,2.273,2.273,0,0,1,.525-.793,2.3,2.3,0,0,1,.824-.505,3.141,3.141,0,0,1,1.081-.177,3.1,3.1,0,0,1,1.076.177,2.357,2.357,0,0,1,.824.505,2.222,2.222,0,0,1,.53.8A2.8,2.8,0,0,1,791.523,384.983Zm-1.1,0q0-1.2-1.516-1.2t-1.506,1.2q0,1.2,1.506,1.2T790.422,384.983Z" transform="translate(-784.602 -377.405)" fill="#fff"/>
      <path id="Caminho_52" data-name="Caminho 52" d="M787.926,350.512a.729.729,0,0,0-.5.258,1.044,1.044,0,0,0-.157.632,1.512,1.512,0,0,0,.1.611.335.335,0,0,0,.328.207.364.364,0,0,0,.323-.207,2.647,2.647,0,0,0,.232-.6q.182-.647.308-1.091a2.71,2.71,0,0,1,.3-.712,1,1,0,0,1,.429-.384,1.714,1.714,0,0,1,.692-.116,1.355,1.355,0,0,1,1.106.556,2.618,2.618,0,0,1,.44,1.647,3.6,3.6,0,0,1-.121.97,2.264,2.264,0,0,1-.348.743,1.555,1.555,0,0,1-1.258.652V352.32a.623.623,0,0,0,.546-.278,1.243,1.243,0,0,0,.192-.722,1.607,1.607,0,0,0-.116-.642.381.381,0,0,0-.359-.268.427.427,0,0,0-.394.2,2.054,2.054,0,0,0-.212.6,7.85,7.85,0,0,1-.339,1.172,2.458,2.458,0,0,1-.389.692,1.069,1.069,0,0,1-.465.333,1.748,1.748,0,0,1-.566.086,1.267,1.267,0,0,1-.535-.116,1.174,1.174,0,0,1-.444-.369,1.982,1.982,0,0,1-.308-.657,3.628,3.628,0,0,1-.116-.99,2.339,2.339,0,0,1,.435-1.566,1.672,1.672,0,0,1,1.2-.546Z" transform="translate(-784.602 -349.107)" fill="#fff"/>
    </g>
    <path id="Caminho_53" data-name="Caminho 53" d="M180.445,199.462h18.537V263.54a31.039,31.039,0,0,1-2.19,11.9,28.394,28.394,0,0,1-5.983,9.2,26.494,26.494,0,0,1-8.977,5.986,29.289,29.289,0,0,1-11.165,2.116q-14.739,0-21.82-8.1c-4.72-5.4-7.079-11.926-7.079-21.17h17.806c0,4.088.755,6.526,2.263,8.909s4.112,3.577,7.808,3.577c3.8,0,7.027-1.167,8.537-3.5s2.263-5.547,2.263-9.632Z" fill="#fff"/>
    <g id="Grupo_38" data-name="Grupo 38" transform="translate(204.458 199.527)">
      <path id="Caminho_54" data-name="Caminho 54" d="M611.611,688.123l-22.427,8.023v-6.609l14.815-4.7L589.184,680.1v-6.245l22.427,8.068Z" transform="translate(-584.101 -602.061)" fill="#fff"/>
      <path id="Caminho_55" data-name="Caminho 55" d="M598.628,568.248a6.4,6.4,0,0,0,4.057-1.481,4.511,4.511,0,0,0,1.5-3.533,4.956,4.956,0,0,0-.661-2.576,2.99,2.99,0,0,0-1.846-1.436v-6.108a9.838,9.838,0,0,1,5.333,3.647,10.332,10.332,0,0,1,1.869,6.2q0,11.214-12.217,11.214a14.222,14.222,0,0,1-4.7-.729,10.125,10.125,0,0,1-3.6-2.12,9.155,9.155,0,0,1-2.3-3.4,12.4,12.4,0,0,1-.8-4.6q0-5.2,3.328-7.863t10.028-2.667ZM594.89,558.9a6.25,6.25,0,0,0-2.166.433,4.531,4.531,0,0,0-1.55,1.026,4.08,4.08,0,0,0-.912,1.459,4.935,4.935,0,0,0-.3,1.687,4.2,4.2,0,0,0,1.3,3.077,5.541,5.541,0,0,0,3.624,1.482Z" transform="translate(-580.782 -499.339)" fill="#fff"/>
      <path id="Caminho_56" data-name="Caminho 56" d="M608.292,481.616H585.865v-5.561h2.69a7.276,7.276,0,0,1-1.778-1.527,6.593,6.593,0,0,1-.98-1.641,6.288,6.288,0,0,1-.433-1.709,17.026,17.026,0,0,1-.091-1.778v-.775h6.063a10,10,0,0,0-.137,1.641q0,5.425,5.424,5.424h11.67Z" transform="translate(-580.782 -427.919)" fill="#fff"/>
      <path id="Caminho_57" data-name="Caminho 57" d="M583.14,344.018l-2.735.045a6.838,6.838,0,0,1,3.328,6.245,9.244,9.244,0,0,1-.821,3.92,8.561,8.561,0,0,1-2.37,3.054,11.478,11.478,0,0,1-3.783,2.006,16.265,16.265,0,0,1-5.06.729,16.711,16.711,0,0,1-4.672-.615,11.034,11.034,0,0,1-3.67-1.8,8.142,8.142,0,0,1-2.393-2.895,8.7,8.7,0,0,1-.843-3.9,7.8,7.8,0,0,1,3.51-6.655h-8V338.32h27.51Zm-4.24,4.923a4.423,4.423,0,0,0-1.778-3.578,7.171,7.171,0,0,0-4.649-1.436q-7.293,0-7.293,4.969,0,5.106,6.929,5.106a7.974,7.974,0,0,0,4.9-1.413A4.358,4.358,0,0,0,578.9,348.941Z" transform="translate(-555.63 -317.352)" fill="#fff"/>
      <path id="Caminho_58" data-name="Caminho 58" d="M598.628,215.346a6.4,6.4,0,0,0,4.057-1.481,4.511,4.511,0,0,0,1.5-3.533,4.956,4.956,0,0,0-.661-2.576,2.99,2.99,0,0,0-1.846-1.436v-6.108a9.838,9.838,0,0,1,5.333,3.647,10.332,10.332,0,0,1,1.869,6.2q0,11.214-12.217,11.214a14.219,14.219,0,0,1-4.7-.73,10.123,10.123,0,0,1-3.6-2.12,9.155,9.155,0,0,1-2.3-3.4,12.4,12.4,0,0,1-.8-4.6q0-5.2,3.328-7.863t10.028-2.667ZM594.89,206a6.25,6.25,0,0,0-2.166.433,4.529,4.529,0,0,0-1.55,1.026,4.08,4.08,0,0,0-.912,1.459,4.935,4.935,0,0,0-.3,1.687,4.2,4.2,0,0,0,1.3,3.077,5.542,5.542,0,0,0,3.624,1.482Z" transform="translate(-580.782 -199.893)" fill="#fff"/>
    </g>
    <rect id="Retângulo_60" data-name="Retângulo 60" width="5.919" height="20.818" transform="translate(238.796 199.462)" fill="#fff"/>
  </g>
</svg>
