<?xml version="1.0" encoding="utf-8"?>
<!-- Generator: Adobe Illustrator 23.1.0, SVG Export Plug-In . SVG Version: 6.00 Build 0)  -->
<svg version="1.1" id="Camada_1" xmlns="http://www.w3.org/2000/svg" xmlns:xlink="http://www.w3.org/1999/xlink" x="0px" y="0px"
	 viewBox="0 0 104.7 94.2" style="enable-background:new 0 0 104.7 94.2;" xml:space="preserve">
<style type="text/css">
	.st0{fill:#FFFFFF;}
	.st1{fill:#6DBE45;}
</style>
<g id="Grupo_37" transform="translate(237.71 222.13)">
	<path id="Caminho_40" class="st0" d="M-138.3-133.5v-1.2h1.4c0.3,0,0.5,0,0.8,0.1c0.2,0.1,0.5,0.2,0.6,0.4c0.2,0.2,0.3,0.4,0.4,0.6
		c0.1,0.3,0.2,0.6,0.2,0.9c0,0.3,0,0.6-0.2,0.9c-0.1,0.2-0.2,0.5-0.4,0.6c-0.2,0.2-0.4,0.3-0.6,0.4c-0.2,0.1-0.5,0.1-0.8,0.1h-4.4
		v-1.3h1.3v-2.7h0.9v2.7h2c0.3,0,0.5,0,0.7-0.2c0.2-0.1,0.3-0.4,0.3-0.6c0-0.2-0.1-0.4-0.3-0.6c-0.2-0.1-0.5-0.2-0.7-0.2
		L-138.3-133.5z"/>
	<path id="Caminho_41" class="st0" d="M-135-138.5c-0.1,0-0.3,0.1-0.4,0.1c0.2,0.2,0.3,0.4,0.4,0.6c0.1,0.3,0.2,0.6,0.2,0.9
		c0,0.5-0.1,0.9-0.4,1.3c-0.3,0.3-0.6,0.4-1,0.4c-0.3,0-0.6,0-0.9-0.2c-0.2-0.1-0.4-0.3-0.5-0.5c-0.1-0.2-0.2-0.5-0.3-0.7
		c-0.1-0.3-0.1-0.6-0.2-0.9c0-0.2-0.1-0.5-0.2-0.7c-0.2-0.2-0.5-0.2-0.6-0.1c0,0-0.1,0.1-0.1,0.1c-0.1,0.2-0.1,0.4-0.1,0.6
		c0,0.2,0,0.5,0.2,0.7c0.1,0.1,0.3,0.2,0.5,0.2v1.2c-0.2,0-0.5,0-0.7-0.1c-0.2-0.1-0.4-0.2-0.6-0.4c-0.2-0.2-0.3-0.4-0.4-0.7
		c-0.1-0.3-0.1-0.7-0.1-1c0-0.3,0-0.7,0.1-1c0.1-0.2,0.2-0.5,0.4-0.7c0.2-0.2,0.4-0.3,0.6-0.4c0.3-0.1,0.6-0.1,0.8-0.1h3.1
		L-135-138.5z M-137.4-138.4c0.1,0.1,0.1,0.2,0.2,0.3c0.1,0.2,0.1,0.4,0.1,0.6c0,0.3,0.1,0.5,0.3,0.8c0.1,0.1,0.3,0.2,0.5,0.2
		c0.4,0,0.6-0.2,0.6-0.6c0-0.2,0-0.3-0.1-0.5c-0.1-0.3-0.3-0.5-0.6-0.6c-0.1-0.1-0.3-0.1-0.4-0.1L-137.4-138.4z"/>
	<path id="Caminho_42" class="st0" d="M-133.1-140.5h-6.9v-1.3l0.6,0c-0.5-0.3-0.8-0.8-0.7-1.4c0-0.3,0.1-0.6,0.2-0.9
		c0.1-0.3,0.3-0.5,0.5-0.7c0.2-0.2,0.5-0.3,0.8-0.4c0.4-0.1,0.7-0.2,1.1-0.2c0.3,0,0.7,0,1,0.1c0.3,0.1,0.6,0.2,0.8,0.4
		c0.2,0.2,0.4,0.4,0.5,0.6c0.1,0.3,0.2,0.6,0.2,0.9c0,0.6-0.3,1.1-0.8,1.5h2.6L-133.1-140.5z M-136-142.8c0-0.8-0.5-1.1-1.5-1.1
		c-0.4,0-0.8,0.1-1.1,0.3c-0.3,0.2-0.4,0.5-0.4,0.8c0,0.3,0.1,0.6,0.4,0.8c0.3,0.2,0.7,0.3,1,0.3C-136.5-141.7-136-142.1-136-142.8
		L-136-142.8z"/>
	<path id="Caminho_43" class="st0" d="M-137.1-147.1c0.3,0,0.6-0.1,0.9-0.3c0.2-0.2,0.3-0.5,0.3-0.8c0-0.2,0-0.4-0.1-0.6
		c-0.1-0.2-0.2-0.3-0.4-0.3v-1.4c0.5,0.1,0.9,0.4,1.2,0.8c0.3,0.4,0.4,0.9,0.4,1.4c0,1.7-0.9,2.5-2.7,2.5c-0.4,0-0.7-0.1-1-0.2
		c-0.3-0.1-0.6-0.3-0.8-0.5c-0.2-0.2-0.4-0.5-0.5-0.8c-0.1-0.3-0.2-0.7-0.2-1c0-0.7,0.2-1.3,0.7-1.7c0.7-0.4,1.4-0.6,2.2-0.6
		L-137.1-147.1z M-137.9-149.2c-0.2,0-0.3,0-0.5,0.1c-0.1,0.1-0.2,0.1-0.3,0.2c-0.1,0.1-0.2,0.2-0.2,0.3c0,0.1-0.1,0.2-0.1,0.4
		c0,0.3,0.1,0.5,0.3,0.7c0.2,0.2,0.5,0.3,0.8,0.3V-149.2z"/>
	<path id="Caminho_44" class="st0" d="M-138.3-154v-1.2h1.4c0.3,0,0.5,0,0.8,0.1c0.2,0.1,0.5,0.2,0.6,0.4c0.2,0.2,0.3,0.4,0.4,0.6
		c0.1,0.3,0.2,0.6,0.2,0.9c0,0.3,0,0.6-0.2,0.9c-0.1,0.2-0.2,0.5-0.4,0.6c-0.2,0.2-0.4,0.3-0.6,0.4c-0.2,0.1-0.5,0.1-0.8,0.1h-4.4
		v-1.3h1.3v-2.7h0.9v2.7h2c0.3,0,0.5,0,0.7-0.2c0.2-0.1,0.3-0.4,0.3-0.6c0-0.2-0.1-0.4-0.3-0.6c-0.2-0.1-0.5-0.2-0.7-0.2L-138.3-154
		z"/>
	<path id="Caminho_45" class="st0" d="M-137.1-157.2c0.3,0,0.6-0.1,0.9-0.3c0.2-0.2,0.3-0.5,0.3-0.8c0-0.2,0-0.4-0.1-0.6
		c-0.1-0.2-0.2-0.3-0.4-0.3v-1.4c0.5,0.1,0.9,0.4,1.2,0.8c0.3,0.4,0.4,0.9,0.4,1.4c0,1.7-0.9,2.5-2.7,2.5c-0.4,0-0.7-0.1-1-0.2
		c-0.3-0.1-0.6-0.3-0.8-0.5c-0.2-0.2-0.4-0.5-0.5-0.8c-0.1-0.3-0.2-0.7-0.2-1c0-0.7,0.2-1.3,0.7-1.7c0.7-0.4,1.4-0.6,2.2-0.6
		L-137.1-157.2z M-137.9-159.2c-0.2,0-0.3,0-0.5,0.1c-0.1,0.1-0.2,0.1-0.3,0.2c-0.1,0.1-0.2,0.2-0.2,0.3c0,0.1-0.1,0.2-0.1,0.4
		c0,0.3,0.1,0.5,0.3,0.7c0.2,0.2,0.5,0.3,0.8,0.3V-159.2z"/>
	<path id="Caminho_46" class="st0" d="M-138.4-164.2c-0.2,0-0.4,0.1-0.5,0.3c-0.1,0.2-0.2,0.4-0.2,0.6c0,0.2,0,0.4,0.1,0.6
		c0.1,0.1,0.2,0.2,0.3,0.2c0.1,0,0.3-0.1,0.3-0.2c0.1-0.2,0.2-0.4,0.2-0.6c0.1-0.4,0.2-0.8,0.3-1.1c0.1-0.3,0.2-0.5,0.3-0.7
		c0.1-0.2,0.3-0.3,0.4-0.4c0.2-0.1,0.5-0.1,0.7-0.1c0.4,0,0.8,0.2,1.1,0.6c0.3,0.5,0.5,1.1,0.4,1.6c0,0.3,0,0.7-0.1,1
		c-0.1,0.3-0.2,0.5-0.3,0.7c-0.3,0.4-0.8,0.6-1.3,0.7v-1.4c0.2,0,0.4-0.1,0.5-0.3c0.1-0.2,0.2-0.5,0.2-0.7c0-0.2,0-0.4-0.1-0.6
		c0-0.2-0.2-0.3-0.4-0.3c-0.2,0-0.3,0.1-0.4,0.2c-0.1,0.2-0.2,0.4-0.2,0.6c-0.1,0.4-0.2,0.8-0.3,1.2c-0.1,0.3-0.2,0.5-0.4,0.7
		c-0.1,0.2-0.3,0.3-0.5,0.3c-0.2,0.1-0.4,0.1-0.6,0.1c-0.2,0-0.4,0-0.5-0.1c-0.2-0.1-0.3-0.2-0.4-0.4c-0.1-0.2-0.2-0.4-0.3-0.7
		c-0.1-0.3-0.1-0.7-0.1-1c0-0.6,0.1-1.1,0.4-1.6c0.3-0.3,0.7-0.5,1.2-0.5L-138.4-164.2z"/>
	<path id="Caminho_47" class="st0" d="M-138.8-172.2v-1.3h1.8c0.3,0,0.6,0.1,0.9,0.2c0.3,0.1,0.5,0.3,0.7,0.5
		c0.2,0.2,0.4,0.4,0.5,0.7c0.1,0.3,0.2,0.6,0.2,0.9c0,0.3,0,0.7-0.2,1c-0.1,0.3-0.2,0.5-0.4,0.8c-0.2,0.2-0.4,0.4-0.7,0.5
		c-0.3,0.1-0.5,0.2-0.8,0.2c-0.2,0-0.3,0-0.5-0.1c-0.2,0-0.3-0.1-0.5-0.2c-0.1-0.1-0.3-0.2-0.4-0.3c-0.1-0.1-0.2-0.2-0.2-0.3
		c-0.3,0.5-0.8,0.8-1.4,0.8c-0.3,0-0.5-0.1-0.8-0.2c-0.2-0.1-0.4-0.3-0.6-0.5c-0.2-0.2-0.3-0.5-0.4-0.8c-0.1-0.3-0.1-0.7-0.1-1h1.1
		c0,0.3,0,0.7,0.2,1c0.2,0.2,0.4,0.3,0.7,0.3c0.2,0,0.5-0.1,0.6-0.3c0.2-0.3,0.2-0.6,0.2-1h1c0,0.3,0.1,0.7,0.2,0.9
		c0.2,0.2,0.5,0.4,0.8,0.3c0.1,0,0.3,0,0.4-0.1c0.1,0,0.2-0.1,0.3-0.2c0.1-0.1,0.2-0.2,0.2-0.3c0.1-0.2,0.1-0.3,0.1-0.5
		c0-0.7-0.4-1-1.2-1L-138.8-172.2z"/>
	<path id="Caminho_48" class="st0" d="M-133.1-176.9h-6.9v-1.3l0.6,0c-0.5-0.3-0.8-0.8-0.7-1.4c0-0.3,0.1-0.6,0.2-0.9
		c0.1-0.3,0.3-0.5,0.5-0.7c0.2-0.2,0.5-0.3,0.8-0.4c0.4-0.1,0.7-0.2,1.1-0.2c0.3,0,0.7,0,1,0.1c0.3,0.1,0.6,0.2,0.8,0.4
		c0.2,0.2,0.4,0.4,0.5,0.6c0.1,0.3,0.2,0.6,0.2,0.9c0,0.6-0.3,1.1-0.8,1.5h2.6L-133.1-176.9z M-136-179.2c0-0.8-0.5-1.1-1.5-1.1
		c-0.4,0-0.8,0.1-1.1,0.3c-0.3,0.2-0.4,0.5-0.4,0.8c0,0.3,0.1,0.6,0.4,0.8c0.3,0.2,0.7,0.3,1,0.3C-136.5-178.1-136-178.5-136-179.2
		L-136-179.2z"/>
	<path id="Caminho_49" class="st0" d="M-140.5-182.4h-1.2v-1.3h1.2V-182.4z M-135-182.4h-5v-1.3h5L-135-182.4z"/>
	<path id="Caminho_50" class="st0" d="M-138.4-187.5c-0.2,0-0.4,0.1-0.5,0.3c-0.1,0.2-0.2,0.4-0.2,0.6c0,0.2,0,0.4,0.1,0.6
		c0.1,0.1,0.2,0.2,0.3,0.2c0.1,0,0.3-0.1,0.3-0.2c0.1-0.2,0.2-0.4,0.2-0.6c0.1-0.4,0.2-0.8,0.3-1.1c0.1-0.3,0.2-0.5,0.3-0.7
		c0.1-0.2,0.3-0.3,0.4-0.4c0.2-0.1,0.5-0.1,0.7-0.1c0.4,0,0.8,0.2,1.1,0.6c0.3,0.5,0.5,1.1,0.4,1.6c0,0.3,0,0.7-0.1,1
		c-0.1,0.3-0.2,0.5-0.3,0.7c-0.3,0.4-0.8,0.6-1.3,0.7v-1.4c0.2,0,0.4-0.1,0.5-0.3c0.1-0.2,0.2-0.5,0.2-0.7c0-0.2,0-0.4-0.1-0.6
		c0-0.2-0.2-0.3-0.4-0.3c-0.2,0-0.3,0.1-0.4,0.2c-0.1,0.2-0.2,0.4-0.2,0.6c-0.1,0.4-0.2,0.8-0.3,1.2c-0.1,0.3-0.2,0.5-0.4,0.7
		c-0.1,0.2-0.3,0.3-0.5,0.3c-0.2,0.1-0.4,0.1-0.6,0.1c-0.2,0-0.4,0-0.5-0.1c-0.2-0.1-0.3-0.2-0.4-0.4c-0.1-0.2-0.2-0.4-0.3-0.7
		c-0.1-0.3-0.1-0.7-0.1-1c0-0.6,0.1-1.1,0.4-1.6c0.3-0.3,0.7-0.5,1.2-0.5L-138.4-187.5z"/>
	<path id="Caminho_51" class="st0" d="M-134.8-191.9c0,0.4-0.1,0.7-0.2,1.1c-0.2,0.6-0.7,1.1-1.4,1.3c-0.3,0.1-0.7,0.2-1.1,0.2
		c-0.4,0-0.7-0.1-1.1-0.2c-0.3-0.1-0.6-0.3-0.8-0.5c-0.2-0.2-0.4-0.5-0.5-0.8c-0.1-0.3-0.2-0.7-0.2-1.1c0-0.4,0.1-0.7,0.2-1.1
		c0.1-0.3,0.3-0.6,0.5-0.8c0.2-0.2,0.5-0.4,0.8-0.5c0.3-0.1,0.7-0.2,1.1-0.2c0.4,0,0.7,0.1,1.1,0.2c0.3,0.1,0.6,0.3,0.8,0.5
		c0.2,0.2,0.4,0.5,0.5,0.8C-134.9-192.6-134.8-192.2-134.8-191.9z M-135.9-191.9c0-0.8-0.5-1.2-1.5-1.2c-1,0-1.5,0.4-1.5,1.2
		c0,0.8,0.5,1.2,1.5,1.2C-136.5-190.7-136-191.1-135.9-191.9L-135.9-191.9z"/>
	<path id="Caminho_52" class="st0" d="M-138.4-198.1c-0.2,0-0.4,0.1-0.5,0.3c-0.1,0.2-0.2,0.4-0.2,0.6c0,0.2,0,0.4,0.1,0.6
		c0.1,0.1,0.2,0.2,0.3,0.2c0.1,0,0.3-0.1,0.3-0.2c0.1-0.2,0.2-0.4,0.2-0.6c0.1-0.4,0.2-0.8,0.3-1.1c0.1-0.3,0.2-0.5,0.3-0.7
		c0.1-0.2,0.3-0.3,0.4-0.4c0.2-0.1,0.5-0.1,0.7-0.1c0.4,0,0.8,0.2,1.1,0.6c0.3,0.5,0.5,1.1,0.4,1.6c0,0.3,0,0.7-0.1,1
		c-0.1,0.3-0.2,0.5-0.3,0.7c-0.3,0.4-0.8,0.6-1.3,0.7v-1.4c0.2,0,0.4-0.1,0.5-0.3c0.1-0.2,0.2-0.5,0.2-0.7c0-0.2,0-0.4-0.1-0.6
		c0-0.2-0.2-0.3-0.4-0.3c-0.2,0-0.3,0.1-0.4,0.2c-0.1,0.2-0.2,0.4-0.2,0.6c-0.1,0.4-0.2,0.8-0.3,1.2c-0.1,0.3-0.2,0.5-0.4,0.7
		c-0.1,0.2-0.3,0.3-0.5,0.3c-0.2,0.1-0.4,0.1-0.6,0.1c-0.2,0-0.4,0-0.5-0.1c-0.2-0.1-0.3-0.2-0.4-0.4c-0.1-0.2-0.2-0.4-0.3-0.7
		c-0.1-0.3-0.1-0.7-0.1-1c0-0.6,0.1-1.1,0.4-1.6c0.3-0.3,0.7-0.5,1.2-0.5L-138.4-198.1z"/>
</g>
<path id="Caminho_53" class="st1" d="M38.7,0h18.5v64.1c0.1,4.1-0.7,8.1-2.2,11.9c-1.4,3.4-3.4,6.6-6,9.2c-2.6,2.6-5.6,4.6-9,6
	c-3.5,1.4-7.3,2.1-11.2,2.1c-9.8,0-17.1-2.7-21.8-8.1C2.4,79.8,0,73.3,0,64h17.8c0,4.1,0.8,6.5,2.3,8.9s4.1,3.6,7.8,3.6
	c3.8,0,7-1.2,8.5-3.5s2.3-5.5,2.3-9.6L38.7,0z"/>
<g id="Grupo_38" transform="translate(204.458 199.527)">
	<path id="Caminho_54" class="st0" d="M-114.3-113.4l-22.4,8v-6.6l14.8-4.7l-14.8-4.7v-6.2l22.4,8.1V-113.4z"/>
	<path id="Caminho_55" class="st0" d="M-123.9-130.6c1.5,0,2.9-0.5,4.1-1.5c1-0.9,1.6-2.2,1.5-3.5c0-0.9-0.2-1.8-0.7-2.6
		c-0.4-0.7-1.1-1.2-1.8-1.4v-6.1c2.1,0.6,4,1.9,5.3,3.6c1.3,1.8,1.9,4,1.9,6.2c0,7.5-4.1,11.2-12.2,11.2c-1.6,0-3.2-0.2-4.7-0.7
		c-1.3-0.4-2.6-1.2-3.6-2.1c-1-0.9-1.8-2.1-2.3-3.4c-0.6-1.5-0.8-3-0.8-4.6c0-3.5,1.1-6.1,3.3-7.9s5.6-2.7,10-2.7L-123.9-130.6z
		 M-127.7-139.9c-0.7,0-1.5,0.2-2.2,0.4c-0.6,0.2-1.1,0.6-1.5,1c-0.4,0.4-0.7,0.9-0.9,1.5c-0.2,0.5-0.3,1.1-0.3,1.7
		c0,1.2,0.5,2.3,1.3,3.1c1,0.9,2.3,1.4,3.6,1.5L-127.7-139.9z"/>
	<path id="Caminho_56" class="st0" d="M-114.3-145.8h-22.4v-5.6h2.7c-0.7-0.4-1.3-0.9-1.8-1.5c-0.4-0.5-0.7-1-1-1.6
		c-0.2-0.5-0.4-1.1-0.4-1.7c-0.1-0.6-0.1-1.2-0.1-1.8v-0.8h6.1c-0.1,0.5-0.1,1.1-0.1,1.6c0,3.6,1.8,5.4,5.4,5.4h11.7L-114.3-145.8z"
		/>
	<path id="Caminho_57" class="st0" d="M-114.3-172.8l-2.7,0c2.2,1.3,3.5,3.7,3.3,6.2c0,1.4-0.3,2.7-0.8,3.9
		c-0.5,1.2-1.4,2.2-2.4,3.1c-1.1,0.9-2.4,1.6-3.8,2c-1.6,0.5-3.3,0.8-5.1,0.7c-1.6,0-3.2-0.2-4.7-0.6c-1.3-0.4-2.6-1-3.7-1.8
		c-1-0.8-1.8-1.8-2.4-2.9c-0.6-1.2-0.9-2.6-0.8-3.9c0-2.7,1.3-5.2,3.5-6.7h-8v-5.8h27.5L-114.3-172.8z M-118.5-167.9
		c0-1.4-0.6-2.7-1.8-3.6c-1.3-1-3-1.5-4.6-1.4c-4.9,0-7.3,1.7-7.3,5c0,3.4,2.3,5.1,6.9,5.1c1.7,0.1,3.5-0.4,4.9-1.4
		C-119.2-165-118.5-166.4-118.5-167.9z"/>
	<path id="Caminho_58" class="st0" d="M-123.9-184c1.5,0,2.9-0.5,4.1-1.5c1-0.9,1.6-2.2,1.5-3.5c0-0.9-0.2-1.8-0.7-2.6
		c-0.4-0.7-1.1-1.2-1.8-1.4v-6.1c2.1,0.6,4,1.9,5.3,3.6c1.3,1.8,1.9,4,1.9,6.2c0,7.5-4.1,11.2-12.2,11.2c-1.6,0-3.2-0.2-4.7-0.7
		c-1.3-0.4-2.6-1.2-3.6-2.1c-1-0.9-1.8-2.1-2.3-3.4c-0.6-1.5-0.8-3-0.8-4.6c0-3.5,1.1-6.1,3.3-7.9c2.2-1.8,5.6-2.7,10-2.7
		L-123.9-184z M-127.7-193.4c-0.7,0-1.5,0.2-2.2,0.4c-0.6,0.2-1.1,0.6-1.5,1c-0.4,0.4-0.7,0.9-0.9,1.5c-0.2,0.5-0.3,1.1-0.3,1.7
		c0,1.2,0.5,2.3,1.3,3.1c1,0.9,2.3,1.4,3.6,1.5L-127.7-193.4z"/>
</g>
<rect id="Retângulo_60" x="97" class="st1" width="5.9" height="20.8"/>
</svg>
