<svg xmlns="http://www.w3.org/2000/svg" width="24" height="17" viewBox="0 0 24 17">
  <path id="Caminho_38" data-name="Caminho 38" d="M72.85,179.218a1.735,1.735,0,0,0-1.311-1.234,3.637,3.637,0,0,0-.744-.038H50.757c-.06,0-.122,0-.181,0a1.752,1.752,0,0,0-1.511,1,2.638,2.638,0,0,0-.155,1.132v12.675a3.287,3.287,0,0,0,.075.982,1.735,1.735,0,0,0,1.361,1.181,2.461,2.461,0,0,0,.386.025H71.184A1.759,1.759,0,0,0,72.723,194a1.809,1.809,0,0,0,.184-.822V179.75A2.053,2.053,0,0,0,72.85,179.218Zm-8.153,7.4,3.475,3.061,2.2,1.931a.763.763,0,0,1,0,1.079.8.8,0,0,1-1.1,0c-.267-.237-.536-.473-.8-.707q-1.738-1.531-3.475-3.061c-.547-.481-1.1-.957-1.643-1.443-.166.148-.334.293-.5.44a3.757,3.757,0,0,1-.785.6q-.1.05-.2.092c-.067.028-.135.056-.2.079a2.433,2.433,0,0,1-1.42.023,2.18,2.18,0,0,1-.7-.333.475.475,0,0,1-.057-.043h0c-.088-.064-.174-.132-.259-.206-.005,0-.008-.008-.013-.01-.1-.081-.192-.168-.288-.254-.047-.043-.1-.084-.143-.127-.1-.089-.2-.176-.3-.265l-.254.219q-1.738,1.531-3.478,3.064-1.1.966-2.2,1.931a.805.805,0,0,1-1.1,0,.758.758,0,0,1,0-1.079c.267-.237.536-.471.8-.707l3.475-3.061,1.581-1.392c-.137-.122-.275-.244-.415-.364q-1.112-.977-2.221-1.957l-2.216-1.954q-.505-.447-1.011-.891a.763.763,0,0,1,0-1.079.8.8,0,0,1,1.1,0,.112.112,0,0,0,.018.015c.389.333.767.677,1.151,1.015L55.9,183.16q1.061.935,2.125,1.873.5.439,1,.878c.254.224.508.448.764.672l.039.033.448.394.083.074c.132.079.057.046.008.005a.036.036,0,0,0,.01.008.233.233,0,0,0,.041.028.006.006,0,0,1,.005.005l.008.005h0l.023.015.036.02.031.015.049.025h0a1.7,1.7,0,0,0,.223.061,1.781,1.781,0,0,0,.233,0,1.853,1.853,0,0,0,.225-.061,1.149,1.149,0,0,0,.155-.087c.005-.005.021-.013.034-.023h0l0,0,.005-.005s.005-.005.008-.005a0,0,0,0,0,0,0l.041-.038.041-.038.448-.394c.218-.193.438-.387.656-.578l.145-.127.026-.023,1.2-1.054,2.19-1.929,2.117-1.865.949-.835a.805.805,0,0,1,1.1,0,.758.758,0,0,1,0,1.079c-.023.02-.047.041-.067.061-.469.415-.941.827-1.41,1.242q-1.166,1.031-2.338,2.059l-2.042,1.8-.008.008C64.57,186.5,64.632,186.56,64.7,186.616Z" transform="translate(-48.907 -177.944)" fill="#fff"/>
</svg>
