<?xml version="1.0" encoding="utf-8"?>
<!-- Generator: Adobe Illustrator 24.0.2, SVG Export Plug-In . SVG Version: 6.00 Build 0)  -->
<svg version="1.1" id="Camada_1" xmlns="http://www.w3.org/2000/svg" xmlns:xlink="http://www.w3.org/1999/xlink" x="0px" y="0px"
	 viewBox="0 0 162 54" style="enable-background:new 0 0 162 54;" xml:space="preserve">
<style type="text/css">
	.st0{fill:#FFFFFF;}
</style>
<g id="Grupo_1" transform="translate(156.401 64.73)">
	<path id="Caminho_1" class="st0" d="M-118.1-18h1.7v2c0,0.4-0.1,0.7-0.2,1.1c-0.1,0.3-0.3,0.6-0.5,0.9c-0.2,0.3-0.5,0.5-0.9,0.6
		c-0.4,0.2-0.8,0.2-1.3,0.2c-0.4,0-0.9-0.1-1.3-0.2c-0.3-0.1-0.6-0.3-0.9-0.6c-0.2-0.3-0.4-0.6-0.5-0.9c-0.1-0.4-0.2-0.7-0.2-1.1
		v-6.3h1.8v1.9h3.8v1.3h-3.8v2.9c0,0.4,0.1,0.7,0.2,1c0.2,0.3,0.5,0.4,0.8,0.4c0.3,0,0.6-0.1,0.8-0.4c0.2-0.3,0.3-0.7,0.3-1
		L-118.1-18z"/>
	<path id="Caminho_2" class="st0" d="M-111-13.4c-0.1-0.2-0.1-0.4-0.1-0.6c-0.2,0.3-0.5,0.5-0.9,0.6c-0.4,0.2-0.8,0.2-1.2,0.2
		c-0.6,0.1-1.3-0.1-1.8-0.5c-0.4-0.4-0.6-0.9-0.6-1.4c0-0.4,0.1-0.8,0.2-1.2c0.2-0.3,0.4-0.5,0.7-0.7c0.3-0.2,0.7-0.3,1-0.4
		c0.4-0.1,0.8-0.2,1.3-0.2c0.3,0,0.6-0.1,0.9-0.3c0.3-0.2,0.3-0.6,0.1-0.9c0-0.1-0.1-0.1-0.2-0.1c-0.3-0.1-0.6-0.2-0.9-0.2
		c-0.3,0-0.7,0.1-0.9,0.3c-0.2,0.2-0.3,0.5-0.3,0.8h-1.7c0-0.3,0.1-0.7,0.2-1c0.1-0.3,0.3-0.6,0.5-0.8c0.3-0.2,0.6-0.4,0.9-0.5
		c0.5-0.1,0.9-0.2,1.4-0.2c0.5,0,0.9,0.1,1.4,0.2c0.3,0.1,0.7,0.3,0.9,0.5c0.2,0.2,0.4,0.5,0.5,0.9c0.1,0.4,0.2,0.8,0.2,1.2v4.4
		L-111-13.4z M-111.2-16.9c-0.1,0.1-0.3,0.2-0.4,0.2c-0.3,0.1-0.5,0.1-0.8,0.2c-0.4,0.1-0.8,0.2-1.1,0.4c-0.2,0.2-0.3,0.4-0.3,0.7
		c0,0.5,0.3,0.8,0.9,0.8c0.2,0,0.4,0,0.7-0.1c0.4-0.1,0.7-0.4,0.9-0.8c0.1-0.2,0.1-0.4,0.1-0.6L-111.2-16.9z"/>
	<path id="Caminho_3" class="st0" d="M-108.3-10.7v-9.7h1.8l0,0.9c0.4-0.7,1.1-1.1,1.9-1c0.4,0,0.8,0.1,1.2,0.3
		c0.4,0.2,0.7,0.4,1,0.7c0.3,0.4,0.5,0.8,0.6,1.2c0.2,0.5,0.2,1,0.2,1.6c0,0.5-0.1,1-0.2,1.5c-0.1,0.4-0.3,0.8-0.6,1.1
		c-0.2,0.3-0.5,0.6-0.9,0.7c-0.4,0.2-0.8,0.3-1.2,0.3c-0.8,0-1.6-0.4-2.1-1.1v3.6L-108.3-10.7z M-105-14.8c1.1,0,1.6-0.7,1.6-2.2
		c0-0.5-0.1-1.1-0.4-1.5c-0.3-0.4-0.7-0.6-1.1-0.6c-0.4,0-0.8,0.2-1.1,0.6c-0.3,0.4-0.5,0.9-0.4,1.5C-106.5-15.6-106-14.8-105-14.8
		L-105-14.8z"/>
	<path id="Caminho_4" class="st0" d="M-99-16.5c0,0.5,0.2,0.9,0.5,1.3c0.3,0.3,0.7,0.5,1.1,0.5c0.3,0,0.6-0.1,0.8-0.2
		c0.2-0.1,0.4-0.3,0.4-0.6h1.9c-0.2,0.7-0.6,1.3-1.1,1.7c-0.6,0.4-1.2,0.6-1.9,0.6c-2.3,0-3.5-1.3-3.5-3.8c0-0.5,0.1-1,0.2-1.5
		c0.1-0.4,0.4-0.8,0.7-1.1c0.3-0.3,0.6-0.6,1-0.7c0.5-0.2,0.9-0.3,1.4-0.2c0.9-0.1,1.8,0.3,2.4,1c0.6,0.9,0.9,2,0.8,3.1L-99-16.5z
		 M-96.1-17.6c0-0.2,0-0.5-0.1-0.7c-0.1-0.2-0.2-0.3-0.3-0.5c-0.1-0.1-0.3-0.2-0.5-0.3c-0.2-0.1-0.3-0.1-0.5-0.1
		c-0.4,0-0.7,0.1-1,0.4c-0.3,0.3-0.4,0.7-0.5,1.1L-96.1-17.6z"/>
	<path id="Caminho_5" class="st0" d="M-89.4-18h1.7v2c0,0.4-0.1,0.7-0.2,1.1c-0.1,0.3-0.3,0.6-0.5,0.9c-0.2,0.3-0.5,0.5-0.9,0.6
		c-0.4,0.2-0.8,0.2-1.3,0.2c-0.4,0-0.9-0.1-1.3-0.2c-0.3-0.1-0.6-0.3-0.9-0.6c-0.2-0.3-0.4-0.6-0.5-0.9c-0.1-0.4-0.2-0.7-0.2-1.1
		v-6.3h1.8v1.9h3.8v1.3h-3.8v2.9c0,0.4,0.1,0.7,0.2,1c0.2,0.3,0.5,0.4,0.8,0.4c0.3,0,0.6-0.1,0.8-0.4c0.2-0.3,0.3-0.7,0.3-1
		L-89.4-18z"/>
	<path id="Caminho_6" class="st0" d="M-85-16.5c0,0.5,0.2,0.9,0.5,1.3c0.3,0.3,0.7,0.5,1.1,0.5c0.3,0,0.6-0.1,0.8-0.2
		c0.2-0.1,0.4-0.3,0.4-0.6h1.9c-0.2,0.7-0.6,1.3-1.1,1.7c-0.6,0.4-1.2,0.6-1.9,0.6c-2.3,0-3.5-1.3-3.5-3.8c0-0.5,0.1-1,0.2-1.5
		c0.1-0.4,0.4-0.8,0.7-1.1c0.3-0.3,0.6-0.6,1-0.7c0.5-0.2,0.9-0.3,1.4-0.2c0.9-0.1,1.8,0.3,2.4,1c0.6,0.9,0.9,2,0.8,3.1L-85-16.5z
		 M-82.1-17.6c0-0.2,0-0.5-0.1-0.7c-0.1-0.2-0.2-0.3-0.3-0.5c-0.1-0.1-0.3-0.2-0.5-0.3c-0.2-0.1-0.3-0.1-0.5-0.1
		c-0.4,0-0.7,0.1-1,0.4c-0.3,0.3-0.4,0.7-0.5,1.1L-82.1-17.6z"/>
	<path id="Caminho_7" class="st0" d="M-75.2-18.3c0-0.3-0.2-0.5-0.4-0.7c-0.3-0.2-0.6-0.2-0.9-0.2c-0.3,0-0.6,0-0.9,0.1
		c-0.2,0.1-0.3,0.3-0.3,0.5c0,0.2,0.1,0.4,0.3,0.5c0.3,0.1,0.5,0.3,0.8,0.3l1.5,0.4c0.3,0.1,0.7,0.2,1,0.4c0.2,0.1,0.4,0.4,0.5,0.6
		c0.1,0.3,0.2,0.6,0.2,1c0,0.6-0.3,1.2-0.8,1.6c-0.7,0.5-1.5,0.7-2.3,0.6c-0.5,0-0.9-0.1-1.4-0.2c-0.4-0.1-0.7-0.3-1-0.5
		c-0.3-0.2-0.5-0.5-0.7-0.8c-0.2-0.3-0.2-0.7-0.2-1h1.9c0,0.3,0.1,0.6,0.4,0.8c0.3,0.2,0.7,0.3,1,0.3c0.3,0,0.6,0,0.9-0.2
		c0.2-0.1,0.4-0.3,0.4-0.5c0-0.2-0.1-0.4-0.3-0.6c-0.3-0.1-0.5-0.2-0.8-0.3c-0.6-0.1-1.1-0.3-1.6-0.5c-0.3-0.1-0.7-0.3-1-0.5
		c-0.2-0.2-0.4-0.4-0.5-0.7c-0.1-0.3-0.1-0.5-0.1-0.8c0-0.3,0.1-0.5,0.2-0.8c0.1-0.2,0.3-0.5,0.5-0.6c0.3-0.2,0.6-0.3,0.9-0.4
		c0.5-0.1,0.9-0.2,1.4-0.2c0.8-0.1,1.6,0.2,2.2,0.6c0.5,0.4,0.7,1,0.8,1.7L-75.2-18.3z"/>
	<path id="Caminho_8" class="st0" d="M-64-18.9h1.8v2.5c0,0.4-0.1,0.9-0.2,1.3c-0.1,0.4-0.4,0.7-0.6,1c-0.3,0.3-0.6,0.5-1,0.6
		c-0.4,0.2-0.8,0.2-1.3,0.2c-0.5,0-1-0.1-1.4-0.2c-0.4-0.1-0.7-0.3-1-0.6c-0.3-0.3-0.5-0.6-0.7-0.9c-0.2-0.4-0.2-0.8-0.2-1.2
		c0-0.2,0-0.5,0.1-0.7c0.1-0.2,0.1-0.4,0.2-0.6c0.1-0.2,0.2-0.4,0.4-0.5c0.1-0.1,0.3-0.3,0.5-0.3c-0.7-0.4-1.2-1.2-1.1-2
		c0-0.4,0.1-0.7,0.3-1.1c0.2-0.3,0.4-0.6,0.7-0.8c0.3-0.2,0.7-0.4,1.1-0.5c0.5-0.1,1-0.2,1.4-0.2v1.6c-0.5,0-0.9,0.1-1.3,0.3
		c-0.3,0.3-0.4,0.6-0.4,1c0,0.3,0.1,0.7,0.4,0.9c0.4,0.2,0.9,0.3,1.3,0.3v1.3c-0.5,0-0.9,0.1-1.3,0.3c-0.3,0.3-0.5,0.7-0.5,1.1
		c0,0.2,0,0.4,0.1,0.6c0.1,0.2,0.2,0.3,0.3,0.5c0.1,0.1,0.3,0.2,0.5,0.3c0.2,0.1,0.5,0.1,0.7,0.1c0.9,0,1.4-0.6,1.4-1.7L-64-18.9z"
		/>
	<path id="Caminho_9" class="st0" d="M-57.5-10.7v-9.7h1.8l0,0.9c0.4-0.7,1.1-1.1,1.9-1c0.4,0,0.8,0.1,1.2,0.3
		c0.4,0.2,0.7,0.4,1,0.7c0.3,0.4,0.5,0.8,0.6,1.2c0.2,0.5,0.2,1,0.2,1.6c0,0.5-0.1,1-0.2,1.5c-0.1,0.4-0.3,0.8-0.6,1.1
		c-0.2,0.3-0.5,0.6-0.9,0.7c-0.4,0.2-0.8,0.3-1.2,0.3c-0.8,0-1.6-0.4-2.1-1.1v3.6L-57.5-10.7z M-54.2-14.8c1.1,0,1.6-0.7,1.6-2.2
		c0-0.5-0.1-1.1-0.4-1.5c-0.3-0.4-0.7-0.6-1.1-0.6c-0.4,0-0.8,0.2-1.1,0.6c-0.3,0.4-0.5,0.9-0.4,1.5C-55.8-15.6-55.2-14.8-54.2-14.8
		L-54.2-14.8z"/>
	<path id="Caminho_10" class="st0" d="M-49.8-21.3V-23h1.8v1.7H-49.8z M-49.8-13.4v-7h1.8v7H-49.8z"/>
	<path id="Caminho_11" class="st0" d="M-42.7-18.3c0-0.3-0.2-0.5-0.4-0.7c-0.3-0.2-0.6-0.2-0.9-0.2c-0.3,0-0.6,0-0.9,0.1
		c-0.2,0.1-0.3,0.3-0.3,0.5c0,0.2,0.1,0.4,0.3,0.5c0.3,0.1,0.5,0.3,0.8,0.3l1.5,0.4c0.3,0.1,0.7,0.2,1,0.4c0.2,0.1,0.4,0.4,0.5,0.6
		c0.1,0.3,0.2,0.6,0.2,1c0,0.6-0.3,1.2-0.8,1.6c-0.7,0.5-1.5,0.7-2.3,0.6c-0.5,0-0.9-0.1-1.4-0.2c-0.4-0.1-0.7-0.3-1-0.5
		c-0.3-0.2-0.5-0.5-0.7-0.8c-0.2-0.3-0.2-0.7-0.2-1h1.9c0,0.3,0.1,0.6,0.4,0.8c0.3,0.2,0.7,0.3,1,0.3c0.3,0,0.6,0,0.9-0.2
		c0.2-0.1,0.4-0.3,0.4-0.5c0-0.2-0.1-0.4-0.3-0.6c-0.3-0.1-0.5-0.2-0.8-0.3c-0.6-0.1-1.1-0.3-1.6-0.5c-0.3-0.1-0.7-0.3-1-0.5
		c-0.2-0.2-0.4-0.4-0.5-0.7c-0.1-0.3-0.1-0.5-0.1-0.8c0-0.3,0.1-0.5,0.2-0.8c0.1-0.2,0.3-0.5,0.5-0.6c0.3-0.2,0.6-0.3,0.9-0.4
		c0.5-0.1,0.9-0.2,1.4-0.2c0.8-0.1,1.6,0.2,2.2,0.6c0.5,0.4,0.7,1,0.8,1.7L-42.7-18.3z"/>
	<path id="Caminho_12" class="st0" d="M-36.6-13.3c-0.5,0-1-0.1-1.5-0.3c-0.4-0.2-0.8-0.4-1.1-0.8c-0.3-0.3-0.6-0.7-0.7-1.2
		c-0.2-0.5-0.2-1-0.2-1.5c0-0.5,0.1-1,0.2-1.5c0.2-0.4,0.4-0.8,0.7-1.2c0.3-0.3,0.7-0.6,1.1-0.7c0.5-0.2,1-0.3,1.5-0.3
		c0.5,0,1,0.1,1.5,0.3c0.4,0.2,0.8,0.4,1.1,0.7c0.3,0.3,0.6,0.7,0.7,1.2c0.2,0.5,0.3,1,0.2,1.5c0,0.5-0.1,1-0.2,1.5
		c-0.2,0.4-0.4,0.8-0.7,1.2c-0.3,0.3-0.7,0.6-1.1,0.7C-35.6-13.3-36.1-13.2-36.6-13.3z M-36.6-14.8c1.1,0,1.7-0.7,1.7-2.1
		s-0.6-2.1-1.7-2.1c-1.1,0-1.7,0.7-1.7,2.1S-37.7-14.8-36.6-14.8z"/>
	<path id="Caminho_13" class="st0" d="M-28-18.3c0-0.3-0.2-0.5-0.4-0.7c-0.3-0.2-0.6-0.2-0.9-0.2c-0.3,0-0.6,0-0.9,0.1
		c-0.2,0.1-0.3,0.3-0.3,0.5c0,0.2,0.1,0.4,0.3,0.5c0.3,0.1,0.5,0.3,0.8,0.3l1.5,0.4c0.3,0.1,0.7,0.2,1,0.4c0.2,0.1,0.4,0.4,0.5,0.6
		c0.1,0.3,0.2,0.6,0.2,1c0,0.6-0.3,1.2-0.8,1.6c-0.7,0.5-1.5,0.7-2.3,0.6c-0.5,0-0.9-0.1-1.4-0.2c-0.4-0.1-0.7-0.3-1-0.5
		c-0.3-0.2-0.5-0.5-0.7-0.8c-0.2-0.3-0.2-0.7-0.2-1h1.9c0,0.3,0.1,0.6,0.4,0.8c0.3,0.2,0.7,0.3,1,0.3c0.3,0,0.6,0,0.9-0.2
		c0.2-0.1,0.4-0.3,0.4-0.5c0-0.2-0.1-0.4-0.3-0.6c-0.3-0.1-0.5-0.2-0.8-0.3c-0.6-0.1-1.1-0.3-1.6-0.5c-0.3-0.1-0.7-0.3-1-0.5
		c-0.2-0.2-0.4-0.4-0.5-0.7c-0.1-0.3-0.1-0.5-0.1-0.8c0-0.3,0.1-0.5,0.2-0.8c0.1-0.2,0.3-0.5,0.5-0.6c0.3-0.2,0.6-0.3,0.9-0.4
		c0.5-0.1,0.9-0.2,1.4-0.2c0.8-0.1,1.6,0.2,2.2,0.6c0.5,0.4,0.7,1,0.8,1.7L-28-18.3z"/>
</g>
<path id="Caminho_14" class="st0" d="M18.4,6.8h8.8v30.8c0,2-0.3,3.9-1,5.7c-0.7,1.6-1.6,3.1-2.8,4.4c-1.2,1.2-2.7,2.2-4.3,2.9
	c-1.7,0.7-3.5,1-5.3,1c-4.7,0-8.1-1.3-10.4-3.9C1.1,45.2,0,42,0,37.6h8.5c-0.1,1.5,0.3,3,1.1,4.3c0.8,1.2,2.3,1.9,3.7,1.7
	c1.8,0,3.3-0.6,4.1-1.7c0.8-1.4,1.2-3,1.1-4.6L18.4,6.8z"/>
<g id="Grupo_2" transform="translate(152.694 23)">
	<path id="Caminho_15" class="st0" d="M-110.8,15.7L-122-15.8h9.2l6.5,20.9l6.6-20.9h8.7l-11.3,31.6H-110.8z"/>
	<path id="Caminho_16" class="st0" d="M-86.9,2.1c0,2.1,0.7,4.1,2.1,5.7c1.2,1.4,3.1,2.2,4.9,2.1c1.3,0,2.5-0.3,3.6-0.9
		c1-0.6,1.7-1.5,2-2.6h8.5c-0.8,3-2.6,5.6-5.1,7.5c-2.5,1.8-5.6,2.7-8.6,2.6c-10.4,0-15.6-5.7-15.6-17.2c0-2.2,0.3-4.5,1-6.6
		c0.6-1.9,1.6-3.6,3-5.1c1.3-1.4,2.9-2.5,4.7-3.2c2-0.8,4.2-1.2,6.4-1.1c4.8,0,8.5,1.6,11,4.7c2.5,3.1,3.7,7.8,3.7,14.1L-86.9,2.1z
		 M-73.9-3.1c0-1-0.2-2.1-0.6-3.1c-0.3-0.8-0.8-1.6-1.4-2.2c-0.6-0.6-1.3-1-2-1.3c-0.8-0.3-1.5-0.4-2.4-0.4c-1.6,0-3.2,0.6-4.3,1.8
		c-1.3,1.4-2,3.2-2.1,5.1L-73.9-3.1z"/>
	<path id="Caminho_17" class="st0" d="M-65.7,15.7v-31.6h7.8v3.8c0.6-0.9,1.3-1.8,2.1-2.5c0.7-0.6,1.5-1,2.3-1.4
		c0.8-0.3,1.6-0.5,2.4-0.6c0.8-0.1,1.7-0.1,2.5-0.1h1.1v8.5c-0.8-0.1-1.5-0.2-2.3-0.2c-5,0-7.6,2.5-7.6,7.6v16.4L-65.7,15.7z"/>
	<path id="Caminho_18" class="st0" d="M-28,15.7l-0.1-3.9c-1.8,3.1-5.2,4.9-8.7,4.7c-1.9,0-3.8-0.4-5.5-1.2
		c-1.7-0.8-3.1-1.9-4.3-3.3c-1.3-1.6-2.2-3.4-2.8-5.3c-0.7-2.3-1.1-4.7-1-7.1c0-2.2,0.3-4.4,0.9-6.6c0.5-1.9,1.4-3.6,2.5-5.2
		c1.1-1.4,2.4-2.6,4-3.4c1.7-0.8,3.6-1.2,5.4-1.2c3.7-0.1,7.2,1.8,9.3,4.9V-23h8.1v38.7H-28z M-34.8,9.8c2,0,3.8-0.9,5-2.5
		c1.4-1.9,2.1-4.2,2-6.5c0-6.8-2.3-10.3-6.9-10.3c-4.7,0-7.1,3.3-7.1,9.8c-0.1,2.5,0.6,4.9,2,6.9C-38.8,8.8-36.9,9.8-34.8,9.8
		L-34.8,9.8z"/>
	<path id="Caminho_19" class="st0" d="M-12.3,2.1c0,2.1,0.7,4.1,2.1,5.7C-9,9.3-7.2,10-5.3,10c1.3,0,2.5-0.3,3.6-0.9
		c1-0.6,1.7-1.5,2-2.6h8.5c-0.8,3-2.6,5.6-5.1,7.5c-2.5,1.8-5.6,2.7-8.6,2.6c-10.4,0-15.6-5.7-15.6-17.2c0-2.2,0.3-4.5,1-6.6
		c0.6-1.9,1.6-3.6,3-5.1c1.3-1.4,2.9-2.5,4.7-3.2c2-0.8,4.2-1.2,6.4-1.1c4.8,0,8.5,1.6,11,4.7C8-8.9,9.2-4.2,9.2,2.1L-12.3,2.1z
		 M0.7-3.1c0-1-0.2-2.1-0.6-3.1C-0.2-7-0.7-7.7-1.3-8.4c-0.6-0.6-1.3-1-2-1.3c-0.8-0.3-1.5-0.4-2.4-0.4c-1.6,0-3.2,0.6-4.3,1.8
		c-1.3,1.4-2,3.2-2.1,5.1L0.7-3.1z"/>
</g>
<rect id="Retângulo_1" x="133" y="43.3" class="st0" width="29" height="8.3"/>
</svg>
