<svg xmlns="http://www.w3.org/2000/svg" width="610" height="460" viewBox="0 0 610 460">
  <g id="Grupo_42" data-name="Grupo 42" transform="translate(-697 -180)" opacity="0.4">
    <circle id="Elipse_1" data-name="Elipse 1" cx="5" cy="5" r="5" transform="translate(697 180)" fill="#6dbe45"/>
    <circle id="Elipse_329" data-name="Elipse 329" cx="5" cy="5" r="5" transform="translate(697 420)" fill="#6dbe45"/>
    <circle id="Elipse_165" data-name="Elipse 165" cx="5" cy="5" r="5" transform="translate(697 300)" fill="#6dbe45"/>
    <circle id="Elipse_330" data-name="Elipse 330" cx="5" cy="5" r="5" transform="translate(697 540)" fill="#6dbe45"/>
    <circle id="Elipse_83" data-name="Elipse 83" cx="5" cy="5" r="5" transform="translate(697 240)" fill="#6dbe45"/>
    <circle id="Elipse_331" data-name="Elipse 331" cx="5" cy="5" r="5" transform="translate(697 480)" fill="#6dbe45"/>
    <circle id="Elipse_166" data-name="Elipse 166" cx="5" cy="5" r="5" transform="translate(697 360)" fill="#6dbe45"/>
    <circle id="Elipse_332" data-name="Elipse 332" cx="5" cy="5" r="5" transform="translate(697 600)" fill="#6dbe45"/>
    <circle id="Elipse_42" data-name="Elipse 42" cx="5" cy="5" r="5" transform="translate(697 210)" fill="#6dbe45"/>
    <circle id="Elipse_333" data-name="Elipse 333" cx="5" cy="5" r="5" transform="translate(697 450)" fill="#6dbe45"/>
    <circle id="Elipse_167" data-name="Elipse 167" cx="5" cy="5" r="5" transform="translate(697 330)" fill="#6dbe45"/>
    <circle id="Elipse_334" data-name="Elipse 334" cx="5" cy="5" r="5" transform="translate(697 570)" fill="#6dbe45"/>
    <circle id="Elipse_84" data-name="Elipse 84" cx="5" cy="5" r="5" transform="translate(697 270)" fill="#6dbe45"/>
    <circle id="Elipse_335" data-name="Elipse 335" cx="5" cy="5" r="5" transform="translate(697 510)" fill="#6dbe45"/>
    <circle id="Elipse_168" data-name="Elipse 168" cx="5" cy="5" r="5" transform="translate(697 390)" fill="#6dbe45"/>
    <circle id="Elipse_336" data-name="Elipse 336" cx="5" cy="5" r="5" transform="translate(697 630)" fill="#6dbe45"/>
    <circle id="Elipse_16" data-name="Elipse 16" cx="5" cy="5" r="5" transform="translate(937 180)" fill="#6dbe45"/>
    <circle id="Elipse_302" data-name="Elipse 302" cx="5" cy="5" r="5" transform="translate(937 420)" fill="#6dbe45"/>
    <circle id="Elipse_142" data-name="Elipse 142" cx="5" cy="5" r="5" transform="translate(937 300)" fill="#6dbe45"/>
    <circle id="Elipse_217" data-name="Elipse 217" cx="5" cy="5" r="5" transform="translate(937 540)" fill="#6dbe45"/>
    <circle id="Elipse_59" data-name="Elipse 59" cx="5" cy="5" r="5" transform="translate(937 240)" fill="#6dbe45"/>
    <circle id="Elipse_244" data-name="Elipse 244" cx="5" cy="5" r="5" transform="translate(937 480)" fill="#6dbe45"/>
    <circle id="Elipse_109" data-name="Elipse 109" cx="5" cy="5" r="5" transform="translate(937 360)" fill="#6dbe45"/>
    <circle id="Elipse_218" data-name="Elipse 218" cx="5" cy="5" r="5" transform="translate(937 600)" fill="#6dbe45"/>
    <circle id="Elipse_34" data-name="Elipse 34" cx="5" cy="5" r="5" transform="translate(937 210)" fill="#6dbe45"/>
    <circle id="Elipse_271" data-name="Elipse 271" cx="5" cy="5" r="5" transform="translate(937 450)" fill="#6dbe45"/>
    <circle id="Elipse_113" data-name="Elipse 113" cx="5" cy="5" r="5" transform="translate(937 330)" fill="#6dbe45"/>
    <circle id="Elipse_219" data-name="Elipse 219" cx="5" cy="5" r="5" transform="translate(937 570)" fill="#6dbe45"/>
    <circle id="Elipse_53" data-name="Elipse 53" cx="5" cy="5" r="5" transform="translate(937 270)" fill="#6dbe45"/>
    <circle id="Elipse_221" data-name="Elipse 221" cx="5" cy="5" r="5" transform="translate(937 510)" fill="#6dbe45"/>
    <circle id="Elipse_110" data-name="Elipse 110" cx="5" cy="5" r="5" transform="translate(937 390)" fill="#6dbe45"/>
    <circle id="Elipse_220" data-name="Elipse 220" cx="5" cy="5" r="5" transform="translate(937 630)" fill="#6dbe45"/>
    <circle id="Elipse_8" data-name="Elipse 8" cx="5" cy="5" r="5" transform="translate(817 180)" fill="#6dbe45"/>
    <circle id="Elipse_303" data-name="Elipse 303" cx="5" cy="5" r="5" transform="translate(817 420)" fill="#6dbe45"/>
    <circle id="Elipse_143" data-name="Elipse 143" cx="5" cy="5" r="5" transform="translate(817 300)" fill="#6dbe45"/>
    <circle id="Elipse_265" data-name="Elipse 265" cx="5" cy="5" r="5" transform="translate(817 540)" fill="#6dbe45"/>
    <circle id="Elipse_60" data-name="Elipse 60" cx="5" cy="5" r="5" transform="translate(817 240)" fill="#6dbe45"/>
    <circle id="Elipse_266" data-name="Elipse 266" cx="5" cy="5" r="5" transform="translate(817 480)" fill="#6dbe45"/>
    <circle id="Elipse_133" data-name="Elipse 133" cx="5" cy="5" r="5" transform="translate(817 360)" fill="#6dbe45"/>
    <circle id="Elipse_267" data-name="Elipse 267" cx="5" cy="5" r="5" transform="translate(817 600)" fill="#6dbe45"/>
    <circle id="Elipse_38" data-name="Elipse 38" cx="5" cy="5" r="5" transform="translate(817 210)" fill="#6dbe45"/>
    <circle id="Elipse_272" data-name="Elipse 272" cx="5" cy="5" r="5" transform="translate(817 450)" fill="#6dbe45"/>
    <circle id="Elipse_134" data-name="Elipse 134" cx="5" cy="5" r="5" transform="translate(817 330)" fill="#6dbe45"/>
    <circle id="Elipse_268" data-name="Elipse 268" cx="5" cy="5" r="5" transform="translate(817 570)" fill="#6dbe45"/>
    <circle id="Elipse_61" data-name="Elipse 61" cx="5" cy="5" r="5" transform="translate(817 270)" fill="#6dbe45"/>
    <circle id="Elipse_269" data-name="Elipse 269" cx="5" cy="5" r="5" transform="translate(817 510)" fill="#6dbe45"/>
    <circle id="Elipse_135" data-name="Elipse 135" cx="5" cy="5" r="5" transform="translate(817 390)" fill="#6dbe45"/>
    <circle id="Elipse_270" data-name="Elipse 270" cx="5" cy="5" r="5" transform="translate(817 630)" fill="#6dbe45"/>
    <circle id="Elipse_9" data-name="Elipse 9" cx="5" cy="5" r="5" transform="translate(1057 180)" fill="#6dbe45"/>
    <circle id="Elipse_304" data-name="Elipse 304" cx="5" cy="5" r="5" transform="translate(1057 420)" fill="#6dbe45"/>
    <circle id="Elipse_144" data-name="Elipse 144" cx="5" cy="5" r="5" transform="translate(1057 300)" fill="#6dbe45"/>
    <circle id="Elipse_202" data-name="Elipse 202" cx="5" cy="5" r="5" transform="translate(1057 540)" fill="#6dbe45"/>
    <circle id="Elipse_62" data-name="Elipse 62" cx="5" cy="5" r="5" transform="translate(1057 240)" fill="#6dbe45"/>
    <circle id="Elipse_245" data-name="Elipse 245" cx="5" cy="5" r="5" transform="translate(1057 480)" fill="#6dbe45"/>
    <circle id="Elipse_101" data-name="Elipse 101" cx="5" cy="5" r="5" transform="translate(1057 360)" fill="#6dbe45"/>
    <circle id="Elipse_193" data-name="Elipse 193" cx="5" cy="5" r="5" transform="translate(1057 600)" fill="#6dbe45"/>
    <circle id="Elipse_30" data-name="Elipse 30" cx="5" cy="5" r="5" transform="translate(1057 210)" fill="#6dbe45"/>
    <circle id="Elipse_273" data-name="Elipse 273" cx="5" cy="5" r="5" transform="translate(1057 450)" fill="#6dbe45"/>
    <circle id="Elipse_114" data-name="Elipse 114" cx="5" cy="5" r="5" transform="translate(1057 330)" fill="#6dbe45"/>
    <circle id="Elipse_194" data-name="Elipse 194" cx="5" cy="5" r="5" transform="translate(1057 570)" fill="#6dbe45"/>
    <circle id="Elipse_43" data-name="Elipse 43" cx="5" cy="5" r="5" transform="translate(1057 270)" fill="#6dbe45"/>
    <circle id="Elipse_222" data-name="Elipse 222" cx="5" cy="5" r="5" transform="translate(1057 510)" fill="#6dbe45"/>
    <circle id="Elipse_102" data-name="Elipse 102" cx="5" cy="5" r="5" transform="translate(1057 390)" fill="#6dbe45"/>
    <circle id="Elipse_195" data-name="Elipse 195" cx="5" cy="5" r="5" transform="translate(1057 630)" fill="#6dbe45"/>
    <circle id="Elipse_20" data-name="Elipse 20" cx="5" cy="5" r="5" transform="translate(1207 180)" fill="#6dbe45"/>
    <circle id="Elipse_305" data-name="Elipse 305" cx="5" cy="5" r="5" transform="translate(1207 420)" fill="#6dbe45"/>
    <circle id="Elipse_145" data-name="Elipse 145" cx="5" cy="5" r="5" transform="translate(1207 300)" fill="#6dbe45"/>
    <circle id="Elipse_203" data-name="Elipse 203" cx="5" cy="5" r="5" transform="translate(1207 540)" fill="#6dbe45"/>
    <circle id="Elipse_63" data-name="Elipse 63" cx="5" cy="5" r="5" transform="translate(1207 240)" fill="#6dbe45"/>
    <circle id="Elipse_246" data-name="Elipse 246" cx="5" cy="5" r="5" transform="translate(1207 480)" fill="#6dbe45"/>
    <circle id="Elipse_93" data-name="Elipse 93" cx="5" cy="5" r="5" transform="translate(1207 360)" fill="#6dbe45"/>
    <circle id="Elipse_175" data-name="Elipse 175" cx="5" cy="5" r="5" transform="translate(1207 600)" fill="#6dbe45"/>
    <circle id="Elipse_22" data-name="Elipse 22" cx="5" cy="5" r="5" transform="translate(1207 210)" fill="#6dbe45"/>
    <circle id="Elipse_274" data-name="Elipse 274" cx="5" cy="5" r="5" transform="translate(1207 450)" fill="#6dbe45"/>
    <circle id="Elipse_115" data-name="Elipse 115" cx="5" cy="5" r="5" transform="translate(1207 330)" fill="#6dbe45"/>
    <circle id="Elipse_185" data-name="Elipse 185" cx="5" cy="5" r="5" transform="translate(1207 570)" fill="#6dbe45"/>
    <circle id="Elipse_44" data-name="Elipse 44" cx="5" cy="5" r="5" transform="translate(1207 270)" fill="#6dbe45"/>
    <circle id="Elipse_223" data-name="Elipse 223" cx="5" cy="5" r="5" transform="translate(1207 510)" fill="#6dbe45"/>
    <circle id="Elipse_88" data-name="Elipse 88" cx="5" cy="5" r="5" transform="translate(1207 390)" fill="#6dbe45"/>
    <circle id="Elipse_172" data-name="Elipse 172" cx="5" cy="5" r="5" transform="translate(1207 630)" fill="#6dbe45"/>
    <circle id="Elipse_3" data-name="Elipse 3" cx="5" cy="5" r="5" transform="translate(757 180)" fill="#6dbe45"/>
    <circle id="Elipse_306" data-name="Elipse 306" cx="5" cy="5" r="5" transform="translate(757 420)" fill="#6dbe45"/>
    <circle id="Elipse_146" data-name="Elipse 146" cx="5" cy="5" r="5" transform="translate(757 300)" fill="#6dbe45"/>
    <circle id="Elipse_295" data-name="Elipse 295" cx="5" cy="5" r="5" transform="translate(757 540)" fill="#6dbe45"/>
    <circle id="Elipse_79" data-name="Elipse 79" cx="5" cy="5" r="5" transform="translate(757 240)" fill="#6dbe45"/>
    <circle id="Elipse_296" data-name="Elipse 296" cx="5" cy="5" r="5" transform="translate(757 480)" fill="#6dbe45"/>
    <circle id="Elipse_139" data-name="Elipse 139" cx="5" cy="5" r="5" transform="translate(757 360)" fill="#6dbe45"/>
    <circle id="Elipse_297" data-name="Elipse 297" cx="5" cy="5" r="5" transform="translate(757 600)" fill="#6dbe45"/>
    <circle id="Elipse_40" data-name="Elipse 40" cx="5" cy="5" r="5" transform="translate(757 210)" fill="#6dbe45"/>
    <circle id="Elipse_298" data-name="Elipse 298" cx="5" cy="5" r="5" transform="translate(757 450)" fill="#6dbe45"/>
    <circle id="Elipse_140" data-name="Elipse 140" cx="5" cy="5" r="5" transform="translate(757 330)" fill="#6dbe45"/>
    <circle id="Elipse_299" data-name="Elipse 299" cx="5" cy="5" r="5" transform="translate(757 570)" fill="#6dbe45"/>
    <circle id="Elipse_80" data-name="Elipse 80" cx="5" cy="5" r="5" transform="translate(757 270)" fill="#6dbe45"/>
    <circle id="Elipse_300" data-name="Elipse 300" cx="5" cy="5" r="5" transform="translate(757 510)" fill="#6dbe45"/>
    <circle id="Elipse_141" data-name="Elipse 141" cx="5" cy="5" r="5" transform="translate(757 390)" fill="#6dbe45"/>
    <circle id="Elipse_301" data-name="Elipse 301" cx="5" cy="5" r="5" transform="translate(757 630)" fill="#6dbe45"/>
    <circle id="Elipse_14" data-name="Elipse 14" cx="5" cy="5" r="5" transform="translate(997 180)" fill="#6dbe45"/>
    <circle id="Elipse_307" data-name="Elipse 307" cx="5" cy="5" r="5" transform="translate(997 420)" fill="#6dbe45"/>
    <circle id="Elipse_147" data-name="Elipse 147" cx="5" cy="5" r="5" transform="translate(997 300)" fill="#6dbe45"/>
    <circle id="Elipse_204" data-name="Elipse 204" cx="5" cy="5" r="5" transform="translate(997 540)" fill="#6dbe45"/>
    <circle id="Elipse_64" data-name="Elipse 64" cx="5" cy="5" r="5" transform="translate(997 240)" fill="#6dbe45"/>
    <circle id="Elipse_247" data-name="Elipse 247" cx="5" cy="5" r="5" transform="translate(997 480)" fill="#6dbe45"/>
    <circle id="Elipse_105" data-name="Elipse 105" cx="5" cy="5" r="5" transform="translate(997 360)" fill="#6dbe45"/>
    <circle id="Elipse_199" data-name="Elipse 199" cx="5" cy="5" r="5" transform="translate(997 600)" fill="#6dbe45"/>
    <circle id="Elipse_32" data-name="Elipse 32" cx="5" cy="5" r="5" transform="translate(997 210)" fill="#6dbe45"/>
    <circle id="Elipse_275" data-name="Elipse 275" cx="5" cy="5" r="5" transform="translate(997 450)" fill="#6dbe45"/>
    <circle id="Elipse_116" data-name="Elipse 116" cx="5" cy="5" r="5" transform="translate(997 330)" fill="#6dbe45"/>
    <circle id="Elipse_200" data-name="Elipse 200" cx="5" cy="5" r="5" transform="translate(997 570)" fill="#6dbe45"/>
    <circle id="Elipse_54" data-name="Elipse 54" cx="5" cy="5" r="5" transform="translate(997 270)" fill="#6dbe45"/>
    <circle id="Elipse_224" data-name="Elipse 224" cx="5" cy="5" r="5" transform="translate(997 510)" fill="#6dbe45"/>
    <circle id="Elipse_106" data-name="Elipse 106" cx="5" cy="5" r="5" transform="translate(997 390)" fill="#6dbe45"/>
    <circle id="Elipse_201" data-name="Elipse 201" cx="5" cy="5" r="5" transform="translate(997 630)" fill="#6dbe45"/>
    <circle id="Elipse_5" data-name="Elipse 5" cx="5" cy="5" r="5" transform="translate(877 180)" fill="#6dbe45"/>
    <circle id="Elipse_308" data-name="Elipse 308" cx="5" cy="5" r="5" transform="translate(877 420)" fill="#6dbe45"/>
    <circle id="Elipse_148" data-name="Elipse 148" cx="5" cy="5" r="5" transform="translate(877 300)" fill="#6dbe45"/>
    <circle id="Elipse_239" data-name="Elipse 239" cx="5" cy="5" r="5" transform="translate(877 540)" fill="#6dbe45"/>
    <circle id="Elipse_65" data-name="Elipse 65" cx="5" cy="5" r="5" transform="translate(877 240)" fill="#6dbe45"/>
    <circle id="Elipse_248" data-name="Elipse 248" cx="5" cy="5" r="5" transform="translate(877 480)" fill="#6dbe45"/>
    <circle id="Elipse_127" data-name="Elipse 127" cx="5" cy="5" r="5" transform="translate(877 360)" fill="#6dbe45"/>
    <circle id="Elipse_240" data-name="Elipse 240" cx="5" cy="5" r="5" transform="translate(877 600)" fill="#6dbe45"/>
    <circle id="Elipse_36" data-name="Elipse 36" cx="5" cy="5" r="5" transform="translate(877 210)" fill="#6dbe45"/>
    <circle id="Elipse_276" data-name="Elipse 276" cx="5" cy="5" r="5" transform="translate(877 450)" fill="#6dbe45"/>
    <circle id="Elipse_128" data-name="Elipse 128" cx="5" cy="5" r="5" transform="translate(877 330)" fill="#6dbe45"/>
    <circle id="Elipse_241" data-name="Elipse 241" cx="5" cy="5" r="5" transform="translate(877 570)" fill="#6dbe45"/>
    <circle id="Elipse_56" data-name="Elipse 56" cx="5" cy="5" r="5" transform="translate(877 270)" fill="#6dbe45"/>
    <circle id="Elipse_242" data-name="Elipse 242" cx="5" cy="5" r="5" transform="translate(877 510)" fill="#6dbe45"/>
    <circle id="Elipse_129" data-name="Elipse 129" cx="5" cy="5" r="5" transform="translate(877 390)" fill="#6dbe45"/>
    <circle id="Elipse_243" data-name="Elipse 243" cx="5" cy="5" r="5" transform="translate(877 630)" fill="#6dbe45"/>
    <circle id="Elipse_10" data-name="Elipse 10" cx="5" cy="5" r="5" transform="translate(1117 180)" fill="#6dbe45"/>
    <circle id="Elipse_309" data-name="Elipse 309" cx="5" cy="5" r="5" transform="translate(1117 420)" fill="#6dbe45"/>
    <circle id="Elipse_149" data-name="Elipse 149" cx="5" cy="5" r="5" transform="translate(1117 300)" fill="#6dbe45"/>
    <circle id="Elipse_205" data-name="Elipse 205" cx="5" cy="5" r="5" transform="translate(1117 540)" fill="#6dbe45"/>
    <circle id="Elipse_66" data-name="Elipse 66" cx="5" cy="5" r="5" transform="translate(1117 240)" fill="#6dbe45"/>
    <circle id="Elipse_249" data-name="Elipse 249" cx="5" cy="5" r="5" transform="translate(1117 480)" fill="#6dbe45"/>
    <circle id="Elipse_94" data-name="Elipse 94" cx="5" cy="5" r="5" transform="translate(1117 360)" fill="#6dbe45"/>
    <circle id="Elipse_181" data-name="Elipse 181" cx="5" cy="5" r="5" transform="translate(1117 600)" fill="#6dbe45"/>
    <circle id="Elipse_27" data-name="Elipse 27" cx="5" cy="5" r="5" transform="translate(1117 210)" fill="#6dbe45"/>
    <circle id="Elipse_277" data-name="Elipse 277" cx="5" cy="5" r="5" transform="translate(1117 450)" fill="#6dbe45"/>
    <circle id="Elipse_117" data-name="Elipse 117" cx="5" cy="5" r="5" transform="translate(1117 330)" fill="#6dbe45"/>
    <circle id="Elipse_186" data-name="Elipse 186" cx="5" cy="5" r="5" transform="translate(1117 570)" fill="#6dbe45"/>
    <circle id="Elipse_45" data-name="Elipse 45" cx="5" cy="5" r="5" transform="translate(1117 270)" fill="#6dbe45"/>
    <circle id="Elipse_225" data-name="Elipse 225" cx="5" cy="5" r="5" transform="translate(1117 510)" fill="#6dbe45"/>
    <circle id="Elipse_91" data-name="Elipse 91" cx="5" cy="5" r="5" transform="translate(1117 390)" fill="#6dbe45"/>
    <circle id="Elipse_182" data-name="Elipse 182" cx="5" cy="5" r="5" transform="translate(1117 630)" fill="#6dbe45"/>
    <circle id="Elipse_18" data-name="Elipse 18" cx="5" cy="5" r="5" transform="translate(1267 180)" fill="#6dbe45"/>
    <circle id="Elipse_310" data-name="Elipse 310" cx="5" cy="5" r="5" transform="translate(1267 420)" fill="#6dbe45"/>
    <circle id="Elipse_150" data-name="Elipse 150" cx="5" cy="5" r="5" transform="translate(1267 300)" fill="#6dbe45"/>
    <circle id="Elipse_206" data-name="Elipse 206" cx="5" cy="5" r="5" transform="translate(1267 540)" fill="#6dbe45"/>
    <circle id="Elipse_67" data-name="Elipse 67" cx="5" cy="5" r="5" transform="translate(1267 240)" fill="#6dbe45"/>
    <circle id="Elipse_250" data-name="Elipse 250" cx="5" cy="5" r="5" transform="translate(1267 480)" fill="#6dbe45"/>
    <circle id="Elipse_95" data-name="Elipse 95" cx="5" cy="5" r="5" transform="translate(1267 360)" fill="#6dbe45"/>
    <circle id="Elipse_176" data-name="Elipse 176" cx="5" cy="5" r="5" transform="translate(1267 600)" fill="#6dbe45"/>
    <circle id="Elipse_23" data-name="Elipse 23" cx="5" cy="5" r="5" transform="translate(1267 210)" fill="#6dbe45"/>
    <circle id="Elipse_278" data-name="Elipse 278" cx="5" cy="5" r="5" transform="translate(1267 450)" fill="#6dbe45"/>
    <circle id="Elipse_118" data-name="Elipse 118" cx="5" cy="5" r="5" transform="translate(1267 330)" fill="#6dbe45"/>
    <circle id="Elipse_187" data-name="Elipse 187" cx="5" cy="5" r="5" transform="translate(1267 570)" fill="#6dbe45"/>
    <circle id="Elipse_46" data-name="Elipse 46" cx="5" cy="5" r="5" transform="translate(1267 270)" fill="#6dbe45"/>
    <circle id="Elipse_226" data-name="Elipse 226" cx="5" cy="5" r="5" transform="translate(1267 510)" fill="#6dbe45"/>
    <circle id="Elipse_85" data-name="Elipse 85" cx="5" cy="5" r="5" transform="translate(1267 390)" fill="#6dbe45"/>
    <circle id="Elipse_169" data-name="Elipse 169" cx="5" cy="5" r="5" transform="translate(1267 630)" fill="#6dbe45"/>
    <circle id="Elipse_2" data-name="Elipse 2" cx="5" cy="5" r="5" transform="translate(727 180)" fill="#6dbe45"/>
    <circle id="Elipse_321" data-name="Elipse 321" cx="5" cy="5" r="5" transform="translate(727 420)" fill="#6dbe45"/>
    <circle id="Elipse_161" data-name="Elipse 161" cx="5" cy="5" r="5" transform="translate(727 300)" fill="#6dbe45"/>
    <circle id="Elipse_322" data-name="Elipse 322" cx="5" cy="5" r="5" transform="translate(727 540)" fill="#6dbe45"/>
    <circle id="Elipse_81" data-name="Elipse 81" cx="5" cy="5" r="5" transform="translate(727 240)" fill="#6dbe45"/>
    <circle id="Elipse_323" data-name="Elipse 323" cx="5" cy="5" r="5" transform="translate(727 480)" fill="#6dbe45"/>
    <circle id="Elipse_162" data-name="Elipse 162" cx="5" cy="5" r="5" transform="translate(727 360)" fill="#6dbe45"/>
    <circle id="Elipse_324" data-name="Elipse 324" cx="5" cy="5" r="5" transform="translate(727 600)" fill="#6dbe45"/>
    <circle id="Elipse_41" data-name="Elipse 41" cx="5" cy="5" r="5" transform="translate(727 210)" fill="#6dbe45"/>
    <circle id="Elipse_325" data-name="Elipse 325" cx="5" cy="5" r="5" transform="translate(727 450)" fill="#6dbe45"/>
    <circle id="Elipse_163" data-name="Elipse 163" cx="5" cy="5" r="5" transform="translate(727 330)" fill="#6dbe45"/>
    <circle id="Elipse_326" data-name="Elipse 326" cx="5" cy="5" r="5" transform="translate(727 570)" fill="#6dbe45"/>
    <circle id="Elipse_82" data-name="Elipse 82" cx="5" cy="5" r="5" transform="translate(727 270)" fill="#6dbe45"/>
    <circle id="Elipse_327" data-name="Elipse 327" cx="5" cy="5" r="5" transform="translate(727 510)" fill="#6dbe45"/>
    <circle id="Elipse_164" data-name="Elipse 164" cx="5" cy="5" r="5" transform="translate(727 390)" fill="#6dbe45"/>
    <circle id="Elipse_328" data-name="Elipse 328" cx="5" cy="5" r="5" transform="translate(727 630)" fill="#6dbe45"/>
    <circle id="Elipse_15" data-name="Elipse 15" cx="5" cy="5" r="5" transform="translate(967 180)" fill="#6dbe45"/>
    <circle id="Elipse_311" data-name="Elipse 311" cx="5" cy="5" r="5" transform="translate(967 420)" fill="#6dbe45"/>
    <circle id="Elipse_151" data-name="Elipse 151" cx="5" cy="5" r="5" transform="translate(967 300)" fill="#6dbe45"/>
    <circle id="Elipse_213" data-name="Elipse 213" cx="5" cy="5" r="5" transform="translate(967 540)" fill="#6dbe45"/>
    <circle id="Elipse_68" data-name="Elipse 68" cx="5" cy="5" r="5" transform="translate(967 240)" fill="#6dbe45"/>
    <circle id="Elipse_251" data-name="Elipse 251" cx="5" cy="5" r="5" transform="translate(967 480)" fill="#6dbe45"/>
    <circle id="Elipse_107" data-name="Elipse 107" cx="5" cy="5" r="5" transform="translate(967 360)" fill="#6dbe45"/>
    <circle id="Elipse_214" data-name="Elipse 214" cx="5" cy="5" r="5" transform="translate(967 600)" fill="#6dbe45"/>
    <circle id="Elipse_33" data-name="Elipse 33" cx="5" cy="5" r="5" transform="translate(967 210)" fill="#6dbe45"/>
    <circle id="Elipse_279" data-name="Elipse 279" cx="5" cy="5" r="5" transform="translate(967 450)" fill="#6dbe45"/>
    <circle id="Elipse_119" data-name="Elipse 119" cx="5" cy="5" r="5" transform="translate(967 330)" fill="#6dbe45"/>
    <circle id="Elipse_215" data-name="Elipse 215" cx="5" cy="5" r="5" transform="translate(967 570)" fill="#6dbe45"/>
    <circle id="Elipse_55" data-name="Elipse 55" cx="5" cy="5" r="5" transform="translate(967 270)" fill="#6dbe45"/>
    <circle id="Elipse_227" data-name="Elipse 227" cx="5" cy="5" r="5" transform="translate(967 510)" fill="#6dbe45"/>
    <circle id="Elipse_108" data-name="Elipse 108" cx="5" cy="5" r="5" transform="translate(967 390)" fill="#6dbe45"/>
    <circle id="Elipse_216" data-name="Elipse 216" cx="5" cy="5" r="5" transform="translate(967 630)" fill="#6dbe45"/>
    <circle id="Elipse_7" data-name="Elipse 7" cx="5" cy="5" r="5" transform="translate(847 180)" fill="#6dbe45"/>
    <circle id="Elipse_312" data-name="Elipse 312" cx="5" cy="5" r="5" transform="translate(847 420)" fill="#6dbe45"/>
    <circle id="Elipse_152" data-name="Elipse 152" cx="5" cy="5" r="5" transform="translate(847 300)" fill="#6dbe45"/>
    <circle id="Elipse_259" data-name="Elipse 259" cx="5" cy="5" r="5" transform="translate(847 540)" fill="#6dbe45"/>
    <circle id="Elipse_69" data-name="Elipse 69" cx="5" cy="5" r="5" transform="translate(847 240)" fill="#6dbe45"/>
    <circle id="Elipse_260" data-name="Elipse 260" cx="5" cy="5" r="5" transform="translate(847 480)" fill="#6dbe45"/>
    <circle id="Elipse_130" data-name="Elipse 130" cx="5" cy="5" r="5" transform="translate(847 360)" fill="#6dbe45"/>
    <circle id="Elipse_261" data-name="Elipse 261" cx="5" cy="5" r="5" transform="translate(847 600)" fill="#6dbe45"/>
    <circle id="Elipse_37" data-name="Elipse 37" cx="5" cy="5" r="5" transform="translate(847 210)" fill="#6dbe45"/>
    <circle id="Elipse_280" data-name="Elipse 280" cx="5" cy="5" r="5" transform="translate(847 450)" fill="#6dbe45"/>
    <circle id="Elipse_131" data-name="Elipse 131" cx="5" cy="5" r="5" transform="translate(847 330)" fill="#6dbe45"/>
    <circle id="Elipse_262" data-name="Elipse 262" cx="5" cy="5" r="5" transform="translate(847 570)" fill="#6dbe45"/>
    <circle id="Elipse_58" data-name="Elipse 58" cx="5" cy="5" r="5" transform="translate(847 270)" fill="#6dbe45"/>
    <circle id="Elipse_263" data-name="Elipse 263" cx="5" cy="5" r="5" transform="translate(847 510)" fill="#6dbe45"/>
    <circle id="Elipse_132" data-name="Elipse 132" cx="5" cy="5" r="5" transform="translate(847 390)" fill="#6dbe45"/>
    <circle id="Elipse_264" data-name="Elipse 264" cx="5" cy="5" r="5" transform="translate(847 630)" fill="#6dbe45"/>
    <circle id="Elipse_11" data-name="Elipse 11" cx="5" cy="5" r="5" transform="translate(1087 180)" fill="#6dbe45"/>
    <circle id="Elipse_313" data-name="Elipse 313" cx="5" cy="5" r="5" transform="translate(1087 420)" fill="#6dbe45"/>
    <circle id="Elipse_153" data-name="Elipse 153" cx="5" cy="5" r="5" transform="translate(1087 300)" fill="#6dbe45"/>
    <circle id="Elipse_207" data-name="Elipse 207" cx="5" cy="5" r="5" transform="translate(1087 540)" fill="#6dbe45"/>
    <circle id="Elipse_70" data-name="Elipse 70" cx="5" cy="5" r="5" transform="translate(1087 240)" fill="#6dbe45"/>
    <circle id="Elipse_252" data-name="Elipse 252" cx="5" cy="5" r="5" transform="translate(1087 480)" fill="#6dbe45"/>
    <circle id="Elipse_96" data-name="Elipse 96" cx="5" cy="5" r="5" transform="translate(1087 360)" fill="#6dbe45"/>
    <circle id="Elipse_183" data-name="Elipse 183" cx="5" cy="5" r="5" transform="translate(1087 600)" fill="#6dbe45"/>
    <circle id="Elipse_28" data-name="Elipse 28" cx="5" cy="5" r="5" transform="translate(1087 210)" fill="#6dbe45"/>
    <circle id="Elipse_281" data-name="Elipse 281" cx="5" cy="5" r="5" transform="translate(1087 450)" fill="#6dbe45"/>
    <circle id="Elipse_120" data-name="Elipse 120" cx="5" cy="5" r="5" transform="translate(1087 330)" fill="#6dbe45"/>
    <circle id="Elipse_188" data-name="Elipse 188" cx="5" cy="5" r="5" transform="translate(1087 570)" fill="#6dbe45"/>
    <circle id="Elipse_47" data-name="Elipse 47" cx="5" cy="5" r="5" transform="translate(1087 270)" fill="#6dbe45"/>
    <circle id="Elipse_228" data-name="Elipse 228" cx="5" cy="5" r="5" transform="translate(1087 510)" fill="#6dbe45"/>
    <circle id="Elipse_92" data-name="Elipse 92" cx="5" cy="5" r="5" transform="translate(1087 390)" fill="#6dbe45"/>
    <circle id="Elipse_184" data-name="Elipse 184" cx="5" cy="5" r="5" transform="translate(1087 630)" fill="#6dbe45"/>
    <circle id="Elipse_19" data-name="Elipse 19" cx="5" cy="5" r="5" transform="translate(1237 180)" fill="#6dbe45"/>
    <circle id="Elipse_314" data-name="Elipse 314" cx="5" cy="5" r="5" transform="translate(1237 420)" fill="#6dbe45"/>
    <circle id="Elipse_154" data-name="Elipse 154" cx="5" cy="5" r="5" transform="translate(1237 300)" fill="#6dbe45"/>
    <circle id="Elipse_208" data-name="Elipse 208" cx="5" cy="5" r="5" transform="translate(1237 540)" fill="#6dbe45"/>
    <circle id="Elipse_71" data-name="Elipse 71" cx="5" cy="5" r="5" transform="translate(1237 240)" fill="#6dbe45"/>
    <circle id="Elipse_253" data-name="Elipse 253" cx="5" cy="5" r="5" transform="translate(1237 480)" fill="#6dbe45"/>
    <circle id="Elipse_97" data-name="Elipse 97" cx="5" cy="5" r="5" transform="translate(1237 360)" fill="#6dbe45"/>
    <circle id="Elipse_177" data-name="Elipse 177" cx="5" cy="5" r="5" transform="translate(1237 600)" fill="#6dbe45"/>
    <circle id="Elipse_24" data-name="Elipse 24" cx="5" cy="5" r="5" transform="translate(1237 210)" fill="#6dbe45"/>
    <circle id="Elipse_282" data-name="Elipse 282" cx="5" cy="5" r="5" transform="translate(1237 450)" fill="#6dbe45"/>
    <circle id="Elipse_121" data-name="Elipse 121" cx="5" cy="5" r="5" transform="translate(1237 330)" fill="#6dbe45"/>
    <circle id="Elipse_189" data-name="Elipse 189" cx="5" cy="5" r="5" transform="translate(1237 570)" fill="#6dbe45"/>
    <circle id="Elipse_48" data-name="Elipse 48" cx="5" cy="5" r="5" transform="translate(1237 270)" fill="#6dbe45"/>
    <circle id="Elipse_229" data-name="Elipse 229" cx="5" cy="5" r="5" transform="translate(1237 510)" fill="#6dbe45"/>
    <circle id="Elipse_87" data-name="Elipse 87" cx="5" cy="5" r="5" transform="translate(1237 390)" fill="#6dbe45"/>
    <circle id="Elipse_170" data-name="Elipse 170" cx="5" cy="5" r="5" transform="translate(1237 630)" fill="#6dbe45"/>
    <circle id="Elipse_4" data-name="Elipse 4" cx="5" cy="5" r="5" transform="translate(787 180)" fill="#6dbe45"/>
    <circle id="Elipse_315" data-name="Elipse 315" cx="5" cy="5" r="5" transform="translate(787 420)" fill="#6dbe45"/>
    <circle id="Elipse_155" data-name="Elipse 155" cx="5" cy="5" r="5" transform="translate(787 300)" fill="#6dbe45"/>
    <circle id="Elipse_288" data-name="Elipse 288" cx="5" cy="5" r="5" transform="translate(787 540)" fill="#6dbe45"/>
    <circle id="Elipse_77" data-name="Elipse 77" cx="5" cy="5" r="5" transform="translate(787 240)" fill="#6dbe45"/>
    <circle id="Elipse_289" data-name="Elipse 289" cx="5" cy="5" r="5" transform="translate(787 480)" fill="#6dbe45"/>
    <circle id="Elipse_136" data-name="Elipse 136" cx="5" cy="5" r="5" transform="translate(787 360)" fill="#6dbe45"/>
    <circle id="Elipse_290" data-name="Elipse 290" cx="5" cy="5" r="5" transform="translate(787 600)" fill="#6dbe45"/>
    <circle id="Elipse_39" data-name="Elipse 39" cx="5" cy="5" r="5" transform="translate(787 210)" fill="#6dbe45"/>
    <circle id="Elipse_291" data-name="Elipse 291" cx="5" cy="5" r="5" transform="translate(787 450)" fill="#6dbe45"/>
    <circle id="Elipse_137" data-name="Elipse 137" cx="5" cy="5" r="5" transform="translate(787 330)" fill="#6dbe45"/>
    <circle id="Elipse_292" data-name="Elipse 292" cx="5" cy="5" r="5" transform="translate(787 570)" fill="#6dbe45"/>
    <circle id="Elipse_78" data-name="Elipse 78" cx="5" cy="5" r="5" transform="translate(787 270)" fill="#6dbe45"/>
    <circle id="Elipse_293" data-name="Elipse 293" cx="5" cy="5" r="5" transform="translate(787 510)" fill="#6dbe45"/>
    <circle id="Elipse_138" data-name="Elipse 138" cx="5" cy="5" r="5" transform="translate(787 390)" fill="#6dbe45"/>
    <circle id="Elipse_294" data-name="Elipse 294" cx="5" cy="5" r="5" transform="translate(787 630)" fill="#6dbe45"/>
    <circle id="Elipse_13" data-name="Elipse 13" cx="5" cy="5" r="5" transform="translate(1027 180)" fill="#6dbe45"/>
    <circle id="Elipse_316" data-name="Elipse 316" cx="5" cy="5" r="5" transform="translate(1027 420)" fill="#6dbe45"/>
    <circle id="Elipse_156" data-name="Elipse 156" cx="5" cy="5" r="5" transform="translate(1027 300)" fill="#6dbe45"/>
    <circle id="Elipse_209" data-name="Elipse 209" cx="5" cy="5" r="5" transform="translate(1027 540)" fill="#6dbe45"/>
    <circle id="Elipse_72" data-name="Elipse 72" cx="5" cy="5" r="5" transform="translate(1027 240)" fill="#6dbe45"/>
    <circle id="Elipse_254" data-name="Elipse 254" cx="5" cy="5" r="5" transform="translate(1027 480)" fill="#6dbe45"/>
    <circle id="Elipse_103" data-name="Elipse 103" cx="5" cy="5" r="5" transform="translate(1027 360)" fill="#6dbe45"/>
    <circle id="Elipse_196" data-name="Elipse 196" cx="5" cy="5" r="5" transform="translate(1027 600)" fill="#6dbe45"/>
    <circle id="Elipse_31" data-name="Elipse 31" cx="5" cy="5" r="5" transform="translate(1027 210)" fill="#6dbe45"/>
    <circle id="Elipse_283" data-name="Elipse 283" cx="5" cy="5" r="5" transform="translate(1027 450)" fill="#6dbe45"/>
    <circle id="Elipse_122" data-name="Elipse 122" cx="5" cy="5" r="5" transform="translate(1027 330)" fill="#6dbe45"/>
    <circle id="Elipse_197" data-name="Elipse 197" cx="5" cy="5" r="5" transform="translate(1027 570)" fill="#6dbe45"/>
    <circle id="Elipse_52" data-name="Elipse 52" cx="5" cy="5" r="5" transform="translate(1027 270)" fill="#6dbe45"/>
    <circle id="Elipse_230" data-name="Elipse 230" cx="5" cy="5" r="5" transform="translate(1027 510)" fill="#6dbe45"/>
    <circle id="Elipse_104" data-name="Elipse 104" cx="5" cy="5" r="5" transform="translate(1027 390)" fill="#6dbe45"/>
    <circle id="Elipse_198" data-name="Elipse 198" cx="5" cy="5" r="5" transform="translate(1027 630)" fill="#6dbe45"/>
    <circle id="Elipse_21" data-name="Elipse 21" cx="5" cy="5" r="5" transform="translate(1177 180)" fill="#6dbe45"/>
    <circle id="Elipse_317" data-name="Elipse 317" cx="5" cy="5" r="5" transform="translate(1177 420)" fill="#6dbe45"/>
    <circle id="Elipse_157" data-name="Elipse 157" cx="5" cy="5" r="5" transform="translate(1177 300)" fill="#6dbe45"/>
    <circle id="Elipse_210" data-name="Elipse 210" cx="5" cy="5" r="5" transform="translate(1177 540)" fill="#6dbe45"/>
    <circle id="Elipse_73" data-name="Elipse 73" cx="5" cy="5" r="5" transform="translate(1177 240)" fill="#6dbe45"/>
    <circle id="Elipse_255" data-name="Elipse 255" cx="5" cy="5" r="5" transform="translate(1177 480)" fill="#6dbe45"/>
    <circle id="Elipse_98" data-name="Elipse 98" cx="5" cy="5" r="5" transform="translate(1177 360)" fill="#6dbe45"/>
    <circle id="Elipse_178" data-name="Elipse 178" cx="5" cy="5" r="5" transform="translate(1177 600)" fill="#6dbe45"/>
    <circle id="Elipse_26" data-name="Elipse 26" cx="5" cy="5" r="5" transform="translate(1177 210)" fill="#6dbe45"/>
    <circle id="Elipse_284" data-name="Elipse 284" cx="5" cy="5" r="5" transform="translate(1177 450)" fill="#6dbe45"/>
    <circle id="Elipse_123" data-name="Elipse 123" cx="5" cy="5" r="5" transform="translate(1177 330)" fill="#6dbe45"/>
    <circle id="Elipse_190" data-name="Elipse 190" cx="5" cy="5" r="5" transform="translate(1177 570)" fill="#6dbe45"/>
    <circle id="Elipse_49" data-name="Elipse 49" cx="5" cy="5" r="5" transform="translate(1177 270)" fill="#6dbe45"/>
    <circle id="Elipse_231" data-name="Elipse 231" cx="5" cy="5" r="5" transform="translate(1177 510)" fill="#6dbe45"/>
    <circle id="Elipse_89" data-name="Elipse 89" cx="5" cy="5" r="5" transform="translate(1177 390)" fill="#6dbe45"/>
    <circle id="Elipse_173" data-name="Elipse 173" cx="5" cy="5" r="5" transform="translate(1177 630)" fill="#6dbe45"/>
    <circle id="Elipse_6" data-name="Elipse 6" cx="5" cy="5" r="5" transform="translate(907 180)" fill="#6dbe45"/>
    <circle id="Elipse_318" data-name="Elipse 318" cx="5" cy="5" r="5" transform="translate(907 420)" fill="#6dbe45"/>
    <circle id="Elipse_158" data-name="Elipse 158" cx="5" cy="5" r="5" transform="translate(907 300)" fill="#6dbe45"/>
    <circle id="Elipse_234" data-name="Elipse 234" cx="5" cy="5" r="5" transform="translate(907 540)" fill="#6dbe45"/>
    <circle id="Elipse_74" data-name="Elipse 74" cx="5" cy="5" r="5" transform="translate(907 240)" fill="#6dbe45"/>
    <circle id="Elipse_256" data-name="Elipse 256" cx="5" cy="5" r="5" transform="translate(907 480)" fill="#6dbe45"/>
    <circle id="Elipse_111" data-name="Elipse 111" cx="5" cy="5" r="5" transform="translate(907 360)" fill="#6dbe45"/>
    <circle id="Elipse_235" data-name="Elipse 235" cx="5" cy="5" r="5" transform="translate(907 600)" fill="#6dbe45"/>
    <circle id="Elipse_35" data-name="Elipse 35" cx="5" cy="5" r="5" transform="translate(907 210)" fill="#6dbe45"/>
    <circle id="Elipse_285" data-name="Elipse 285" cx="5" cy="5" r="5" transform="translate(907 450)" fill="#6dbe45"/>
    <circle id="Elipse_124" data-name="Elipse 124" cx="5" cy="5" r="5" transform="translate(907 330)" fill="#6dbe45"/>
    <circle id="Elipse_236" data-name="Elipse 236" cx="5" cy="5" r="5" transform="translate(907 570)" fill="#6dbe45"/>
    <circle id="Elipse_57" data-name="Elipse 57" cx="5" cy="5" r="5" transform="translate(907 270)" fill="#6dbe45"/>
    <circle id="Elipse_237" data-name="Elipse 237" cx="5" cy="5" r="5" transform="translate(907 510)" fill="#6dbe45"/>
    <circle id="Elipse_112" data-name="Elipse 112" cx="5" cy="5" r="5" transform="translate(907 390)" fill="#6dbe45"/>
    <circle id="Elipse_238" data-name="Elipse 238" cx="5" cy="5" r="5" transform="translate(907 630)" fill="#6dbe45"/>
    <circle id="Elipse_12" data-name="Elipse 12" cx="5" cy="5" r="5" transform="translate(1147 180)" fill="#6dbe45"/>
    <circle id="Elipse_319" data-name="Elipse 319" cx="5" cy="5" r="5" transform="translate(1147 420)" fill="#6dbe45"/>
    <circle id="Elipse_159" data-name="Elipse 159" cx="5" cy="5" r="5" transform="translate(1147 300)" fill="#6dbe45"/>
    <circle id="Elipse_211" data-name="Elipse 211" cx="5" cy="5" r="5" transform="translate(1147 540)" fill="#6dbe45"/>
    <circle id="Elipse_75" data-name="Elipse 75" cx="5" cy="5" r="5" transform="translate(1147 240)" fill="#6dbe45"/>
    <circle id="Elipse_257" data-name="Elipse 257" cx="5" cy="5" r="5" transform="translate(1147 480)" fill="#6dbe45"/>
    <circle id="Elipse_99" data-name="Elipse 99" cx="5" cy="5" r="5" transform="translate(1147 360)" fill="#6dbe45"/>
    <circle id="Elipse_179" data-name="Elipse 179" cx="5" cy="5" r="5" transform="translate(1147 600)" fill="#6dbe45"/>
    <circle id="Elipse_29" data-name="Elipse 29" cx="5" cy="5" r="5" transform="translate(1147 210)" fill="#6dbe45"/>
    <circle id="Elipse_286" data-name="Elipse 286" cx="5" cy="5" r="5" transform="translate(1147 450)" fill="#6dbe45"/>
    <circle id="Elipse_125" data-name="Elipse 125" cx="5" cy="5" r="5" transform="translate(1147 330)" fill="#6dbe45"/>
    <circle id="Elipse_191" data-name="Elipse 191" cx="5" cy="5" r="5" transform="translate(1147 570)" fill="#6dbe45"/>
    <circle id="Elipse_50" data-name="Elipse 50" cx="5" cy="5" r="5" transform="translate(1147 270)" fill="#6dbe45"/>
    <circle id="Elipse_232" data-name="Elipse 232" cx="5" cy="5" r="5" transform="translate(1147 510)" fill="#6dbe45"/>
    <circle id="Elipse_90" data-name="Elipse 90" cx="5" cy="5" r="5" transform="translate(1147 390)" fill="#6dbe45"/>
    <circle id="Elipse_174" data-name="Elipse 174" cx="5" cy="5" r="5" transform="translate(1147 630)" fill="#6dbe45"/>
    <circle id="Elipse_17" data-name="Elipse 17" cx="5" cy="5" r="5" transform="translate(1297 180)" fill="#6dbe45"/>
    <circle id="Elipse_320" data-name="Elipse 320" cx="5" cy="5" r="5" transform="translate(1297 420)" fill="#6dbe45"/>
    <circle id="Elipse_160" data-name="Elipse 160" cx="5" cy="5" r="5" transform="translate(1297 300)" fill="#6dbe45"/>
    <circle id="Elipse_212" data-name="Elipse 212" cx="5" cy="5" r="5" transform="translate(1297 540)" fill="#6dbe45"/>
    <circle id="Elipse_76" data-name="Elipse 76" cx="5" cy="5" r="5" transform="translate(1297 240)" fill="#6dbe45"/>
    <circle id="Elipse_258" data-name="Elipse 258" cx="5" cy="5" r="5" transform="translate(1297 480)" fill="#6dbe45"/>
    <circle id="Elipse_100" data-name="Elipse 100" cx="5" cy="5" r="5" transform="translate(1297 360)" fill="#6dbe45"/>
    <circle id="Elipse_180" data-name="Elipse 180" cx="5" cy="5" r="5" transform="translate(1297 600)" fill="#6dbe45"/>
    <circle id="Elipse_25" data-name="Elipse 25" cx="5" cy="5" r="5" transform="translate(1297 210)" fill="#6dbe45"/>
    <circle id="Elipse_287" data-name="Elipse 287" cx="5" cy="5" r="5" transform="translate(1297 450)" fill="#6dbe45"/>
    <circle id="Elipse_126" data-name="Elipse 126" cx="5" cy="5" r="5" transform="translate(1297 330)" fill="#6dbe45"/>
    <circle id="Elipse_192" data-name="Elipse 192" cx="5" cy="5" r="5" transform="translate(1297 570)" fill="#6dbe45"/>
    <circle id="Elipse_51" data-name="Elipse 51" cx="5" cy="5" r="5" transform="translate(1297 270)" fill="#6dbe45"/>
    <circle id="Elipse_233" data-name="Elipse 233" cx="5" cy="5" r="5" transform="translate(1297 510)" fill="#6dbe45"/>
    <circle id="Elipse_86" data-name="Elipse 86" cx="5" cy="5" r="5" transform="translate(1297 390)" fill="#6dbe45"/>
    <circle id="Elipse_171" data-name="Elipse 171" cx="5" cy="5" r="5" transform="translate(1297 630)" fill="#6dbe45"/>
  </g>
</svg>
