<?xml version="1.0" encoding="utf-8"?>
<!-- Generator: Adobe Illustrator 23.1.0, SVG Export Plug-In . SVG Version: 6.00 Build 0)  -->
<svg version="1.1" id="Camada_1" xmlns="http://www.w3.org/2000/svg" xmlns:xlink="http://www.w3.org/1999/xlink" x="0px" y="0px"
	 viewBox="0 0 610 460" style="enable-background:new 0 0 610 460;" xml:space="preserve">
<style type="text/css">
	.st0{opacity:0.4;}
	.st1{fill:#484848;}
</style>
<g id="Grupo_42" transform="translate(-697 -180)" class="st0">
	<circle id="Elipse_1" class="st1" cx="702" cy="185" r="5"/>
	<circle id="Elipse_329" class="st1" cx="702" cy="425" r="5"/>
	<circle id="Elipse_165" class="st1" cx="702" cy="305" r="5"/>
	<circle id="Elipse_330" class="st1" cx="702" cy="545" r="5"/>
	<circle id="Elipse_83" class="st1" cx="702" cy="245" r="5"/>
	<circle id="Elipse_331" class="st1" cx="702" cy="485" r="5"/>
	<circle id="Elipse_166" class="st1" cx="702" cy="365" r="5"/>
	<circle id="Elipse_332" class="st1" cx="702" cy="605" r="5"/>
	<circle id="Elipse_42" class="st1" cx="702" cy="215" r="5"/>
	<circle id="Elipse_333" class="st1" cx="702" cy="455" r="5"/>
	<circle id="Elipse_167" class="st1" cx="702" cy="335" r="5"/>
	<circle id="Elipse_334" class="st1" cx="702" cy="575" r="5"/>
	<circle id="Elipse_84" class="st1" cx="702" cy="275" r="5"/>
	<circle id="Elipse_335" class="st1" cx="702" cy="515" r="5"/>
	<circle id="Elipse_168" class="st1" cx="702" cy="395" r="5"/>
	<circle id="Elipse_336" class="st1" cx="702" cy="635" r="5"/>
	<circle id="Elipse_16" class="st1" cx="942" cy="185" r="5"/>
	<circle id="Elipse_302" class="st1" cx="942" cy="425" r="5"/>
	<circle id="Elipse_142" class="st1" cx="942" cy="305" r="5"/>
	<circle id="Elipse_217" class="st1" cx="942" cy="545" r="5"/>
	<circle id="Elipse_59" class="st1" cx="942" cy="245" r="5"/>
	<circle id="Elipse_244" class="st1" cx="942" cy="485" r="5"/>
	<circle id="Elipse_109" class="st1" cx="942" cy="365" r="5"/>
	<circle id="Elipse_218" class="st1" cx="942" cy="605" r="5"/>
	<circle id="Elipse_34" class="st1" cx="942" cy="215" r="5"/>
	<circle id="Elipse_271" class="st1" cx="942" cy="455" r="5"/>
	<circle id="Elipse_113" class="st1" cx="942" cy="335" r="5"/>
	<circle id="Elipse_219" class="st1" cx="942" cy="575" r="5"/>
	<circle id="Elipse_53" class="st1" cx="942" cy="275" r="5"/>
	<circle id="Elipse_221" class="st1" cx="942" cy="515" r="5"/>
	<circle id="Elipse_110" class="st1" cx="942" cy="395" r="5"/>
	<circle id="Elipse_220" class="st1" cx="942" cy="635" r="5"/>
	<circle id="Elipse_8" class="st1" cx="822" cy="185" r="5"/>
	<circle id="Elipse_303" class="st1" cx="822" cy="425" r="5"/>
	<circle id="Elipse_143" class="st1" cx="822" cy="305" r="5"/>
	<circle id="Elipse_265" class="st1" cx="822" cy="545" r="5"/>
	<circle id="Elipse_60" class="st1" cx="822" cy="245" r="5"/>
	<circle id="Elipse_266" class="st1" cx="822" cy="485" r="5"/>
	<circle id="Elipse_133" class="st1" cx="822" cy="365" r="5"/>
	<circle id="Elipse_267" class="st1" cx="822" cy="605" r="5"/>
	<circle id="Elipse_38" class="st1" cx="822" cy="215" r="5"/>
	<circle id="Elipse_272" class="st1" cx="822" cy="455" r="5"/>
	<circle id="Elipse_134" class="st1" cx="822" cy="335" r="5"/>
	<circle id="Elipse_268" class="st1" cx="822" cy="575" r="5"/>
	<circle id="Elipse_61" class="st1" cx="822" cy="275" r="5"/>
	<circle id="Elipse_269" class="st1" cx="822" cy="515" r="5"/>
	<circle id="Elipse_135" class="st1" cx="822" cy="395" r="5"/>
	<circle id="Elipse_270" class="st1" cx="822" cy="635" r="5"/>
	<circle id="Elipse_9" class="st1" cx="1062" cy="185" r="5"/>
	<circle id="Elipse_304" class="st1" cx="1062" cy="425" r="5"/>
	<circle id="Elipse_144" class="st1" cx="1062" cy="305" r="5"/>
	<circle id="Elipse_202" class="st1" cx="1062" cy="545" r="5"/>
	<circle id="Elipse_62" class="st1" cx="1062" cy="245" r="5"/>
	<circle id="Elipse_245" class="st1" cx="1062" cy="485" r="5"/>
	<circle id="Elipse_101" class="st1" cx="1062" cy="365" r="5"/>
	<circle id="Elipse_193" class="st1" cx="1062" cy="605" r="5"/>
	<circle id="Elipse_30" class="st1" cx="1062" cy="215" r="5"/>
	<circle id="Elipse_273" class="st1" cx="1062" cy="455" r="5"/>
	<circle id="Elipse_114" class="st1" cx="1062" cy="335" r="5"/>
	<circle id="Elipse_194" class="st1" cx="1062" cy="575" r="5"/>
	<circle id="Elipse_43" class="st1" cx="1062" cy="275" r="5"/>
	<circle id="Elipse_222" class="st1" cx="1062" cy="515" r="5"/>
	<circle id="Elipse_102" class="st1" cx="1062" cy="395" r="5"/>
	<circle id="Elipse_195" class="st1" cx="1062" cy="635" r="5"/>
	<circle id="Elipse_20" class="st1" cx="1212" cy="185" r="5"/>
	<circle id="Elipse_305" class="st1" cx="1212" cy="425" r="5"/>
	<circle id="Elipse_145" class="st1" cx="1212" cy="305" r="5"/>
	<circle id="Elipse_203" class="st1" cx="1212" cy="545" r="5"/>
	<circle id="Elipse_63" class="st1" cx="1212" cy="245" r="5"/>
	<circle id="Elipse_246" class="st1" cx="1212" cy="485" r="5"/>
	<circle id="Elipse_93" class="st1" cx="1212" cy="365" r="5"/>
	<circle id="Elipse_175" class="st1" cx="1212" cy="605" r="5"/>
	<circle id="Elipse_22" class="st1" cx="1212" cy="215" r="5"/>
	<circle id="Elipse_274" class="st1" cx="1212" cy="455" r="5"/>
	<circle id="Elipse_115" class="st1" cx="1212" cy="335" r="5"/>
	<circle id="Elipse_185" class="st1" cx="1212" cy="575" r="5"/>
	<circle id="Elipse_44" class="st1" cx="1212" cy="275" r="5"/>
	<circle id="Elipse_223" class="st1" cx="1212" cy="515" r="5"/>
	<circle id="Elipse_88" class="st1" cx="1212" cy="395" r="5"/>
	<circle id="Elipse_172" class="st1" cx="1212" cy="635" r="5"/>
	<circle id="Elipse_3" class="st1" cx="762" cy="185" r="5"/>
	<circle id="Elipse_306" class="st1" cx="762" cy="425" r="5"/>
	<circle id="Elipse_146" class="st1" cx="762" cy="305" r="5"/>
	<circle id="Elipse_295" class="st1" cx="762" cy="545" r="5"/>
	<circle id="Elipse_79" class="st1" cx="762" cy="245" r="5"/>
	<circle id="Elipse_296" class="st1" cx="762" cy="485" r="5"/>
	<circle id="Elipse_139" class="st1" cx="762" cy="365" r="5"/>
	<circle id="Elipse_297" class="st1" cx="762" cy="605" r="5"/>
	<circle id="Elipse_40" class="st1" cx="762" cy="215" r="5"/>
	<circle id="Elipse_298" class="st1" cx="762" cy="455" r="5"/>
	<circle id="Elipse_140" class="st1" cx="762" cy="335" r="5"/>
	<circle id="Elipse_299" class="st1" cx="762" cy="575" r="5"/>
	<circle id="Elipse_80" class="st1" cx="762" cy="275" r="5"/>
	<circle id="Elipse_300" class="st1" cx="762" cy="515" r="5"/>
	<circle id="Elipse_141" class="st1" cx="762" cy="395" r="5"/>
	<circle id="Elipse_301" class="st1" cx="762" cy="635" r="5"/>
	<circle id="Elipse_14" class="st1" cx="1002" cy="185" r="5"/>
	<circle id="Elipse_307" class="st1" cx="1002" cy="425" r="5"/>
	<circle id="Elipse_147" class="st1" cx="1002" cy="305" r="5"/>
	<circle id="Elipse_204" class="st1" cx="1002" cy="545" r="5"/>
	<circle id="Elipse_64" class="st1" cx="1002" cy="245" r="5"/>
	<circle id="Elipse_247" class="st1" cx="1002" cy="485" r="5"/>
	<circle id="Elipse_105" class="st1" cx="1002" cy="365" r="5"/>
	<circle id="Elipse_199" class="st1" cx="1002" cy="605" r="5"/>
	<circle id="Elipse_32" class="st1" cx="1002" cy="215" r="5"/>
	<circle id="Elipse_275" class="st1" cx="1002" cy="455" r="5"/>
	<circle id="Elipse_116" class="st1" cx="1002" cy="335" r="5"/>
	<circle id="Elipse_200" class="st1" cx="1002" cy="575" r="5"/>
	<circle id="Elipse_54" class="st1" cx="1002" cy="275" r="5"/>
	<circle id="Elipse_224" class="st1" cx="1002" cy="515" r="5"/>
	<circle id="Elipse_106" class="st1" cx="1002" cy="395" r="5"/>
	<circle id="Elipse_201" class="st1" cx="1002" cy="635" r="5"/>
	<circle id="Elipse_5" class="st1" cx="882" cy="185" r="5"/>
	<circle id="Elipse_308" class="st1" cx="882" cy="425" r="5"/>
	<circle id="Elipse_148" class="st1" cx="882" cy="305" r="5"/>
	<circle id="Elipse_239" class="st1" cx="882" cy="545" r="5"/>
	<circle id="Elipse_65" class="st1" cx="882" cy="245" r="5"/>
	<circle id="Elipse_248" class="st1" cx="882" cy="485" r="5"/>
	<circle id="Elipse_127" class="st1" cx="882" cy="365" r="5"/>
	<circle id="Elipse_240" class="st1" cx="882" cy="605" r="5"/>
	<circle id="Elipse_36" class="st1" cx="882" cy="215" r="5"/>
	<circle id="Elipse_276" class="st1" cx="882" cy="455" r="5"/>
	<circle id="Elipse_128" class="st1" cx="882" cy="335" r="5"/>
	<circle id="Elipse_241" class="st1" cx="882" cy="575" r="5"/>
	<circle id="Elipse_56" class="st1" cx="882" cy="275" r="5"/>
	<circle id="Elipse_242" class="st1" cx="882" cy="515" r="5"/>
	<circle id="Elipse_129" class="st1" cx="882" cy="395" r="5"/>
	<circle id="Elipse_243" class="st1" cx="882" cy="635" r="5"/>
	<circle id="Elipse_10" class="st1" cx="1122" cy="185" r="5"/>
	<circle id="Elipse_309" class="st1" cx="1122" cy="425" r="5"/>
	<circle id="Elipse_149" class="st1" cx="1122" cy="305" r="5"/>
	<circle id="Elipse_205" class="st1" cx="1122" cy="545" r="5"/>
	<circle id="Elipse_66" class="st1" cx="1122" cy="245" r="5"/>
	<circle id="Elipse_249" class="st1" cx="1122" cy="485" r="5"/>
	<circle id="Elipse_94" class="st1" cx="1122" cy="365" r="5"/>
	<circle id="Elipse_181" class="st1" cx="1122" cy="605" r="5"/>
	<circle id="Elipse_27" class="st1" cx="1122" cy="215" r="5"/>
	<circle id="Elipse_277" class="st1" cx="1122" cy="455" r="5"/>
	<circle id="Elipse_117" class="st1" cx="1122" cy="335" r="5"/>
	<circle id="Elipse_186" class="st1" cx="1122" cy="575" r="5"/>
	<circle id="Elipse_45" class="st1" cx="1122" cy="275" r="5"/>
	<circle id="Elipse_225" class="st1" cx="1122" cy="515" r="5"/>
	<circle id="Elipse_91" class="st1" cx="1122" cy="395" r="5"/>
	<circle id="Elipse_182" class="st1" cx="1122" cy="635" r="5"/>
	<circle id="Elipse_18" class="st1" cx="1272" cy="185" r="5"/>
	<circle id="Elipse_310" class="st1" cx="1272" cy="425" r="5"/>
	<circle id="Elipse_150" class="st1" cx="1272" cy="305" r="5"/>
	<circle id="Elipse_206" class="st1" cx="1272" cy="545" r="5"/>
	<circle id="Elipse_67" class="st1" cx="1272" cy="245" r="5"/>
	<circle id="Elipse_250" class="st1" cx="1272" cy="485" r="5"/>
	<circle id="Elipse_95" class="st1" cx="1272" cy="365" r="5"/>
	<circle id="Elipse_176" class="st1" cx="1272" cy="605" r="5"/>
	<circle id="Elipse_23" class="st1" cx="1272" cy="215" r="5"/>
	<circle id="Elipse_278" class="st1" cx="1272" cy="455" r="5"/>
	<circle id="Elipse_118" class="st1" cx="1272" cy="335" r="5"/>
	<circle id="Elipse_187" class="st1" cx="1272" cy="575" r="5"/>
	<circle id="Elipse_46" class="st1" cx="1272" cy="275" r="5"/>
	<circle id="Elipse_226" class="st1" cx="1272" cy="515" r="5"/>
	<circle id="Elipse_85" class="st1" cx="1272" cy="395" r="5"/>
	<circle id="Elipse_169" class="st1" cx="1272" cy="635" r="5"/>
	<circle id="Elipse_2" class="st1" cx="732" cy="185" r="5"/>
	<circle id="Elipse_321" class="st1" cx="732" cy="425" r="5"/>
	<circle id="Elipse_161" class="st1" cx="732" cy="305" r="5"/>
	<circle id="Elipse_322" class="st1" cx="732" cy="545" r="5"/>
	<circle id="Elipse_81" class="st1" cx="732" cy="245" r="5"/>
	<circle id="Elipse_323" class="st1" cx="732" cy="485" r="5"/>
	<circle id="Elipse_162" class="st1" cx="732" cy="365" r="5"/>
	<circle id="Elipse_324" class="st1" cx="732" cy="605" r="5"/>
	<circle id="Elipse_41" class="st1" cx="732" cy="215" r="5"/>
	<circle id="Elipse_325" class="st1" cx="732" cy="455" r="5"/>
	<circle id="Elipse_163" class="st1" cx="732" cy="335" r="5"/>
	<circle id="Elipse_326" class="st1" cx="732" cy="575" r="5"/>
	<circle id="Elipse_82" class="st1" cx="732" cy="275" r="5"/>
	<circle id="Elipse_327" class="st1" cx="732" cy="515" r="5"/>
	<circle id="Elipse_164" class="st1" cx="732" cy="395" r="5"/>
	<circle id="Elipse_328" class="st1" cx="732" cy="635" r="5"/>
	<circle id="Elipse_15" class="st1" cx="972" cy="185" r="5"/>
	<circle id="Elipse_311" class="st1" cx="972" cy="425" r="5"/>
	<circle id="Elipse_151" class="st1" cx="972" cy="305" r="5"/>
	<circle id="Elipse_213" class="st1" cx="972" cy="545" r="5"/>
	<circle id="Elipse_68" class="st1" cx="972" cy="245" r="5"/>
	<circle id="Elipse_251" class="st1" cx="972" cy="485" r="5"/>
	<circle id="Elipse_107" class="st1" cx="972" cy="365" r="5"/>
	<circle id="Elipse_214" class="st1" cx="972" cy="605" r="5"/>
	<circle id="Elipse_33" class="st1" cx="972" cy="215" r="5"/>
	<circle id="Elipse_279" class="st1" cx="972" cy="455" r="5"/>
	<circle id="Elipse_119" class="st1" cx="972" cy="335" r="5"/>
	<circle id="Elipse_215" class="st1" cx="972" cy="575" r="5"/>
	<circle id="Elipse_55" class="st1" cx="972" cy="275" r="5"/>
	<circle id="Elipse_227" class="st1" cx="972" cy="515" r="5"/>
	<circle id="Elipse_108" class="st1" cx="972" cy="395" r="5"/>
	<circle id="Elipse_216" class="st1" cx="972" cy="635" r="5"/>
	<circle id="Elipse_7" class="st1" cx="852" cy="185" r="5"/>
	<circle id="Elipse_312" class="st1" cx="852" cy="425" r="5"/>
	<circle id="Elipse_152" class="st1" cx="852" cy="305" r="5"/>
	<circle id="Elipse_259" class="st1" cx="852" cy="545" r="5"/>
	<circle id="Elipse_69" class="st1" cx="852" cy="245" r="5"/>
	<circle id="Elipse_260" class="st1" cx="852" cy="485" r="5"/>
	<circle id="Elipse_130" class="st1" cx="852" cy="365" r="5"/>
	<circle id="Elipse_261" class="st1" cx="852" cy="605" r="5"/>
	<circle id="Elipse_37" class="st1" cx="852" cy="215" r="5"/>
	<circle id="Elipse_280" class="st1" cx="852" cy="455" r="5"/>
	<circle id="Elipse_131" class="st1" cx="852" cy="335" r="5"/>
	<circle id="Elipse_262" class="st1" cx="852" cy="575" r="5"/>
	<circle id="Elipse_58" class="st1" cx="852" cy="275" r="5"/>
	<circle id="Elipse_263" class="st1" cx="852" cy="515" r="5"/>
	<circle id="Elipse_132" class="st1" cx="852" cy="395" r="5"/>
	<circle id="Elipse_264" class="st1" cx="852" cy="635" r="5"/>
	<circle id="Elipse_11" class="st1" cx="1092" cy="185" r="5"/>
	<circle id="Elipse_313" class="st1" cx="1092" cy="425" r="5"/>
	<circle id="Elipse_153" class="st1" cx="1092" cy="305" r="5"/>
	<circle id="Elipse_207" class="st1" cx="1092" cy="545" r="5"/>
	<circle id="Elipse_70" class="st1" cx="1092" cy="245" r="5"/>
	<circle id="Elipse_252" class="st1" cx="1092" cy="485" r="5"/>
	<circle id="Elipse_96" class="st1" cx="1092" cy="365" r="5"/>
	<circle id="Elipse_183" class="st1" cx="1092" cy="605" r="5"/>
	<circle id="Elipse_28" class="st1" cx="1092" cy="215" r="5"/>
	<circle id="Elipse_281" class="st1" cx="1092" cy="455" r="5"/>
	<circle id="Elipse_120" class="st1" cx="1092" cy="335" r="5"/>
	<circle id="Elipse_188" class="st1" cx="1092" cy="575" r="5"/>
	<circle id="Elipse_47" class="st1" cx="1092" cy="275" r="5"/>
	<circle id="Elipse_228" class="st1" cx="1092" cy="515" r="5"/>
	<circle id="Elipse_92" class="st1" cx="1092" cy="395" r="5"/>
	<circle id="Elipse_184" class="st1" cx="1092" cy="635" r="5"/>
	<circle id="Elipse_19" class="st1" cx="1242" cy="185" r="5"/>
	<circle id="Elipse_314" class="st1" cx="1242" cy="425" r="5"/>
	<circle id="Elipse_154" class="st1" cx="1242" cy="305" r="5"/>
	<circle id="Elipse_208" class="st1" cx="1242" cy="545" r="5"/>
	<circle id="Elipse_71" class="st1" cx="1242" cy="245" r="5"/>
	<circle id="Elipse_253" class="st1" cx="1242" cy="485" r="5"/>
	<circle id="Elipse_97" class="st1" cx="1242" cy="365" r="5"/>
	<circle id="Elipse_177" class="st1" cx="1242" cy="605" r="5"/>
	<circle id="Elipse_24" class="st1" cx="1242" cy="215" r="5"/>
	<circle id="Elipse_282" class="st1" cx="1242" cy="455" r="5"/>
	<circle id="Elipse_121" class="st1" cx="1242" cy="335" r="5"/>
	<circle id="Elipse_189" class="st1" cx="1242" cy="575" r="5"/>
	<circle id="Elipse_48" class="st1" cx="1242" cy="275" r="5"/>
	<circle id="Elipse_229" class="st1" cx="1242" cy="515" r="5"/>
	<circle id="Elipse_87" class="st1" cx="1242" cy="395" r="5"/>
	<circle id="Elipse_170" class="st1" cx="1242" cy="635" r="5"/>
	<circle id="Elipse_4" class="st1" cx="792" cy="185" r="5"/>
	<circle id="Elipse_315" class="st1" cx="792" cy="425" r="5"/>
	<circle id="Elipse_155" class="st1" cx="792" cy="305" r="5"/>
	<circle id="Elipse_288" class="st1" cx="792" cy="545" r="5"/>
	<circle id="Elipse_77" class="st1" cx="792" cy="245" r="5"/>
	<circle id="Elipse_289" class="st1" cx="792" cy="485" r="5"/>
	<circle id="Elipse_136" class="st1" cx="792" cy="365" r="5"/>
	<circle id="Elipse_290" class="st1" cx="792" cy="605" r="5"/>
	<circle id="Elipse_39" class="st1" cx="792" cy="215" r="5"/>
	<circle id="Elipse_291" class="st1" cx="792" cy="455" r="5"/>
	<circle id="Elipse_137" class="st1" cx="792" cy="335" r="5"/>
	<circle id="Elipse_292" class="st1" cx="792" cy="575" r="5"/>
	<circle id="Elipse_78" class="st1" cx="792" cy="275" r="5"/>
	<circle id="Elipse_293" class="st1" cx="792" cy="515" r="5"/>
	<circle id="Elipse_138" class="st1" cx="792" cy="395" r="5"/>
	<circle id="Elipse_294" class="st1" cx="792" cy="635" r="5"/>
	<circle id="Elipse_13" class="st1" cx="1032" cy="185" r="5"/>
	<circle id="Elipse_316" class="st1" cx="1032" cy="425" r="5"/>
	<circle id="Elipse_156" class="st1" cx="1032" cy="305" r="5"/>
	<circle id="Elipse_209" class="st1" cx="1032" cy="545" r="5"/>
	<circle id="Elipse_72" class="st1" cx="1032" cy="245" r="5"/>
	<circle id="Elipse_254" class="st1" cx="1032" cy="485" r="5"/>
	<circle id="Elipse_103" class="st1" cx="1032" cy="365" r="5"/>
	<circle id="Elipse_196" class="st1" cx="1032" cy="605" r="5"/>
	<circle id="Elipse_31" class="st1" cx="1032" cy="215" r="5"/>
	<circle id="Elipse_283" class="st1" cx="1032" cy="455" r="5"/>
	<circle id="Elipse_122" class="st1" cx="1032" cy="335" r="5"/>
	<circle id="Elipse_197" class="st1" cx="1032" cy="575" r="5"/>
	<circle id="Elipse_52" class="st1" cx="1032" cy="275" r="5"/>
	<circle id="Elipse_230" class="st1" cx="1032" cy="515" r="5"/>
	<circle id="Elipse_104" class="st1" cx="1032" cy="395" r="5"/>
	<circle id="Elipse_198" class="st1" cx="1032" cy="635" r="5"/>
	<circle id="Elipse_21" class="st1" cx="1182" cy="185" r="5"/>
	<circle id="Elipse_317" class="st1" cx="1182" cy="425" r="5"/>
	<circle id="Elipse_157" class="st1" cx="1182" cy="305" r="5"/>
	<circle id="Elipse_210" class="st1" cx="1182" cy="545" r="5"/>
	<circle id="Elipse_73" class="st1" cx="1182" cy="245" r="5"/>
	<circle id="Elipse_255" class="st1" cx="1182" cy="485" r="5"/>
	<circle id="Elipse_98" class="st1" cx="1182" cy="365" r="5"/>
	<circle id="Elipse_178" class="st1" cx="1182" cy="605" r="5"/>
	<circle id="Elipse_26" class="st1" cx="1182" cy="215" r="5"/>
	<circle id="Elipse_284" class="st1" cx="1182" cy="455" r="5"/>
	<circle id="Elipse_123" class="st1" cx="1182" cy="335" r="5"/>
	<circle id="Elipse_190" class="st1" cx="1182" cy="575" r="5"/>
	<circle id="Elipse_49" class="st1" cx="1182" cy="275" r="5"/>
	<circle id="Elipse_231" class="st1" cx="1182" cy="515" r="5"/>
	<circle id="Elipse_89" class="st1" cx="1182" cy="395" r="5"/>
	<circle id="Elipse_173" class="st1" cx="1182" cy="635" r="5"/>
	<circle id="Elipse_6" class="st1" cx="912" cy="185" r="5"/>
	<circle id="Elipse_318" class="st1" cx="912" cy="425" r="5"/>
	<circle id="Elipse_158" class="st1" cx="912" cy="305" r="5"/>
	<circle id="Elipse_234" class="st1" cx="912" cy="545" r="5"/>
	<circle id="Elipse_74" class="st1" cx="912" cy="245" r="5"/>
	<circle id="Elipse_256" class="st1" cx="912" cy="485" r="5"/>
	<circle id="Elipse_111" class="st1" cx="912" cy="365" r="5"/>
	<circle id="Elipse_235" class="st1" cx="912" cy="605" r="5"/>
	<circle id="Elipse_35" class="st1" cx="912" cy="215" r="5"/>
	<circle id="Elipse_285" class="st1" cx="912" cy="455" r="5"/>
	<circle id="Elipse_124" class="st1" cx="912" cy="335" r="5"/>
	<circle id="Elipse_236" class="st1" cx="912" cy="575" r="5"/>
	<circle id="Elipse_57" class="st1" cx="912" cy="275" r="5"/>
	<circle id="Elipse_237" class="st1" cx="912" cy="515" r="5"/>
	<circle id="Elipse_112" class="st1" cx="912" cy="395" r="5"/>
	<circle id="Elipse_238" class="st1" cx="912" cy="635" r="5"/>
	<circle id="Elipse_12" class="st1" cx="1152" cy="185" r="5"/>
	<circle id="Elipse_319" class="st1" cx="1152" cy="425" r="5"/>
	<circle id="Elipse_159" class="st1" cx="1152" cy="305" r="5"/>
	<circle id="Elipse_211" class="st1" cx="1152" cy="545" r="5"/>
	<circle id="Elipse_75" class="st1" cx="1152" cy="245" r="5"/>
	<circle id="Elipse_257" class="st1" cx="1152" cy="485" r="5"/>
	<circle id="Elipse_99" class="st1" cx="1152" cy="365" r="5"/>
	<circle id="Elipse_179" class="st1" cx="1152" cy="605" r="5"/>
	<circle id="Elipse_29" class="st1" cx="1152" cy="215" r="5"/>
	<circle id="Elipse_286" class="st1" cx="1152" cy="455" r="5"/>
	<circle id="Elipse_125" class="st1" cx="1152" cy="335" r="5"/>
	<circle id="Elipse_191" class="st1" cx="1152" cy="575" r="5"/>
	<circle id="Elipse_50" class="st1" cx="1152" cy="275" r="5"/>
	<circle id="Elipse_232" class="st1" cx="1152" cy="515" r="5"/>
	<circle id="Elipse_90" class="st1" cx="1152" cy="395" r="5"/>
	<circle id="Elipse_174" class="st1" cx="1152" cy="635" r="5"/>
	<circle id="Elipse_17" class="st1" cx="1302" cy="185" r="5"/>
	<circle id="Elipse_320" class="st1" cx="1302" cy="425" r="5"/>
	<circle id="Elipse_160" class="st1" cx="1302" cy="305" r="5"/>
	<circle id="Elipse_212" class="st1" cx="1302" cy="545" r="5"/>
	<circle id="Elipse_76" class="st1" cx="1302" cy="245" r="5"/>
	<circle id="Elipse_258" class="st1" cx="1302" cy="485" r="5"/>
	<circle id="Elipse_100" class="st1" cx="1302" cy="365" r="5"/>
	<circle id="Elipse_180" class="st1" cx="1302" cy="605" r="5"/>
	<circle id="Elipse_25" class="st1" cx="1302" cy="215" r="5"/>
	<circle id="Elipse_287" class="st1" cx="1302" cy="455" r="5"/>
	<circle id="Elipse_126" class="st1" cx="1302" cy="335" r="5"/>
	<circle id="Elipse_192" class="st1" cx="1302" cy="575" r="5"/>
	<circle id="Elipse_51" class="st1" cx="1302" cy="275" r="5"/>
	<circle id="Elipse_233" class="st1" cx="1302" cy="515" r="5"/>
	<circle id="Elipse_86" class="st1" cx="1302" cy="395" r="5"/>
	<circle id="Elipse_171" class="st1" cx="1302" cy="635" r="5"/>
</g>
</svg>
