<?xml version="1.0" encoding="utf-8"?>
<!-- Generator: Adobe Illustrator 23.1.0, SVG Export Plug-In . SVG Version: 6.00 Build 0)  -->
<svg version="1.1" id="Camada_1" xmlns="http://www.w3.org/2000/svg" xmlns:xlink="http://www.w3.org/1999/xlink" x="0px" y="0px"
	 viewBox="0 0 162 54" style="enable-background:new 0 0 162 54;" xml:space="preserve">
<style type="text/css">
	.st0{fill:#FFFFFF;}
	.st1{fill:#6DBE45;}
</style>
<g>
	<g id="Grupo_1" transform="translate(132.128 246.795)">
		<path id="Caminho_1" class="st0" d="M-93.8-200.1h1.7v2c0,0.4-0.1,0.7-0.2,1.1c-0.1,0.3-0.3,0.6-0.5,0.9c-0.2,0.3-0.5,0.5-0.9,0.6
			c-0.4,0.2-0.8,0.2-1.3,0.2c-0.4,0-0.9-0.1-1.3-0.2c-0.3-0.1-0.6-0.3-0.9-0.6c-0.2-0.3-0.4-0.6-0.5-0.9c-0.1-0.4-0.2-0.7-0.2-1.1
			v-6.3h1.8v1.9h3.8v1.3h-3.8v2.9c0,0.4,0.1,0.7,0.2,1c0.2,0.3,0.5,0.4,0.8,0.4s0.6-0.1,0.8-0.4c0.2-0.3,0.3-0.7,0.3-1L-93.8-200.1z
			"/>
		<path id="Caminho_2" class="st0" d="M-86.8-195.5c-0.1-0.2-0.1-0.4-0.1-0.6c-0.2,0.3-0.5,0.5-0.9,0.6c-0.4,0.2-0.8,0.2-1.2,0.2
			c-0.6,0.1-1.3-0.1-1.8-0.5c-0.4-0.4-0.6-0.9-0.6-1.4c0-0.4,0.1-0.8,0.2-1.2c0.2-0.3,0.4-0.5,0.7-0.7c0.3-0.2,0.7-0.3,1-0.4
			c0.4-0.1,0.8-0.2,1.3-0.2c0.3,0,0.6-0.1,0.9-0.3s0.3-0.6,0.1-0.9c0-0.1-0.1-0.1-0.2-0.1c-0.3-0.1-0.6-0.2-0.9-0.2
			s-0.7,0.1-0.9,0.3c-0.2,0.2-0.3,0.5-0.3,0.8h-1.7c0-0.3,0.1-0.7,0.2-1s0.3-0.6,0.5-0.8c0.3-0.2,0.6-0.4,0.9-0.5
			c0.5-0.1,0.9-0.2,1.4-0.2s0.9,0.1,1.4,0.2c0.3,0.1,0.7,0.3,0.9,0.5c0.2,0.2,0.4,0.5,0.5,0.9s0.2,0.8,0.2,1.2v4.4L-86.8-195.5z
			 M-86.9-198.9c-0.1,0.1-0.3,0.2-0.4,0.2c-0.3,0.1-0.5,0.1-0.8,0.2c-0.4,0.1-0.8,0.2-1.1,0.4c-0.2,0.2-0.3,0.4-0.3,0.7
			c0,0.5,0.3,0.8,0.9,0.8c0.2,0,0.4,0,0.7-0.1c0.4-0.1,0.7-0.4,0.9-0.8c0.1-0.2,0.1-0.4,0.1-0.6L-86.9-198.9z"/>
		<path id="Caminho_3" class="st0" d="M-84-192.8v-9.7h1.8v0.9c0.4-0.7,1.1-1.1,1.9-1c0.4,0,0.8,0.1,1.2,0.3c0.4,0.2,0.7,0.4,1,0.7
			c0.3,0.4,0.5,0.8,0.6,1.2c0.2,0.5,0.2,1,0.2,1.6c0,0.5-0.1,1-0.2,1.5c-0.1,0.4-0.3,0.8-0.6,1.1c-0.2,0.3-0.5,0.6-0.9,0.7
			c-0.4,0.2-0.8,0.3-1.2,0.3c-0.8,0-1.6-0.4-2.1-1.1v3.6L-84-192.8z M-80.7-196.9c1.1,0,1.6-0.7,1.6-2.2c0-0.5-0.1-1.1-0.4-1.5
			s-0.7-0.6-1.1-0.6s-0.8,0.2-1.1,0.6c-0.3,0.4-0.5,0.9-0.4,1.5C-82.3-197.7-81.8-196.9-80.7-196.9L-80.7-196.9z"/>
		<path id="Caminho_4" class="st0" d="M-74.7-198.5c0,0.5,0.2,0.9,0.5,1.3c0.3,0.3,0.7,0.5,1.1,0.5c0.3,0,0.6-0.1,0.8-0.2
			c0.2-0.1,0.4-0.3,0.4-0.6h1.9c-0.2,0.7-0.6,1.3-1.1,1.7c-0.6,0.4-1.2,0.6-1.9,0.6c-2.3,0-3.5-1.3-3.5-3.8c0-0.5,0.1-1,0.2-1.5
			c0.1-0.4,0.4-0.8,0.7-1.1c0.3-0.3,0.6-0.6,1-0.7c0.5-0.2,0.9-0.3,1.4-0.2c0.9-0.1,1.8,0.3,2.4,1c0.6,0.9,0.9,2,0.8,3.1
			L-74.7-198.5z M-71.8-199.7c0-0.2,0-0.5-0.1-0.7s-0.2-0.3-0.3-0.5c-0.1-0.1-0.3-0.2-0.5-0.3s-0.3-0.1-0.5-0.1
			c-0.4,0-0.7,0.1-1,0.4c-0.3,0.3-0.4,0.7-0.5,1.1L-71.8-199.7z"/>
		<path id="Caminho_5" class="st0" d="M-65.1-200.1h1.7v2c0,0.4-0.1,0.7-0.2,1.1c-0.1,0.3-0.3,0.6-0.5,0.9c-0.2,0.3-0.5,0.5-0.9,0.6
			c-0.4,0.2-0.8,0.2-1.3,0.2c-0.4,0-0.9-0.1-1.3-0.2c-0.3-0.1-0.6-0.3-0.9-0.6c-0.2-0.3-0.4-0.6-0.5-0.9c-0.1-0.4-0.2-0.7-0.2-1.1
			v-6.3h1.8v1.9h3.8v1.3h-3.8v2.9c0,0.4,0.1,0.7,0.2,1c0.2,0.3,0.5,0.4,0.8,0.4s0.6-0.1,0.8-0.4c0.2-0.3,0.3-0.7,0.3-1L-65.1-200.1z
			"/>
		<path id="Caminho_6" class="st0" d="M-60.7-198.5c0,0.5,0.2,0.9,0.5,1.3c0.3,0.3,0.7,0.5,1.1,0.5c0.3,0,0.6-0.1,0.8-0.2
			c0.2-0.1,0.4-0.3,0.4-0.6h1.9c-0.2,0.7-0.6,1.3-1.1,1.7c-0.6,0.4-1.2,0.6-1.9,0.6c-2.3,0-3.5-1.3-3.5-3.8c0-0.5,0.1-1,0.2-1.5
			c0.1-0.4,0.4-0.8,0.7-1.1s0.6-0.6,1-0.7c0.5-0.2,0.9-0.3,1.4-0.2c0.9-0.1,1.8,0.3,2.4,1c0.6,0.9,0.9,2,0.8,3.1L-60.7-198.5z
			 M-57.8-199.7c0-0.2,0-0.5-0.1-0.7s-0.2-0.3-0.3-0.5c-0.1-0.1-0.3-0.2-0.5-0.3s-0.3-0.1-0.5-0.1c-0.4,0-0.7,0.1-1,0.4
			c-0.3,0.3-0.4,0.7-0.5,1.1L-57.8-199.7z"/>
		<path id="Caminho_7" class="st0" d="M-50.9-200.4c0-0.3-0.2-0.5-0.4-0.7c-0.3-0.2-0.6-0.2-0.9-0.2c-0.3,0-0.6,0-0.9,0.1
			c-0.2,0.1-0.3,0.3-0.3,0.5s0.1,0.4,0.3,0.5c0.3,0.1,0.5,0.3,0.8,0.3l1.5,0.4c0.3,0.1,0.7,0.2,1,0.4c0.2,0.1,0.4,0.4,0.5,0.6
			c0.1,0.3,0.2,0.6,0.2,1c0,0.6-0.3,1.2-0.8,1.6c-0.7,0.5-1.5,0.7-2.3,0.6c-0.5,0-0.9-0.1-1.4-0.2c-0.4-0.1-0.7-0.3-1-0.5
			s-0.5-0.5-0.7-0.8s-0.2-0.7-0.2-1h1.9c0,0.3,0.1,0.6,0.4,0.8c0.3,0.2,0.7,0.3,1,0.3s0.6,0,0.9-0.2c0.2-0.1,0.4-0.3,0.4-0.5
			s-0.1-0.4-0.3-0.6c-0.3-0.1-0.5-0.2-0.8-0.3c-0.6-0.1-1.1-0.3-1.6-0.5c-0.3-0.1-0.7-0.3-1-0.5c-0.2-0.2-0.4-0.4-0.5-0.7
			s-0.1-0.5-0.1-0.8s0.1-0.5,0.2-0.8c0.1-0.2,0.3-0.5,0.5-0.6c0.3-0.2,0.6-0.3,0.9-0.4c0.5-0.1,0.9-0.2,1.4-0.2
			c0.8-0.1,1.6,0.2,2.2,0.6c0.5,0.4,0.7,1,0.8,1.7L-50.9-200.4z"/>
		<path id="Caminho_8" class="st0" d="M-39.7-200.9h1.8v2.5c0,0.4-0.1,0.9-0.2,1.3c-0.1,0.4-0.4,0.7-0.6,1c-0.3,0.3-0.6,0.5-1,0.6
			c-0.4,0.2-0.8,0.2-1.3,0.2s-1-0.1-1.4-0.2c-0.4-0.1-0.7-0.3-1-0.6s-0.5-0.6-0.7-0.9c-0.2-0.4-0.2-0.8-0.2-1.2c0-0.2,0-0.5,0.1-0.7
			s0.1-0.4,0.2-0.6c0.1-0.2,0.2-0.4,0.4-0.5c0.1-0.1,0.3-0.3,0.5-0.3c-0.7-0.4-1.2-1.2-1.1-2c0-0.4,0.1-0.7,0.3-1.1
			c0.2-0.3,0.4-0.6,0.7-0.8s0.7-0.4,1.1-0.5c0.5-0.1,1-0.2,1.4-0.2v1.6c-0.5,0-0.9,0.1-1.3,0.3c-0.3,0.3-0.4,0.6-0.4,1
			c0,0.3,0.1,0.7,0.4,0.9c0.4,0.2,0.9,0.3,1.3,0.3v1.3c-0.5,0-0.9,0.1-1.3,0.3c-0.3,0.3-0.5,0.7-0.5,1.1c0,0.2,0,0.4,0.1,0.6
			c0.1,0.2,0.2,0.3,0.3,0.5c0.1,0.1,0.3,0.2,0.5,0.3s0.5,0.1,0.7,0.1c0.9,0,1.4-0.6,1.4-1.7L-39.7-200.9z"/>
		<path id="Caminho_9" class="st0" d="M-33.2-192.8v-9.7h1.8v0.9c0.4-0.7,1.1-1.1,1.9-1c0.4,0,0.8,0.1,1.2,0.3
			c0.4,0.2,0.7,0.4,1,0.7c0.3,0.4,0.5,0.8,0.6,1.2c0.2,0.5,0.2,1,0.2,1.6c0,0.5-0.1,1-0.2,1.5c-0.1,0.4-0.3,0.8-0.6,1.1
			c-0.2,0.3-0.5,0.6-0.9,0.7c-0.4,0.2-0.8,0.3-1.2,0.3c-0.8,0-1.6-0.4-2.1-1.1v3.6L-33.2-192.8z M-30-196.9c1.1,0,1.6-0.7,1.6-2.2
			c0-0.5-0.1-1.1-0.4-1.5s-0.7-0.6-1.1-0.6s-0.8,0.2-1.1,0.6c-0.3,0.4-0.5,0.9-0.4,1.5C-31.5-197.7-31-196.9-30-196.9L-30-196.9z"/>
		<path id="Caminho_10" class="st0" d="M-25.6-203.3v-1.7h1.8v1.7H-25.6z M-25.6-195.5v-7h1.8v7H-25.6z"/>
		<path id="Caminho_11" class="st0" d="M-18.5-200.4c0-0.3-0.2-0.5-0.4-0.7c-0.3-0.2-0.6-0.2-0.9-0.2s-0.6,0-0.9,0.1
			c-0.2,0.1-0.3,0.3-0.3,0.5s0.1,0.4,0.3,0.5c0.3,0.1,0.5,0.3,0.8,0.3l1.5,0.4c0.3,0.1,0.7,0.2,1,0.4c0.2,0.1,0.4,0.4,0.5,0.6
			c0.1,0.3,0.2,0.6,0.2,1c0,0.6-0.3,1.2-0.8,1.6c-0.7,0.5-1.5,0.7-2.3,0.6c-0.5,0-0.9-0.1-1.4-0.2c-0.4-0.1-0.7-0.3-1-0.5
			s-0.5-0.5-0.7-0.8s-0.2-0.7-0.2-1h1.9c0,0.3,0.1,0.6,0.4,0.8s0.7,0.3,1,0.3s0.6,0,0.9-0.2c0.2-0.1,0.4-0.3,0.4-0.5
			s-0.1-0.4-0.3-0.6c-0.3-0.1-0.5-0.2-0.8-0.3c-0.6-0.1-1.1-0.3-1.6-0.5c-0.3-0.1-0.7-0.3-1-0.5c-0.2-0.2-0.4-0.4-0.5-0.7
			s-0.1-0.5-0.1-0.8s0.1-0.5,0.2-0.8c0.1-0.2,0.3-0.5,0.5-0.6c0.3-0.2,0.6-0.3,0.9-0.4c0.5-0.1,0.9-0.2,1.4-0.2
			c0.8-0.1,1.6,0.2,2.2,0.6c0.5,0.4,0.7,1,0.8,1.7L-18.5-200.4z"/>
		<path id="Caminho_12" class="st0" d="M-12.3-195.3c-0.5,0-1-0.1-1.5-0.3c-0.4-0.2-0.8-0.4-1.1-0.8c-0.3-0.3-0.6-0.7-0.7-1.2
			c-0.2-0.5-0.2-1-0.2-1.5s0.1-1,0.2-1.5c0.2-0.4,0.4-0.8,0.7-1.2c0.3-0.3,0.7-0.6,1.1-0.7c0.5-0.2,1-0.3,1.5-0.3s1,0.1,1.5,0.3
			c0.4,0.2,0.8,0.4,1.1,0.7s0.6,0.7,0.7,1.2c0.2,0.5,0.3,1,0.2,1.5c0,0.5-0.1,1-0.2,1.5c-0.2,0.4-0.4,0.8-0.7,1.2
			c-0.3,0.3-0.7,0.6-1.1,0.7C-11.3-195.4-11.8-195.3-12.3-195.3z M-12.3-196.9c1.1,0,1.7-0.7,1.7-2.1s-0.6-2.1-1.7-2.1
			s-1.7,0.7-1.7,2.1S-13.4-196.9-12.3-196.9z"/>
		<path id="Caminho_13" class="st0" d="M-3.7-200.4c0-0.3-0.2-0.5-0.4-0.7c-0.3-0.2-0.6-0.2-0.9-0.2s-0.6,0-0.9,0.1
			c-0.2,0.1-0.3,0.3-0.3,0.5s0.1,0.4,0.3,0.5c0.3,0.1,0.5,0.3,0.8,0.3l1.5,0.4c0.3,0.1,0.7,0.2,1,0.4c0.2,0.1,0.4,0.4,0.5,0.6
			c0.1,0.3,0.2,0.6,0.2,1c0,0.6-0.3,1.2-0.8,1.6c-0.7,0.5-1.5,0.7-2.3,0.6c-0.5,0-0.9-0.1-1.4-0.2c-0.4-0.1-0.7-0.3-1-0.5
			s-0.5-0.5-0.7-0.8c-0.2-0.3-0.2-0.7-0.2-1h1.9c0,0.3,0.1,0.6,0.4,0.8s0.7,0.3,1,0.3s0.6,0,0.9-0.2c0.2-0.1,0.4-0.3,0.4-0.5
			s-0.1-0.4-0.3-0.6c-0.3-0.1-0.5-0.2-0.8-0.3c-0.6-0.1-1.1-0.3-1.6-0.5c-0.3-0.1-0.7-0.3-1-0.5c-0.2-0.2-0.4-0.4-0.5-0.7
			s-0.1-0.5-0.1-0.8s0.1-0.5,0.2-0.8c0.1-0.2,0.3-0.5,0.5-0.6c0.3-0.2,0.6-0.3,0.9-0.4c0.5-0.1,0.9-0.2,1.4-0.2
			c0.8-0.1,1.6,0.2,2.2,0.6c0.5,0.4,0.7,1,0.8,1.7L-3.7-200.4z"/>
	</g>
	<g id="Grupo_2" transform="translate(128.421 205.065)">
		<path id="Caminho_15" class="st0" d="M-86.5-166.3l-11.2-31.6h9.2L-82-177l6.6-20.9h8.7L-78-166.3L-86.5-166.3L-86.5-166.3z"/>
		<path id="Caminho_16" class="st0" d="M-62.6-179.9c0,2.1,0.7,4.1,2.1,5.7c1.2,1.4,3.1,2.2,4.9,2.1c1.3,0,2.5-0.3,3.6-0.9
			c1-0.6,1.7-1.5,2-2.6h8.5c-0.8,3-2.6,5.6-5.1,7.5c-2.5,1.8-5.6,2.7-8.6,2.6c-10.4,0-15.6-5.7-15.6-17.2c0-2.2,0.3-4.5,1-6.6
			c0.6-1.9,1.6-3.6,3-5.1c1.3-1.4,2.9-2.5,4.7-3.2c2-0.8,4.2-1.2,6.4-1.1c4.8,0,8.5,1.6,11,4.7c2.5,3.1,3.7,7.8,3.7,14.1H-62.6z
			 M-49.6-185.2c0-1-0.2-2.1-0.6-3.1c-0.3-0.8-0.8-1.6-1.4-2.2c-0.6-0.6-1.3-1-2-1.3c-0.8-0.3-1.5-0.4-2.4-0.4
			c-1.6,0-3.2,0.6-4.3,1.8c-1.3,1.4-2,3.2-2.1,5.1L-49.6-185.2z"/>
		<path id="Caminho_17" class="st0" d="M-41.4-166.3v-31.6h7.8v3.8c0.6-0.9,1.3-1.8,2.1-2.5c0.7-0.6,1.5-1,2.3-1.4
			c0.8-0.3,1.6-0.5,2.4-0.6s1.7-0.1,2.5-0.1h1.1v8.5c-0.8-0.1-1.5-0.2-2.3-0.2c-5,0-7.6,2.5-7.6,7.6v16.4L-41.4-166.3z"/>
		<path id="Caminho_18" class="st0" d="M-3.7-166.3l-0.1-3.9c-1.8,3.1-5.2,4.9-8.7,4.7c-1.9,0-3.8-0.4-5.5-1.2s-3.1-1.9-4.3-3.3
			c-1.3-1.6-2.2-3.4-2.8-5.3c-0.7-2.3-1.1-4.7-1-7.1c0-2.2,0.3-4.4,0.9-6.6c0.5-1.9,1.4-3.6,2.5-5.2c1.1-1.4,2.4-2.6,4-3.4
			c1.7-0.8,3.6-1.2,5.4-1.2c3.7-0.1,7.2,1.8,9.3,4.9v-11.3h8.1v38.7h-7.8V-166.3z M-10.6-172.3c2,0,3.8-0.9,5-2.5
			c1.4-1.9,2.1-4.2,2-6.5c0-6.8-2.3-10.3-6.9-10.3c-4.7,0-7.1,3.3-7.1,9.8c-0.1,2.5,0.6,4.9,2,6.9
			C-14.5-173.3-12.6-172.3-10.6-172.3L-10.6-172.3z"/>
		<path id="Caminho_19" class="st0" d="M11.9-179.9c0,2.1,0.7,4.1,2.1,5.7c1.2,1.4,3.1,2.2,4.9,2.1c1.3,0,2.5-0.3,3.6-0.9
			c1-0.6,1.7-1.5,2-2.6H33c-0.8,3-2.6,5.6-5.1,7.5c-2.5,1.8-5.6,2.7-8.6,2.6c-10.4,0-15.6-5.7-15.6-17.2c0-2.2,0.3-4.5,1-6.6
			c0.6-1.9,1.6-3.6,3-5.1c1.3-1.4,2.9-2.5,4.7-3.2c2-0.8,4.2-1.2,6.4-1.1c4.8,0,8.5,1.6,11,4.7c2.5,3.1,3.7,7.8,3.7,14.1H11.9z
			 M25-185.2c0-1-0.2-2.1-0.6-3.1c-0.3-0.8-0.8-1.6-1.4-2.2c-0.6-0.6-1.3-1-2-1.3c-0.8-0.3-1.5-0.4-2.4-0.4c-1.6,0-3.2,0.6-4.3,1.8
			c-1.3,1.4-2,3.2-2.1,5.1L25-185.2z"/>
	</g>
</g>
<g>
	<path id="Caminho_14" class="st1" d="M18.4,6.8h8.8v30.8c0,2-0.3,3.9-1,5.7c-0.7,1.6-1.6,3.1-2.8,4.4c-1.2,1.2-2.7,2.2-4.3,2.9
		c-1.7,0.7-3.5,1-5.3,1c-4.7,0-8.1-1.3-10.4-3.9C1.1,45.2,0,42,0,37.6h8.5c-0.1,1.5,0.3,3,1.1,4.3c0.8,1.2,2.3,1.9,3.7,1.7
		c1.8,0,3.3-0.6,4.1-1.7c0.8-1.4,1.2-3,1.1-4.6L18.4,6.8z"/>
	<rect id="Retângulo_1" x="133" y="43.3" class="st1" width="29" height="8.3"/>
</g>
</svg>
