<?xml version="1.0" encoding="utf-8"?>
<!-- Generator: Adobe Illustrator 24.0.2, SVG Export Plug-In . SVG Version: 6.00 Build 0)  -->
<svg version="1.1" id="Camada_1" xmlns="http://www.w3.org/2000/svg" xmlns:xlink="http://www.w3.org/1999/xlink" x="0px" y="0px"
	 viewBox="0 0 610 460" style="enable-background:new 0 0 610 460;" xml:space="preserve">
<style type="text/css">
	.st0{opacity:0.4;fill:#C1ECA0;}
</style>
<circle id="Elipse_1" class="st0" cx="5" cy="5" r="5"/>
<circle id="Elipse_329" class="st0" cx="5" cy="245" r="5"/>
<circle id="Elipse_165" class="st0" cx="5" cy="125" r="5"/>
<circle id="Elipse_330" class="st0" cx="5" cy="365" r="5"/>
<circle id="Elipse_83" class="st0" cx="5" cy="65" r="5"/>
<circle id="Elipse_331" class="st0" cx="5" cy="305" r="5"/>
<circle id="Elipse_166" class="st0" cx="5" cy="185" r="5"/>
<circle id="Elipse_332" class="st0" cx="5" cy="425" r="5"/>
<circle id="Elipse_42" class="st0" cx="5" cy="35" r="5"/>
<circle id="Elipse_333" class="st0" cx="5" cy="275" r="5"/>
<circle id="Elipse_167" class="st0" cx="5" cy="155" r="5"/>
<circle id="Elipse_334" class="st0" cx="5" cy="395" r="5"/>
<circle id="Elipse_84" class="st0" cx="5" cy="95" r="5"/>
<circle id="Elipse_335" class="st0" cx="5" cy="335" r="5"/>
<circle id="Elipse_168" class="st0" cx="5" cy="215" r="5"/>
<circle id="Elipse_336" class="st0" cx="5" cy="455" r="5"/>
<circle id="Elipse_16" class="st0" cx="245" cy="5" r="5"/>
<circle id="Elipse_302" class="st0" cx="245" cy="245" r="5"/>
<circle id="Elipse_142" class="st0" cx="245" cy="125" r="5"/>
<circle id="Elipse_217" class="st0" cx="245" cy="365" r="5"/>
<circle id="Elipse_59" class="st0" cx="245" cy="65" r="5"/>
<circle id="Elipse_244" class="st0" cx="245" cy="305" r="5"/>
<circle id="Elipse_109" class="st0" cx="245" cy="185" r="5"/>
<circle id="Elipse_218" class="st0" cx="245" cy="425" r="5"/>
<circle id="Elipse_34" class="st0" cx="245" cy="35" r="5"/>
<circle id="Elipse_271" class="st0" cx="245" cy="275" r="5"/>
<circle id="Elipse_113" class="st0" cx="245" cy="155" r="5"/>
<circle id="Elipse_219" class="st0" cx="245" cy="395" r="5"/>
<circle id="Elipse_53" class="st0" cx="245" cy="95" r="5"/>
<circle id="Elipse_221" class="st0" cx="245" cy="335" r="5"/>
<circle id="Elipse_110" class="st0" cx="245" cy="215" r="5"/>
<circle id="Elipse_220" class="st0" cx="245" cy="455" r="5"/>
<circle id="Elipse_8" class="st0" cx="125" cy="5" r="5"/>
<circle id="Elipse_303" class="st0" cx="125" cy="245" r="5"/>
<circle id="Elipse_143" class="st0" cx="125" cy="125" r="5"/>
<circle id="Elipse_265" class="st0" cx="125" cy="365" r="5"/>
<circle id="Elipse_60" class="st0" cx="125" cy="65" r="5"/>
<circle id="Elipse_266" class="st0" cx="125" cy="305" r="5"/>
<circle id="Elipse_133" class="st0" cx="125" cy="185" r="5"/>
<circle id="Elipse_267" class="st0" cx="125" cy="425" r="5"/>
<circle id="Elipse_38" class="st0" cx="125" cy="35" r="5"/>
<circle id="Elipse_272" class="st0" cx="125" cy="275" r="5"/>
<circle id="Elipse_134" class="st0" cx="125" cy="155" r="5"/>
<circle id="Elipse_268" class="st0" cx="125" cy="395" r="5"/>
<circle id="Elipse_61" class="st0" cx="125" cy="95" r="5"/>
<circle id="Elipse_269" class="st0" cx="125" cy="335" r="5"/>
<circle id="Elipse_135" class="st0" cx="125" cy="215" r="5"/>
<circle id="Elipse_270" class="st0" cx="125" cy="455" r="5"/>
<circle id="Elipse_9" class="st0" cx="365" cy="5" r="5"/>
<circle id="Elipse_304" class="st0" cx="365" cy="245" r="5"/>
<circle id="Elipse_144" class="st0" cx="365" cy="125" r="5"/>
<circle id="Elipse_202" class="st0" cx="365" cy="365" r="5"/>
<circle id="Elipse_62" class="st0" cx="365" cy="65" r="5"/>
<circle id="Elipse_245" class="st0" cx="365" cy="305" r="5"/>
<circle id="Elipse_101" class="st0" cx="365" cy="185" r="5"/>
<circle id="Elipse_193" class="st0" cx="365" cy="425" r="5"/>
<circle id="Elipse_30" class="st0" cx="365" cy="35" r="5"/>
<circle id="Elipse_273" class="st0" cx="365" cy="275" r="5"/>
<circle id="Elipse_114" class="st0" cx="365" cy="155" r="5"/>
<circle id="Elipse_194" class="st0" cx="365" cy="395" r="5"/>
<circle id="Elipse_43" class="st0" cx="365" cy="95" r="5"/>
<circle id="Elipse_222" class="st0" cx="365" cy="335" r="5"/>
<circle id="Elipse_102" class="st0" cx="365" cy="215" r="5"/>
<circle id="Elipse_195" class="st0" cx="365" cy="455" r="5"/>
<circle id="Elipse_20" class="st0" cx="515" cy="5" r="5"/>
<circle id="Elipse_305" class="st0" cx="515" cy="245" r="5"/>
<circle id="Elipse_145" class="st0" cx="515" cy="125" r="5"/>
<circle id="Elipse_203" class="st0" cx="515" cy="365" r="5"/>
<circle id="Elipse_63" class="st0" cx="515" cy="65" r="5"/>
<circle id="Elipse_246" class="st0" cx="515" cy="305" r="5"/>
<circle id="Elipse_93" class="st0" cx="515" cy="185" r="5"/>
<circle id="Elipse_175" class="st0" cx="515" cy="425" r="5"/>
<circle id="Elipse_22" class="st0" cx="515" cy="35" r="5"/>
<circle id="Elipse_274" class="st0" cx="515" cy="275" r="5"/>
<circle id="Elipse_115" class="st0" cx="515" cy="155" r="5"/>
<circle id="Elipse_185" class="st0" cx="515" cy="395" r="5"/>
<circle id="Elipse_44" class="st0" cx="515" cy="95" r="5"/>
<circle id="Elipse_223" class="st0" cx="515" cy="335" r="5"/>
<circle id="Elipse_88" class="st0" cx="515" cy="215" r="5"/>
<circle id="Elipse_172" class="st0" cx="515" cy="455" r="5"/>
<circle id="Elipse_3" class="st0" cx="65" cy="5" r="5"/>
<circle id="Elipse_306" class="st0" cx="65" cy="245" r="5"/>
<circle id="Elipse_146" class="st0" cx="65" cy="125" r="5"/>
<circle id="Elipse_295" class="st0" cx="65" cy="365" r="5"/>
<circle id="Elipse_79" class="st0" cx="65" cy="65" r="5"/>
<circle id="Elipse_296" class="st0" cx="65" cy="305" r="5"/>
<circle id="Elipse_139" class="st0" cx="65" cy="185" r="5"/>
<circle id="Elipse_297" class="st0" cx="65" cy="425" r="5"/>
<circle id="Elipse_40" class="st0" cx="65" cy="35" r="5"/>
<circle id="Elipse_298" class="st0" cx="65" cy="275" r="5"/>
<circle id="Elipse_140" class="st0" cx="65" cy="155" r="5"/>
<circle id="Elipse_299" class="st0" cx="65" cy="395" r="5"/>
<circle id="Elipse_80" class="st0" cx="65" cy="95" r="5"/>
<circle id="Elipse_300" class="st0" cx="65" cy="335" r="5"/>
<circle id="Elipse_141" class="st0" cx="65" cy="215" r="5"/>
<circle id="Elipse_301" class="st0" cx="65" cy="455" r="5"/>
<circle id="Elipse_14" class="st0" cx="305" cy="5" r="5"/>
<circle id="Elipse_307" class="st0" cx="305" cy="245" r="5"/>
<circle id="Elipse_147" class="st0" cx="305" cy="125" r="5"/>
<circle id="Elipse_204" class="st0" cx="305" cy="365" r="5"/>
<circle id="Elipse_64" class="st0" cx="305" cy="65" r="5"/>
<circle id="Elipse_247" class="st0" cx="305" cy="305" r="5"/>
<circle id="Elipse_105" class="st0" cx="305" cy="185" r="5"/>
<circle id="Elipse_199" class="st0" cx="305" cy="425" r="5"/>
<circle id="Elipse_32" class="st0" cx="305" cy="35" r="5"/>
<circle id="Elipse_275" class="st0" cx="305" cy="275" r="5"/>
<circle id="Elipse_116" class="st0" cx="305" cy="155" r="5"/>
<circle id="Elipse_200" class="st0" cx="305" cy="395" r="5"/>
<circle id="Elipse_54" class="st0" cx="305" cy="95" r="5"/>
<circle id="Elipse_224" class="st0" cx="305" cy="335" r="5"/>
<circle id="Elipse_106" class="st0" cx="305" cy="215" r="5"/>
<circle id="Elipse_201" class="st0" cx="305" cy="455" r="5"/>
<circle id="Elipse_5" class="st0" cx="185" cy="5" r="5"/>
<circle id="Elipse_308" class="st0" cx="185" cy="245" r="5"/>
<circle id="Elipse_148" class="st0" cx="185" cy="125" r="5"/>
<circle id="Elipse_239" class="st0" cx="185" cy="365" r="5"/>
<circle id="Elipse_65" class="st0" cx="185" cy="65" r="5"/>
<circle id="Elipse_248" class="st0" cx="185" cy="305" r="5"/>
<circle id="Elipse_127" class="st0" cx="185" cy="185" r="5"/>
<circle id="Elipse_240" class="st0" cx="185" cy="425" r="5"/>
<circle id="Elipse_36" class="st0" cx="185" cy="35" r="5"/>
<circle id="Elipse_276" class="st0" cx="185" cy="275" r="5"/>
<circle id="Elipse_128" class="st0" cx="185" cy="155" r="5"/>
<circle id="Elipse_241" class="st0" cx="185" cy="395" r="5"/>
<circle id="Elipse_56" class="st0" cx="185" cy="95" r="5"/>
<circle id="Elipse_242" class="st0" cx="185" cy="335" r="5"/>
<circle id="Elipse_129" class="st0" cx="185" cy="215" r="5"/>
<circle id="Elipse_243" class="st0" cx="185" cy="455" r="5"/>
<circle id="Elipse_10" class="st0" cx="425" cy="5" r="5"/>
<circle id="Elipse_309" class="st0" cx="425" cy="245" r="5"/>
<circle id="Elipse_149" class="st0" cx="425" cy="125" r="5"/>
<circle id="Elipse_205" class="st0" cx="425" cy="365" r="5"/>
<circle id="Elipse_66" class="st0" cx="425" cy="65" r="5"/>
<circle id="Elipse_249" class="st0" cx="425" cy="305" r="5"/>
<circle id="Elipse_94" class="st0" cx="425" cy="185" r="5"/>
<circle id="Elipse_181" class="st0" cx="425" cy="425" r="5"/>
<circle id="Elipse_27" class="st0" cx="425" cy="35" r="5"/>
<circle id="Elipse_277" class="st0" cx="425" cy="275" r="5"/>
<circle id="Elipse_117" class="st0" cx="425" cy="155" r="5"/>
<circle id="Elipse_186" class="st0" cx="425" cy="395" r="5"/>
<circle id="Elipse_45" class="st0" cx="425" cy="95" r="5"/>
<circle id="Elipse_225" class="st0" cx="425" cy="335" r="5"/>
<circle id="Elipse_91" class="st0" cx="425" cy="215" r="5"/>
<circle id="Elipse_182" class="st0" cx="425" cy="455" r="5"/>
<circle id="Elipse_18" class="st0" cx="575" cy="5" r="5"/>
<circle id="Elipse_310" class="st0" cx="575" cy="245" r="5"/>
<circle id="Elipse_150" class="st0" cx="575" cy="125" r="5"/>
<circle id="Elipse_206" class="st0" cx="575" cy="365" r="5"/>
<circle id="Elipse_67" class="st0" cx="575" cy="65" r="5"/>
<circle id="Elipse_250" class="st0" cx="575" cy="305" r="5"/>
<circle id="Elipse_95" class="st0" cx="575" cy="185" r="5"/>
<circle id="Elipse_176" class="st0" cx="575" cy="425" r="5"/>
<circle id="Elipse_23" class="st0" cx="575" cy="35" r="5"/>
<circle id="Elipse_278" class="st0" cx="575" cy="275" r="5"/>
<circle id="Elipse_118" class="st0" cx="575" cy="155" r="5"/>
<circle id="Elipse_187" class="st0" cx="575" cy="395" r="5"/>
<circle id="Elipse_46" class="st0" cx="575" cy="95" r="5"/>
<circle id="Elipse_226" class="st0" cx="575" cy="335" r="5"/>
<circle id="Elipse_85" class="st0" cx="575" cy="215" r="5"/>
<circle id="Elipse_169" class="st0" cx="575" cy="455" r="5"/>
<circle id="Elipse_2" class="st0" cx="35" cy="5" r="5"/>
<circle id="Elipse_321" class="st0" cx="35" cy="245" r="5"/>
<circle id="Elipse_161" class="st0" cx="35" cy="125" r="5"/>
<circle id="Elipse_322" class="st0" cx="35" cy="365" r="5"/>
<circle id="Elipse_81" class="st0" cx="35" cy="65" r="5"/>
<circle id="Elipse_323" class="st0" cx="35" cy="305" r="5"/>
<circle id="Elipse_162" class="st0" cx="35" cy="185" r="5"/>
<circle id="Elipse_324" class="st0" cx="35" cy="425" r="5"/>
<circle id="Elipse_41" class="st0" cx="35" cy="35" r="5"/>
<circle id="Elipse_325" class="st0" cx="35" cy="275" r="5"/>
<circle id="Elipse_163" class="st0" cx="35" cy="155" r="5"/>
<circle id="Elipse_326" class="st0" cx="35" cy="395" r="5"/>
<circle id="Elipse_82" class="st0" cx="35" cy="95" r="5"/>
<circle id="Elipse_327" class="st0" cx="35" cy="335" r="5"/>
<circle id="Elipse_164" class="st0" cx="35" cy="215" r="5"/>
<circle id="Elipse_328" class="st0" cx="35" cy="455" r="5"/>
<circle id="Elipse_15" class="st0" cx="275" cy="5" r="5"/>
<circle id="Elipse_311" class="st0" cx="275" cy="245" r="5"/>
<circle id="Elipse_151" class="st0" cx="275" cy="125" r="5"/>
<circle id="Elipse_213" class="st0" cx="275" cy="365" r="5"/>
<circle id="Elipse_68" class="st0" cx="275" cy="65" r="5"/>
<circle id="Elipse_251" class="st0" cx="275" cy="305" r="5"/>
<circle id="Elipse_107" class="st0" cx="275" cy="185" r="5"/>
<circle id="Elipse_214" class="st0" cx="275" cy="425" r="5"/>
<circle id="Elipse_33" class="st0" cx="275" cy="35" r="5"/>
<circle id="Elipse_279" class="st0" cx="275" cy="275" r="5"/>
<circle id="Elipse_119" class="st0" cx="275" cy="155" r="5"/>
<circle id="Elipse_215" class="st0" cx="275" cy="395" r="5"/>
<circle id="Elipse_55" class="st0" cx="275" cy="95" r="5"/>
<circle id="Elipse_227" class="st0" cx="275" cy="335" r="5"/>
<circle id="Elipse_108" class="st0" cx="275" cy="215" r="5"/>
<circle id="Elipse_216" class="st0" cx="275" cy="455" r="5"/>
<circle id="Elipse_7" class="st0" cx="155" cy="5" r="5"/>
<circle id="Elipse_312" class="st0" cx="155" cy="245" r="5"/>
<circle id="Elipse_152" class="st0" cx="155" cy="125" r="5"/>
<circle id="Elipse_259" class="st0" cx="155" cy="365" r="5"/>
<circle id="Elipse_69" class="st0" cx="155" cy="65" r="5"/>
<circle id="Elipse_260" class="st0" cx="155" cy="305" r="5"/>
<circle id="Elipse_130" class="st0" cx="155" cy="185" r="5"/>
<circle id="Elipse_261" class="st0" cx="155" cy="425" r="5"/>
<circle id="Elipse_37" class="st0" cx="155" cy="35" r="5"/>
<circle id="Elipse_280" class="st0" cx="155" cy="275" r="5"/>
<circle id="Elipse_131" class="st0" cx="155" cy="155" r="5"/>
<circle id="Elipse_262" class="st0" cx="155" cy="395" r="5"/>
<circle id="Elipse_58" class="st0" cx="155" cy="95" r="5"/>
<circle id="Elipse_263" class="st0" cx="155" cy="335" r="5"/>
<circle id="Elipse_132" class="st0" cx="155" cy="215" r="5"/>
<circle id="Elipse_264" class="st0" cx="155" cy="455" r="5"/>
<circle id="Elipse_11" class="st0" cx="395" cy="5" r="5"/>
<circle id="Elipse_313" class="st0" cx="395" cy="245" r="5"/>
<circle id="Elipse_153" class="st0" cx="395" cy="125" r="5"/>
<circle id="Elipse_207" class="st0" cx="395" cy="365" r="5"/>
<circle id="Elipse_70" class="st0" cx="395" cy="65" r="5"/>
<circle id="Elipse_252" class="st0" cx="395" cy="305" r="5"/>
<circle id="Elipse_96" class="st0" cx="395" cy="185" r="5"/>
<circle id="Elipse_183" class="st0" cx="395" cy="425" r="5"/>
<circle id="Elipse_28" class="st0" cx="395" cy="35" r="5"/>
<circle id="Elipse_281" class="st0" cx="395" cy="275" r="5"/>
<circle id="Elipse_120" class="st0" cx="395" cy="155" r="5"/>
<circle id="Elipse_188" class="st0" cx="395" cy="395" r="5"/>
<circle id="Elipse_47" class="st0" cx="395" cy="95" r="5"/>
<circle id="Elipse_228" class="st0" cx="395" cy="335" r="5"/>
<circle id="Elipse_92" class="st0" cx="395" cy="215" r="5"/>
<circle id="Elipse_184" class="st0" cx="395" cy="455" r="5"/>
<circle id="Elipse_19" class="st0" cx="545" cy="5" r="5"/>
<circle id="Elipse_314" class="st0" cx="545" cy="245" r="5"/>
<circle id="Elipse_154" class="st0" cx="545" cy="125" r="5"/>
<circle id="Elipse_208" class="st0" cx="545" cy="365" r="5"/>
<circle id="Elipse_71" class="st0" cx="545" cy="65" r="5"/>
<circle id="Elipse_253" class="st0" cx="545" cy="305" r="5"/>
<circle id="Elipse_97" class="st0" cx="545" cy="185" r="5"/>
<circle id="Elipse_177" class="st0" cx="545" cy="425" r="5"/>
<circle id="Elipse_24" class="st0" cx="545" cy="35" r="5"/>
<circle id="Elipse_282" class="st0" cx="545" cy="275" r="5"/>
<circle id="Elipse_121" class="st0" cx="545" cy="155" r="5"/>
<circle id="Elipse_189" class="st0" cx="545" cy="395" r="5"/>
<circle id="Elipse_48" class="st0" cx="545" cy="95" r="5"/>
<circle id="Elipse_229" class="st0" cx="545" cy="335" r="5"/>
<circle id="Elipse_87" class="st0" cx="545" cy="215" r="5"/>
<circle id="Elipse_170" class="st0" cx="545" cy="455" r="5"/>
<circle id="Elipse_4" class="st0" cx="95" cy="5" r="5"/>
<circle id="Elipse_315" class="st0" cx="95" cy="245" r="5"/>
<circle id="Elipse_155" class="st0" cx="95" cy="125" r="5"/>
<circle id="Elipse_288" class="st0" cx="95" cy="365" r="5"/>
<circle id="Elipse_77" class="st0" cx="95" cy="65" r="5"/>
<circle id="Elipse_289" class="st0" cx="95" cy="305" r="5"/>
<circle id="Elipse_136" class="st0" cx="95" cy="185" r="5"/>
<circle id="Elipse_290" class="st0" cx="95" cy="425" r="5"/>
<circle id="Elipse_39" class="st0" cx="95" cy="35" r="5"/>
<circle id="Elipse_291" class="st0" cx="95" cy="275" r="5"/>
<circle id="Elipse_137" class="st0" cx="95" cy="155" r="5"/>
<circle id="Elipse_292" class="st0" cx="95" cy="395" r="5"/>
<circle id="Elipse_78" class="st0" cx="95" cy="95" r="5"/>
<circle id="Elipse_293" class="st0" cx="95" cy="335" r="5"/>
<circle id="Elipse_138" class="st0" cx="95" cy="215" r="5"/>
<circle id="Elipse_294" class="st0" cx="95" cy="455" r="5"/>
<circle id="Elipse_13" class="st0" cx="335" cy="5" r="5"/>
<circle id="Elipse_316" class="st0" cx="335" cy="245" r="5"/>
<circle id="Elipse_156" class="st0" cx="335" cy="125" r="5"/>
<circle id="Elipse_209" class="st0" cx="335" cy="365" r="5"/>
<circle id="Elipse_72" class="st0" cx="335" cy="65" r="5"/>
<circle id="Elipse_254" class="st0" cx="335" cy="305" r="5"/>
<circle id="Elipse_103" class="st0" cx="335" cy="185" r="5"/>
<circle id="Elipse_196" class="st0" cx="335" cy="425" r="5"/>
<circle id="Elipse_31" class="st0" cx="335" cy="35" r="5"/>
<circle id="Elipse_283" class="st0" cx="335" cy="275" r="5"/>
<circle id="Elipse_122" class="st0" cx="335" cy="155" r="5"/>
<circle id="Elipse_197" class="st0" cx="335" cy="395" r="5"/>
<circle id="Elipse_52" class="st0" cx="335" cy="95" r="5"/>
<circle id="Elipse_230" class="st0" cx="335" cy="335" r="5"/>
<circle id="Elipse_104" class="st0" cx="335" cy="215" r="5"/>
<circle id="Elipse_198" class="st0" cx="335" cy="455" r="5"/>
<circle id="Elipse_21" class="st0" cx="485" cy="5" r="5"/>
<circle id="Elipse_317" class="st0" cx="485" cy="245" r="5"/>
<circle id="Elipse_157" class="st0" cx="485" cy="125" r="5"/>
<circle id="Elipse_210" class="st0" cx="485" cy="365" r="5"/>
<circle id="Elipse_73" class="st0" cx="485" cy="65" r="5"/>
<circle id="Elipse_255" class="st0" cx="485" cy="305" r="5"/>
<circle id="Elipse_98" class="st0" cx="485" cy="185" r="5"/>
<circle id="Elipse_178" class="st0" cx="485" cy="425" r="5"/>
<circle id="Elipse_26" class="st0" cx="485" cy="35" r="5"/>
<circle id="Elipse_284" class="st0" cx="485" cy="275" r="5"/>
<circle id="Elipse_123" class="st0" cx="485" cy="155" r="5"/>
<circle id="Elipse_190" class="st0" cx="485" cy="395" r="5"/>
<circle id="Elipse_49" class="st0" cx="485" cy="95" r="5"/>
<circle id="Elipse_231" class="st0" cx="485" cy="335" r="5"/>
<circle id="Elipse_89" class="st0" cx="485" cy="215" r="5"/>
<circle id="Elipse_173" class="st0" cx="485" cy="455" r="5"/>
<circle id="Elipse_6" class="st0" cx="215" cy="5" r="5"/>
<circle id="Elipse_318" class="st0" cx="215" cy="245" r="5"/>
<circle id="Elipse_158" class="st0" cx="215" cy="125" r="5"/>
<circle id="Elipse_234" class="st0" cx="215" cy="365" r="5"/>
<circle id="Elipse_74" class="st0" cx="215" cy="65" r="5"/>
<circle id="Elipse_256" class="st0" cx="215" cy="305" r="5"/>
<circle id="Elipse_111" class="st0" cx="215" cy="185" r="5"/>
<circle id="Elipse_235" class="st0" cx="215" cy="425" r="5"/>
<circle id="Elipse_35" class="st0" cx="215" cy="35" r="5"/>
<circle id="Elipse_285" class="st0" cx="215" cy="275" r="5"/>
<circle id="Elipse_124" class="st0" cx="215" cy="155" r="5"/>
<circle id="Elipse_236" class="st0" cx="215" cy="395" r="5"/>
<circle id="Elipse_57" class="st0" cx="215" cy="95" r="5"/>
<circle id="Elipse_237" class="st0" cx="215" cy="335" r="5"/>
<circle id="Elipse_112" class="st0" cx="215" cy="215" r="5"/>
<circle id="Elipse_238" class="st0" cx="215" cy="455" r="5"/>
<circle id="Elipse_12" class="st0" cx="455" cy="5" r="5"/>
<circle id="Elipse_319" class="st0" cx="455" cy="245" r="5"/>
<circle id="Elipse_159" class="st0" cx="455" cy="125" r="5"/>
<circle id="Elipse_211" class="st0" cx="455" cy="365" r="5"/>
<circle id="Elipse_75" class="st0" cx="455" cy="65" r="5"/>
<circle id="Elipse_257" class="st0" cx="455" cy="305" r="5"/>
<circle id="Elipse_99" class="st0" cx="455" cy="185" r="5"/>
<circle id="Elipse_179" class="st0" cx="455" cy="425" r="5"/>
<circle id="Elipse_29" class="st0" cx="455" cy="35" r="5"/>
<circle id="Elipse_286" class="st0" cx="455" cy="275" r="5"/>
<circle id="Elipse_125" class="st0" cx="455" cy="155" r="5"/>
<circle id="Elipse_191" class="st0" cx="455" cy="395" r="5"/>
<circle id="Elipse_50" class="st0" cx="455" cy="95" r="5"/>
<circle id="Elipse_232" class="st0" cx="455" cy="335" r="5"/>
<circle id="Elipse_90" class="st0" cx="455" cy="215" r="5"/>
<circle id="Elipse_174" class="st0" cx="455" cy="455" r="5"/>
<circle id="Elipse_17" class="st0" cx="605" cy="5" r="5"/>
<circle id="Elipse_320" class="st0" cx="605" cy="245" r="5"/>
<circle id="Elipse_160" class="st0" cx="605" cy="125" r="5"/>
<circle id="Elipse_212" class="st0" cx="605" cy="365" r="5"/>
<circle id="Elipse_76" class="st0" cx="605" cy="65" r="5"/>
<circle id="Elipse_258" class="st0" cx="605" cy="305" r="5"/>
<circle id="Elipse_100" class="st0" cx="605" cy="185" r="5"/>
<circle id="Elipse_180" class="st0" cx="605" cy="425" r="5"/>
<circle id="Elipse_25" class="st0" cx="605" cy="35" r="5"/>
<circle id="Elipse_287" class="st0" cx="605" cy="275" r="5"/>
<circle id="Elipse_126" class="st0" cx="605" cy="155" r="5"/>
<circle id="Elipse_192" class="st0" cx="605" cy="395" r="5"/>
<circle id="Elipse_51" class="st0" cx="605" cy="95" r="5"/>
<circle id="Elipse_233" class="st0" cx="605" cy="335" r="5"/>
<circle id="Elipse_86" class="st0" cx="605" cy="215" r="5"/>
<circle id="Elipse_171" class="st0" cx="605" cy="455" r="5"/>
</svg>
