<svg xmlns="http://www.w3.org/2000/svg" width="162" height="54" viewBox="0 0 162 54">
  <g id="Grupo_49" data-name="Grupo 49" transform="translate(-122 -23)">
    <g id="Grupo_1" data-name="Grupo 1" transform="translate(156.401 64.73)">
      <path id="Caminho_1" data-name="Caminho 1" d="M300.928,452.585h1.7v1.992a3.453,3.453,0,0,1-.162,1.06,2.491,2.491,0,0,1-.507.9,2.421,2.421,0,0,1-.874.619,3.18,3.18,0,0,1-1.261.228,3.312,3.312,0,0,1-1.3-.228,2.449,2.449,0,0,1-.881-.612,2.332,2.332,0,0,1-.5-.9,3.716,3.716,0,0,1-.155-1.081V448.3h1.8v1.892h3.833V451.5H298.8v2.874a1.824,1.824,0,0,0,.247,1.031.908.908,0,0,0,.81.363.938.938,0,0,0,.81-.356,1.688,1.688,0,0,0,.261-1.01Z" transform="translate(-296.997 -447.633)" fill="#fff"/>
      <path id="Caminho_2" data-name="Caminho 2" d="M338.821,465.281a2.851,2.851,0,0,1-.113-.626,2.26,2.26,0,0,1-.86.591,3.239,3.239,0,0,1-1.24.221,2.464,2.464,0,0,1-1.754-.534,1.834,1.834,0,0,1-.557-1.387,2.557,2.557,0,0,1,.24-1.2,1.8,1.8,0,0,1,.662-.7,3.177,3.177,0,0,1,1.008-.377q.584-.121,1.275-.22a2.435,2.435,0,0,0,.93-.263.654.654,0,0,0-.078-1.067,1.638,1.638,0,0,0-.852-.192,1.224,1.224,0,0,0-.909.285,1.339,1.339,0,0,0-.345.754h-1.705a3.2,3.2,0,0,1,.176-1,1.909,1.909,0,0,1,.521-.783,2.436,2.436,0,0,1,.937-.505,4.84,4.84,0,0,1,1.409-.178,4.537,4.537,0,0,1,1.388.185,2.231,2.231,0,0,1,.916.534,2.039,2.039,0,0,1,.5.868,4.106,4.106,0,0,1,.155,1.174v4.425Zm-.127-3.429a.988.988,0,0,1-.408.228,7.39,7.39,0,0,1-.775.185,2.611,2.611,0,0,0-1.085.4.849.849,0,0,0-.3.7q0,.783.888.782a1.751,1.751,0,0,0,.655-.121,1.6,1.6,0,0,0,.874-.811,1.343,1.343,0,0,0,.134-.59Z" transform="translate(-327.859 -455.72)" fill="#fff"/>
      <path id="Caminho_3" data-name="Caminho 3" d="M376.5,467.991v-9.709h1.761l.014.854a2.109,2.109,0,0,1,1.93-1.039,2.847,2.847,0,0,1,1.2.256,2.639,2.639,0,0,1,.951.74,3.6,3.6,0,0,1,.62,1.181,5.127,5.127,0,0,1,.226,1.579,5.262,5.262,0,0,1-.19,1.458,3.457,3.457,0,0,1-.557,1.146,2.517,2.517,0,0,1-.895.747,2.663,2.663,0,0,1-1.2.263,2.4,2.4,0,0,1-2.057-1.1v3.62Zm3.269-4.1q1.578,0,1.578-2.163a2.508,2.508,0,0,0-.437-1.53,1.344,1.344,0,0,0-1.127-.59,1.363,1.363,0,0,0-1.106.555,2.253,2.253,0,0,0-.444,1.451Q378.23,463.887,379.766,463.887Z" transform="translate(-362.773 -455.72)" fill="#fff"/>
      <path id="Caminho_4" data-name="Caminho 4" d="M421.589,462.265a2.01,2.01,0,0,0,.458,1.266,1.388,1.388,0,0,0,1.092.47,1.523,1.523,0,0,0,.8-.206.933.933,0,0,0,.444-.576h1.888a3.071,3.071,0,0,1-1.127,1.665,3.172,3.172,0,0,1-1.916.584q-3.466,0-3.466-3.813a4.478,4.478,0,0,1,.225-1.465,3.169,3.169,0,0,1,.655-1.124,2.826,2.826,0,0,1,1.05-.718,3.8,3.8,0,0,1,1.423-.249,2.917,2.917,0,0,1,2.431,1.039,4.978,4.978,0,0,1,.824,3.13Zm2.889-1.167a1.967,1.967,0,0,0-.134-.676,1.414,1.414,0,0,0-.317-.484,1.259,1.259,0,0,0-.451-.285,1.512,1.512,0,0,0-.521-.092,1.294,1.294,0,0,0-.951.405,1.74,1.74,0,0,0-.458,1.131Z" transform="translate(-398.565 -455.72)" fill="#fff"/>
      <path id="Caminho_5" data-name="Caminho 5" d="M467.11,452.585h1.705v1.992a3.453,3.453,0,0,1-.162,1.06,2.49,2.49,0,0,1-.507.9,2.422,2.422,0,0,1-.874.619,3.179,3.179,0,0,1-1.261.228,3.312,3.312,0,0,1-1.3-.228,2.45,2.45,0,0,1-.881-.612,2.329,2.329,0,0,1-.5-.9,3.71,3.71,0,0,1-.155-1.081V448.3h1.8v1.892h3.833V451.5h-3.833v2.874a1.824,1.824,0,0,0,.247,1.031.908.908,0,0,0,.81.363.938.938,0,0,0,.81-.356,1.687,1.687,0,0,0,.261-1.01Z" transform="translate(-434.49 -447.633)" fill="#fff"/>
      <path id="Caminho_6" data-name="Caminho 6" d="M502.475,462.265a2.01,2.01,0,0,0,.458,1.266,1.388,1.388,0,0,0,1.092.47,1.523,1.523,0,0,0,.8-.206.934.934,0,0,0,.444-.576h1.888a3.07,3.07,0,0,1-1.127,1.665,3.173,3.173,0,0,1-1.916.584q-3.466,0-3.466-3.813a4.477,4.477,0,0,1,.225-1.465,3.17,3.17,0,0,1,.655-1.124,2.824,2.824,0,0,1,1.05-.718A3.8,3.8,0,0,1,504,458.1a2.917,2.917,0,0,1,2.431,1.039,4.978,4.978,0,0,1,.824,3.13Zm2.889-1.167a1.968,1.968,0,0,0-.134-.676,1.417,1.417,0,0,0-.317-.484,1.259,1.259,0,0,0-.451-.285,1.513,1.513,0,0,0-.521-.092,1.294,1.294,0,0,0-.951.405,1.74,1.74,0,0,0-.458,1.131Z" transform="translate(-465.487 -455.72)" fill="#fff"/>
      <path id="Caminho_7" data-name="Caminho 7" d="M547.088,460.4a1.029,1.029,0,0,0-.359-.7,1.446,1.446,0,0,0-.881-.221,2.085,2.085,0,0,0-.853.135.472.472,0,0,0-.289.462.513.513,0,0,0,.289.455,3.684,3.684,0,0,0,.838.327l1.522.434a3.76,3.76,0,0,1,.994.42,1.4,1.4,0,0,1,.535.6,2.43,2.43,0,0,1,.162.975,1.914,1.914,0,0,1-.775,1.558,3.625,3.625,0,0,1-2.3.619,4.979,4.979,0,0,1-1.353-.171,3.142,3.142,0,0,1-1.036-.491,2.238,2.238,0,0,1-.662-.768,2.272,2.272,0,0,1-.247-1h1.888a.881.881,0,0,0,.388.768,1.722,1.722,0,0,0,1.008.27,2.221,2.221,0,0,0,.895-.164.535.535,0,0,0,.373-.505.6.6,0,0,0-.275-.555,2.846,2.846,0,0,0-.838-.3,10.88,10.88,0,0,1-1.635-.477,3.422,3.422,0,0,1-.965-.548,1.508,1.508,0,0,1-.465-.655,2.482,2.482,0,0,1-.12-.8,1.8,1.8,0,0,1,.162-.754,1.656,1.656,0,0,1,.514-.626,2.756,2.756,0,0,1,.916-.434,5.014,5.014,0,0,1,1.381-.164,3.24,3.24,0,0,1,2.184.612,2.363,2.363,0,0,1,.761,1.693Z" transform="translate(-500.265 -455.72)" fill="#fff"/>
      <path id="Caminho_8" data-name="Caminho 8" d="M610.195,449.145h1.761v2.547a3.562,3.562,0,0,1-.233,1.316,2.949,2.949,0,0,1-.648,1.01,2.844,2.844,0,0,1-.993.647,3.472,3.472,0,0,1-1.282.228,4.116,4.116,0,0,1-1.423-.228,3.084,3.084,0,0,1-1.05-.626,2.659,2.659,0,0,1-.655-.939,3,3,0,0,1-.225-1.167,2.871,2.871,0,0,1,.085-.676,3.111,3.111,0,0,1,.232-.648,2.211,2.211,0,0,1,.359-.526,1.5,1.5,0,0,1,.451-.341,2.043,2.043,0,0,1-1.085-1.978,2.29,2.29,0,0,1,.254-1.081,2.468,2.468,0,0,1,.719-.832,3.483,3.483,0,0,1,1.113-.541,5.043,5.043,0,0,1,1.437-.192v1.551a2.192,2.192,0,0,0-1.339.306,1.213,1.213,0,0,0-.381,1,1.014,1.014,0,0,0,.395.882,2.331,2.331,0,0,0,1.325.284v1.337a2.15,2.15,0,0,0-1.31.349,1.256,1.256,0,0,0-.465,1.074,1.69,1.69,0,0,0,.092.562,1.259,1.259,0,0,0,.282.462,1.387,1.387,0,0,0,.479.32,1.8,1.8,0,0,0,.7.121q1.409,0,1.409-1.679Z" transform="translate(-552.197 -445.004)" fill="#fff"/>
      <path id="Caminho_9" data-name="Caminho 9" d="M670.661,467.991v-9.709h1.761l.014.854a2.109,2.109,0,0,1,1.931-1.039,2.848,2.848,0,0,1,1.2.256,2.642,2.642,0,0,1,.951.74,3.607,3.607,0,0,1,.62,1.181,5.128,5.128,0,0,1,.225,1.579,5.262,5.262,0,0,1-.19,1.458,3.466,3.466,0,0,1-.557,1.146,2.516,2.516,0,0,1-.895.747,2.663,2.663,0,0,1-1.2.263,2.4,2.4,0,0,1-2.057-1.1v3.62Zm3.269-4.1q1.578,0,1.578-2.163a2.506,2.506,0,0,0-.437-1.53,1.343,1.343,0,0,0-1.127-.59,1.363,1.363,0,0,0-1.106.555,2.254,2.254,0,0,0-.444,1.451Q672.394,463.887,673.93,463.887Z" transform="translate(-606.154 -455.72)" fill="#fff"/>
      <path id="Caminho_10" data-name="Caminho 10" d="M715.065,446.186v-1.721H716.9v1.721Zm0,7.84v-7H716.9v7Z" transform="translate(-642.892 -444.465)" fill="#fff"/>
      <path id="Caminho_11" data-name="Caminho 11" d="M735.064,460.4a1.03,1.03,0,0,0-.359-.7,1.446,1.446,0,0,0-.881-.221,2.084,2.084,0,0,0-.852.135.472.472,0,0,0-.289.462.513.513,0,0,0,.289.455,3.678,3.678,0,0,0,.839.327l1.522.434a3.763,3.763,0,0,1,.993.42,1.4,1.4,0,0,1,.535.6,2.435,2.435,0,0,1,.162.975,1.915,1.915,0,0,1-.775,1.558,3.626,3.626,0,0,1-2.3.619,4.981,4.981,0,0,1-1.353-.171,3.144,3.144,0,0,1-1.036-.491,2.239,2.239,0,0,1-.662-.768,2.275,2.275,0,0,1-.246-1h1.888a.881.881,0,0,0,.388.768,1.723,1.723,0,0,0,1.008.27,2.22,2.22,0,0,0,.895-.164.535.535,0,0,0,.373-.505.6.6,0,0,0-.275-.555,2.849,2.849,0,0,0-.839-.3,10.883,10.883,0,0,1-1.634-.477,3.424,3.424,0,0,1-.965-.548,1.505,1.505,0,0,1-.465-.655,2.484,2.484,0,0,1-.12-.8,1.8,1.8,0,0,1,.162-.754,1.653,1.653,0,0,1,.514-.626,2.751,2.751,0,0,1,.916-.434,5.013,5.013,0,0,1,1.381-.164,3.24,3.24,0,0,1,2.184.612,2.364,2.364,0,0,1,.761,1.693Z" transform="translate(-655.789 -455.72)" fill="#fff"/>
      <path id="Caminho_12" data-name="Caminho 12" d="M774.7,465.466a3.963,3.963,0,0,1-1.508-.271,3.159,3.159,0,0,1-1.12-.754,3.219,3.219,0,0,1-.7-1.166,4.483,4.483,0,0,1-.239-1.494,4.41,4.41,0,0,1,.247-1.508,3.252,3.252,0,0,1,.712-1.167,3.171,3.171,0,0,1,1.12-.747,3.959,3.959,0,0,1,1.486-.263,3.868,3.868,0,0,1,1.466.263,3.169,3.169,0,0,1,1.106.74,3.239,3.239,0,0,1,.7,1.16,4.464,4.464,0,0,1,.246,1.522,4.4,4.4,0,0,1-.246,1.515,3.321,3.321,0,0,1-.7,1.16,3.1,3.1,0,0,1-1.113.747A3.876,3.876,0,0,1,774.7,465.466Zm0-1.551q1.677,0,1.677-2.134t-1.677-2.12q-1.677,0-1.677,2.12T774.7,463.915Z" transform="translate(-689.286 -455.72)" fill="#fff"/>
      <path id="Caminho_13" data-name="Caminho 13" d="M820.523,460.4a1.029,1.029,0,0,0-.359-.7,1.447,1.447,0,0,0-.881-.221,2.084,2.084,0,0,0-.852.135.471.471,0,0,0-.289.462.513.513,0,0,0,.289.455,3.673,3.673,0,0,0,.838.327l1.522.434a3.762,3.762,0,0,1,.994.42,1.4,1.4,0,0,1,.535.6,2.435,2.435,0,0,1,.162.975,1.915,1.915,0,0,1-.775,1.558,3.625,3.625,0,0,1-2.3.619,4.982,4.982,0,0,1-1.353-.171,3.144,3.144,0,0,1-1.036-.491,2.237,2.237,0,0,1-.662-.768,2.273,2.273,0,0,1-.247-1H818a.881.881,0,0,0,.388.768,1.722,1.722,0,0,0,1.007.27,2.22,2.22,0,0,0,.895-.164.535.535,0,0,0,.373-.505.6.6,0,0,0-.274-.555,2.851,2.851,0,0,0-.839-.3,10.888,10.888,0,0,1-1.634-.477,3.422,3.422,0,0,1-.965-.548,1.5,1.5,0,0,1-.465-.655,2.482,2.482,0,0,1-.12-.8,1.8,1.8,0,0,1,.162-.754,1.653,1.653,0,0,1,.514-.626,2.75,2.75,0,0,1,.916-.434,5.013,5.013,0,0,1,1.381-.164,3.24,3.24,0,0,1,2.184.612,2.364,2.364,0,0,1,.761,1.693Z" transform="translate(-726.496 -455.72)" fill="#fff"/>
    </g>
    <path id="Caminho_14" data-name="Caminho 14" d="M116.136,244.191h8.823v30.8a15.044,15.044,0,0,1-1.042,5.717,13.657,13.657,0,0,1-2.848,4.419A12.6,12.6,0,0,1,116.8,288a13.821,13.821,0,0,1-5.314,1.017q-7.016,0-10.386-3.894c-2.247-2.6-3.37-5.731-3.37-10.174H106.2a7.345,7.345,0,0,0,1.077,4.282A4.039,4.039,0,0,0,111,280.95c1.807,0,3.345-.561,4.063-1.684a8.54,8.54,0,0,0,1.077-4.629Z" transform="translate(24.273 -214.371)" fill="#6dbe45"/>
    <g id="Grupo_2" data-name="Grupo 2" transform="translate(152.694 23)">
      <path id="Caminho_15" data-name="Caminho 15" d="M286.715,277.708l-11.189-31.582h9.218l6.548,20.862,6.612-20.862h8.71l-11.253,31.582Z" transform="translate(-275.526 -238.969)" fill="#fff"/>
      <path id="Caminho_16" data-name="Caminho 16" d="M439.3,260.146a9.063,9.063,0,0,0,2.066,5.713,6.264,6.264,0,0,0,4.927,2.118,6.861,6.861,0,0,0,3.592-.931,4.205,4.205,0,0,0,2-2.6H460.4a13.855,13.855,0,0,1-5.086,7.51,14.31,14.31,0,0,1-8.646,2.632q-15.639,0-15.639-17.2a20.2,20.2,0,0,1,1.017-6.612,14.282,14.282,0,0,1,2.956-5.071,12.76,12.76,0,0,1,4.736-3.242,17.135,17.135,0,0,1,6.421-1.124q7.247,0,10.967,4.686t3.719,14.122Zm13.033-5.263a8.883,8.883,0,0,0-.6-3.05,6.387,6.387,0,0,0-1.43-2.182,5.68,5.68,0,0,0-2.034-1.284,6.821,6.821,0,0,0-2.352-.417,5.837,5.837,0,0,0-4.291,1.829,7.842,7.842,0,0,0-2.066,5.1Z" transform="translate(-404.187 -235.015)" fill="#fff"/>
      <path id="Caminho_17" data-name="Caminho 17" d="M601.8,273.754V242.173h7.756v3.787a10.221,10.221,0,0,1,2.13-2.5,9.175,9.175,0,0,1,2.289-1.38,8.693,8.693,0,0,1,2.384-.61,23.526,23.526,0,0,1,2.479-.129h1.081v8.537a13.794,13.794,0,0,0-2.288-.193q-7.567,0-7.565,7.639v16.433Z" transform="translate(-545.47 -235.015)" fill="#fff"/>
      <path id="Caminho_18" data-name="Caminho 18" d="M713.232,243.8l-.063-3.851a9.514,9.514,0,0,1-8.709,4.686,12.787,12.787,0,0,1-5.468-1.155,11.956,11.956,0,0,1-4.259-3.338,16.21,16.21,0,0,1-2.8-5.328,23.1,23.1,0,0,1-1.017-7.125,23.757,23.757,0,0,1,.858-6.58,15.6,15.6,0,0,1,2.511-5.168,11.38,11.38,0,0,1,4.037-3.37,12.035,12.035,0,0,1,5.436-1.188,10.848,10.848,0,0,1,9.282,4.943V205.065h8.137V243.8Zm-6.866-5.97a6.148,6.148,0,0,0,4.99-2.5,10.165,10.165,0,0,0,2-6.547q0-10.27-6.929-10.271-7.121,0-7.121,9.757a11.306,11.306,0,0,0,1.971,6.9A6.06,6.06,0,0,0,706.366,237.834Z" transform="translate(-619.208 -205.065)" fill="#fff"/>
      <path id="Caminho_19" data-name="Caminho 19" d="M871.154,260.146a9.063,9.063,0,0,0,2.066,5.713,6.264,6.264,0,0,0,4.927,2.118,6.861,6.861,0,0,0,3.592-.931,4.207,4.207,0,0,0,2-2.6h8.519a13.856,13.856,0,0,1-5.086,7.51,14.31,14.31,0,0,1-8.646,2.632q-15.639,0-15.639-17.2a20.2,20.2,0,0,1,1.017-6.612,14.284,14.284,0,0,1,2.956-5.071,12.759,12.759,0,0,1,4.736-3.242,17.135,17.135,0,0,1,6.421-1.124q7.247,0,10.966,4.686t3.719,14.122Zm13.033-5.263a8.877,8.877,0,0,0-.6-3.05,6.386,6.386,0,0,0-1.43-2.182,5.68,5.68,0,0,0-2.034-1.284,6.822,6.822,0,0,0-2.352-.417,5.837,5.837,0,0,0-4.291,1.829,7.844,7.844,0,0,0-2.066,5.1Z" transform="translate(-761.49 -235.015)" fill="#fff"/>
    </g>
    <rect id="Retângulo_1" data-name="Retângulo 1" width="29.035" height="8.336" transform="translate(254.965 66.258)" fill="#6dbe45"/>
  </g>
</svg>
