<svg xmlns="http://www.w3.org/2000/svg" width="490" height="100" viewBox="0 0 490 100">
  <g id="Grupo_34" data-name="Grupo 34" transform="translate(-666 -771)">
    <circle id="Elipse_1" data-name="Elipse 1" cx="5" cy="5" r="5" transform="translate(666 771)" fill="#efefef"/>
    <circle id="Elipse_83" data-name="Elipse 83" cx="5" cy="5" r="5" transform="translate(666 831)" fill="#efefef"/>
    <circle id="Elipse_42" data-name="Elipse 42" cx="5" cy="5" r="5" transform="translate(666 801)" fill="#efefef"/>
    <circle id="Elipse_84" data-name="Elipse 84" cx="5" cy="5" r="5" transform="translate(666 861)" fill="#efefef"/>
    <circle id="Elipse_16" data-name="Elipse 16" cx="5" cy="5" r="5" transform="translate(906 771)" fill="#efefef"/>
    <circle id="Elipse_59" data-name="Elipse 59" cx="5" cy="5" r="5" transform="translate(906 831)" fill="#efefef"/>
    <circle id="Elipse_34" data-name="Elipse 34" cx="5" cy="5" r="5" transform="translate(906 801)" fill="#efefef"/>
    <circle id="Elipse_53" data-name="Elipse 53" cx="5" cy="5" r="5" transform="translate(906 861)" fill="#efefef"/>
    <circle id="Elipse_8" data-name="Elipse 8" cx="5" cy="5" r="5" transform="translate(786 771)" fill="#efefef"/>
    <circle id="Elipse_60" data-name="Elipse 60" cx="5" cy="5" r="5" transform="translate(786 831)" fill="#efefef"/>
    <circle id="Elipse_38" data-name="Elipse 38" cx="5" cy="5" r="5" transform="translate(786 801)" fill="#efefef"/>
    <circle id="Elipse_61" data-name="Elipse 61" cx="5" cy="5" r="5" transform="translate(786 861)" fill="#efefef"/>
    <circle id="Elipse_9" data-name="Elipse 9" cx="5" cy="5" r="5" transform="translate(1026 771)" fill="#efefef"/>
    <circle id="Elipse_62" data-name="Elipse 62" cx="5" cy="5" r="5" transform="translate(1026 831)" fill="#efefef"/>
    <circle id="Elipse_30" data-name="Elipse 30" cx="5" cy="5" r="5" transform="translate(1026 801)" fill="#efefef"/>
    <circle id="Elipse_43" data-name="Elipse 43" cx="5" cy="5" r="5" transform="translate(1026 861)" fill="#efefef"/>
    <circle id="Elipse_3" data-name="Elipse 3" cx="5" cy="5" r="5" transform="translate(726 771)" fill="#efefef"/>
    <circle id="Elipse_79" data-name="Elipse 79" cx="5" cy="5" r="5" transform="translate(726 831)" fill="#efefef"/>
    <circle id="Elipse_40" data-name="Elipse 40" cx="5" cy="5" r="5" transform="translate(726 801)" fill="#efefef"/>
    <circle id="Elipse_80" data-name="Elipse 80" cx="5" cy="5" r="5" transform="translate(726 861)" fill="#efefef"/>
    <circle id="Elipse_14" data-name="Elipse 14" cx="5" cy="5" r="5" transform="translate(966 771)" fill="#efefef"/>
    <circle id="Elipse_64" data-name="Elipse 64" cx="5" cy="5" r="5" transform="translate(966 831)" fill="#efefef"/>
    <circle id="Elipse_32" data-name="Elipse 32" cx="5" cy="5" r="5" transform="translate(966 801)" fill="#efefef"/>
    <circle id="Elipse_54" data-name="Elipse 54" cx="5" cy="5" r="5" transform="translate(966 861)" fill="#efefef"/>
    <circle id="Elipse_5" data-name="Elipse 5" cx="5" cy="5" r="5" transform="translate(846 771)" fill="#efefef"/>
    <circle id="Elipse_65" data-name="Elipse 65" cx="5" cy="5" r="5" transform="translate(846 831)" fill="#efefef"/>
    <circle id="Elipse_36" data-name="Elipse 36" cx="5" cy="5" r="5" transform="translate(846 801)" fill="#efefef"/>
    <circle id="Elipse_56" data-name="Elipse 56" cx="5" cy="5" r="5" transform="translate(846 861)" fill="#efefef"/>
    <circle id="Elipse_10" data-name="Elipse 10" cx="5" cy="5" r="5" transform="translate(1086 771)" fill="#efefef"/>
    <circle id="Elipse_66" data-name="Elipse 66" cx="5" cy="5" r="5" transform="translate(1086 831)" fill="#efefef"/>
    <circle id="Elipse_27" data-name="Elipse 27" cx="5" cy="5" r="5" transform="translate(1086 801)" fill="#efefef"/>
    <circle id="Elipse_45" data-name="Elipse 45" cx="5" cy="5" r="5" transform="translate(1086 861)" fill="#efefef"/>
    <circle id="Elipse_2" data-name="Elipse 2" cx="5" cy="5" r="5" transform="translate(696 771)" fill="#efefef"/>
    <circle id="Elipse_81" data-name="Elipse 81" cx="5" cy="5" r="5" transform="translate(696 831)" fill="#efefef"/>
    <circle id="Elipse_41" data-name="Elipse 41" cx="5" cy="5" r="5" transform="translate(696 801)" fill="#efefef"/>
    <circle id="Elipse_82" data-name="Elipse 82" cx="5" cy="5" r="5" transform="translate(696 861)" fill="#efefef"/>
    <circle id="Elipse_15" data-name="Elipse 15" cx="5" cy="5" r="5" transform="translate(936 771)" fill="#efefef"/>
    <circle id="Elipse_68" data-name="Elipse 68" cx="5" cy="5" r="5" transform="translate(936 831)" fill="#efefef"/>
    <circle id="Elipse_33" data-name="Elipse 33" cx="5" cy="5" r="5" transform="translate(936 801)" fill="#efefef"/>
    <circle id="Elipse_55" data-name="Elipse 55" cx="5" cy="5" r="5" transform="translate(936 861)" fill="#efefef"/>
    <circle id="Elipse_7" data-name="Elipse 7" cx="5" cy="5" r="5" transform="translate(816 771)" fill="#efefef"/>
    <circle id="Elipse_69" data-name="Elipse 69" cx="5" cy="5" r="5" transform="translate(816 831)" fill="#efefef"/>
    <circle id="Elipse_37" data-name="Elipse 37" cx="5" cy="5" r="5" transform="translate(816 801)" fill="#efefef"/>
    <circle id="Elipse_58" data-name="Elipse 58" cx="5" cy="5" r="5" transform="translate(816 861)" fill="#efefef"/>
    <circle id="Elipse_11" data-name="Elipse 11" cx="5" cy="5" r="5" transform="translate(1056 771)" fill="#efefef"/>
    <circle id="Elipse_70" data-name="Elipse 70" cx="5" cy="5" r="5" transform="translate(1056 831)" fill="#efefef"/>
    <circle id="Elipse_28" data-name="Elipse 28" cx="5" cy="5" r="5" transform="translate(1056 801)" fill="#efefef"/>
    <circle id="Elipse_47" data-name="Elipse 47" cx="5" cy="5" r="5" transform="translate(1056 861)" fill="#efefef"/>
    <circle id="Elipse_4" data-name="Elipse 4" cx="5" cy="5" r="5" transform="translate(756 771)" fill="#efefef"/>
    <circle id="Elipse_77" data-name="Elipse 77" cx="5" cy="5" r="5" transform="translate(756 831)" fill="#efefef"/>
    <circle id="Elipse_39" data-name="Elipse 39" cx="5" cy="5" r="5" transform="translate(756 801)" fill="#efefef"/>
    <circle id="Elipse_78" data-name="Elipse 78" cx="5" cy="5" r="5" transform="translate(756 861)" fill="#efefef"/>
    <circle id="Elipse_13" data-name="Elipse 13" cx="5" cy="5" r="5" transform="translate(996 771)" fill="#efefef"/>
    <circle id="Elipse_72" data-name="Elipse 72" cx="5" cy="5" r="5" transform="translate(996 831)" fill="#efefef"/>
    <circle id="Elipse_31" data-name="Elipse 31" cx="5" cy="5" r="5" transform="translate(996 801)" fill="#efefef"/>
    <circle id="Elipse_52" data-name="Elipse 52" cx="5" cy="5" r="5" transform="translate(996 861)" fill="#efefef"/>
    <circle id="Elipse_21" data-name="Elipse 21" cx="5" cy="5" r="5" transform="translate(1146 771)" fill="#efefef"/>
    <circle id="Elipse_73" data-name="Elipse 73" cx="5" cy="5" r="5" transform="translate(1146 831)" fill="#efefef"/>
    <circle id="Elipse_26" data-name="Elipse 26" cx="5" cy="5" r="5" transform="translate(1146 801)" fill="#efefef"/>
    <circle id="Elipse_49" data-name="Elipse 49" cx="5" cy="5" r="5" transform="translate(1146 861)" fill="#efefef"/>
    <circle id="Elipse_6" data-name="Elipse 6" cx="5" cy="5" r="5" transform="translate(876 771)" fill="#efefef"/>
    <circle id="Elipse_74" data-name="Elipse 74" cx="5" cy="5" r="5" transform="translate(876 831)" fill="#efefef"/>
    <circle id="Elipse_35" data-name="Elipse 35" cx="5" cy="5" r="5" transform="translate(876 801)" fill="#efefef"/>
    <circle id="Elipse_57" data-name="Elipse 57" cx="5" cy="5" r="5" transform="translate(876 861)" fill="#efefef"/>
    <circle id="Elipse_12" data-name="Elipse 12" cx="5" cy="5" r="5" transform="translate(1116 771)" fill="#efefef"/>
    <circle id="Elipse_75" data-name="Elipse 75" cx="5" cy="5" r="5" transform="translate(1116 831)" fill="#efefef"/>
    <circle id="Elipse_29" data-name="Elipse 29" cx="5" cy="5" r="5" transform="translate(1116 801)" fill="#efefef"/>
    <circle id="Elipse_50" data-name="Elipse 50" cx="5" cy="5" r="5" transform="translate(1116 861)" fill="#efefef"/>
  </g>
</svg>
