<?xml version="1.0" encoding="utf-8"?>
<!-- Generator: Adobe Illustrator 23.1.0, SVG Export Plug-In . SVG Version: 6.00 Build 0)  -->
<svg version="1.1" id="Camada_1" xmlns="http://www.w3.org/2000/svg" xmlns:xlink="http://www.w3.org/1999/xlink" x="0px" y="0px"
	 viewBox="0 0 510 120" style="enable-background:new 0 0 510 120;" xml:space="preserve">
<style type="text/css">
	.st0{fill:#EFEFEF;}
</style>
<g id="Grupo_34" transform="translate(-666 -771)">
	<circle id="Elipse_1" class="st0" cx="681" cy="786" r="5"/>
	<circle id="Elipse_83" class="st0" cx="681" cy="846" r="5"/>
	<circle id="Elipse_42" class="st0" cx="681" cy="816" r="5"/>
	<circle id="Elipse_84" class="st0" cx="681" cy="876" r="5"/>
	<circle id="Elipse_16" class="st0" cx="921" cy="786" r="5"/>
	<circle id="Elipse_59" class="st0" cx="921" cy="846" r="5"/>
	<circle id="Elipse_34" class="st0" cx="921" cy="816" r="5"/>
	<circle id="Elipse_53" class="st0" cx="921" cy="876" r="5"/>
	<circle id="Elipse_8" class="st0" cx="801" cy="786" r="5"/>
	<circle id="Elipse_60" class="st0" cx="801" cy="846" r="5"/>
	<circle id="Elipse_38" class="st0" cx="801" cy="816" r="5"/>
	<circle id="Elipse_61" class="st0" cx="801" cy="876" r="5"/>
	<circle id="Elipse_9" class="st0" cx="1041" cy="786" r="5"/>
	<circle id="Elipse_62" class="st0" cx="1041" cy="846" r="5"/>
	<circle id="Elipse_30" class="st0" cx="1041" cy="816" r="5"/>
	<circle id="Elipse_43" class="st0" cx="1041" cy="876" r="5"/>
	<circle id="Elipse_3" class="st0" cx="741" cy="786" r="5"/>
	<circle id="Elipse_79" class="st0" cx="741" cy="846" r="5"/>
	<circle id="Elipse_40" class="st0" cx="741" cy="816" r="5"/>
	<circle id="Elipse_80" class="st0" cx="741" cy="876" r="5"/>
	<circle id="Elipse_14" class="st0" cx="981" cy="786" r="5"/>
	<circle id="Elipse_64" class="st0" cx="981" cy="846" r="5"/>
	<circle id="Elipse_32" class="st0" cx="981" cy="816" r="5"/>
	<circle id="Elipse_54" class="st0" cx="981" cy="876" r="5"/>
	<circle id="Elipse_5" class="st0" cx="861" cy="786" r="5"/>
	<circle id="Elipse_65" class="st0" cx="861" cy="846" r="5"/>
	<circle id="Elipse_36" class="st0" cx="861" cy="816" r="5"/>
	<circle id="Elipse_56" class="st0" cx="861" cy="876" r="5"/>
	<circle id="Elipse_10" class="st0" cx="1101" cy="786" r="5"/>
	<circle id="Elipse_66" class="st0" cx="1101" cy="846" r="5"/>
	<circle id="Elipse_27" class="st0" cx="1101" cy="816" r="5"/>
	<circle id="Elipse_45" class="st0" cx="1101" cy="876" r="5"/>
	<circle id="Elipse_2" class="st0" cx="711" cy="786" r="5"/>
	<circle id="Elipse_81" class="st0" cx="711" cy="846" r="5"/>
	<circle id="Elipse_41" class="st0" cx="711" cy="816" r="5"/>
	<circle id="Elipse_82" class="st0" cx="711" cy="876" r="5"/>
	<circle id="Elipse_15" class="st0" cx="951" cy="786" r="5"/>
	<circle id="Elipse_68" class="st0" cx="951" cy="846" r="5"/>
	<circle id="Elipse_33" class="st0" cx="951" cy="816" r="5"/>
	<circle id="Elipse_55" class="st0" cx="951" cy="876" r="5"/>
	<circle id="Elipse_7" class="st0" cx="831" cy="786" r="5"/>
	<circle id="Elipse_69" class="st0" cx="831" cy="846" r="5"/>
	<circle id="Elipse_37" class="st0" cx="831" cy="816" r="5"/>
	<circle id="Elipse_58" class="st0" cx="831" cy="876" r="5"/>
	<circle id="Elipse_11" class="st0" cx="1071" cy="786" r="5"/>
	<circle id="Elipse_70" class="st0" cx="1071" cy="846" r="5"/>
	<circle id="Elipse_28" class="st0" cx="1071" cy="816" r="5"/>
	<circle id="Elipse_47" class="st0" cx="1071" cy="876" r="5"/>
	<circle id="Elipse_4" class="st0" cx="771" cy="786" r="5"/>
	<circle id="Elipse_77" class="st0" cx="771" cy="846" r="5"/>
	<circle id="Elipse_39" class="st0" cx="771" cy="816" r="5"/>
	<circle id="Elipse_78" class="st0" cx="771" cy="876" r="5"/>
	<circle id="Elipse_13" class="st0" cx="1011" cy="786" r="5"/>
	<circle id="Elipse_72" class="st0" cx="1011" cy="846" r="5"/>
	<circle id="Elipse_31" class="st0" cx="1011" cy="816" r="5"/>
	<circle id="Elipse_52" class="st0" cx="1011" cy="876" r="5"/>
	<circle id="Elipse_21" class="st0" cx="1161" cy="786" r="5"/>
	<circle id="Elipse_73" class="st0" cx="1161" cy="846" r="5"/>
	<circle id="Elipse_26" class="st0" cx="1161" cy="816" r="5"/>
	<circle id="Elipse_49" class="st0" cx="1161" cy="876" r="5"/>
	<circle id="Elipse_6" class="st0" cx="891" cy="786" r="5"/>
	<circle id="Elipse_74" class="st0" cx="891" cy="846" r="5"/>
	<circle id="Elipse_35" class="st0" cx="891" cy="816" r="5"/>
	<circle id="Elipse_57" class="st0" cx="891" cy="876" r="5"/>
	<circle id="Elipse_12" class="st0" cx="1131" cy="786" r="5"/>
	<circle id="Elipse_75" class="st0" cx="1131" cy="846" r="5"/>
	<circle id="Elipse_29" class="st0" cx="1131" cy="816" r="5"/>
	<circle id="Elipse_50" class="st0" cx="1131" cy="876" r="5"/>
</g>
</svg>
