<?xml version="1.0" encoding="utf-8"?>
<!-- Generator: Adobe Illustrator 23.1.0, SVG Export Plug-In . SVG Version: 6.00 Build 0)  -->
<svg version="1.1" id="Camada_1" xmlns="http://www.w3.org/2000/svg" xmlns:xlink="http://www.w3.org/1999/xlink" x="0px" y="0px"
	 viewBox="0 0 100 100" style="enable-background:new 0 0 100 100;" xml:space="preserve">
<style type="text/css">
	.st0{fill:#3E6BBC;}
	.st1{fill:#FFFFFF;}
</style>
<g id="Grupo_46" transform="translate(-1170.5 -569.5)">
	<g transform="matrix(1, 0, 0, 1, 1170.5, 569.5)">
		<circle id="Elipse_710-2" class="st0" cx="50" cy="50" r="50"/>
	</g>
	<path id="WA_Logo" class="st1" d="M1201,630.6c-6.3-10.8-2.6-24.7,8.2-31c10.8-6.3,24.7-2.6,31,8.2s2.6,24.7-8.2,31
		c-3.4,2-7.4,3.1-11.4,3.1h0c-3.8,0-7.5-0.9-10.8-2.7l-12,3.1L1201,630.6z M1211,635.4c2.9,1.7,6.2,2.6,9.6,2.6h0
		c10.4,0,18.8-8.4,18.8-18.7c0-10.4-8.4-18.8-18.8-18.7c0,0,0,0,0,0c-10.3-0.1-18.8,8.3-18.8,18.6c0,3.6,1,7.1,2.9,10.1l0.5,0.7
		l-1.9,6.9l7.1-1.9L1211,635.4z M1224.3,629.8c-1.1-0.3-2.2-0.7-3.2-1.2c-3.9-1.9-7.2-4.9-9.7-8.5c-1.3-1.7-2.1-3.7-2.3-5.8
		c0-1.8,0.7-3.5,2-4.7c0.4-0.4,0.9-0.7,1.5-0.7c0.4,0,0.8,0,1.1,0c0,0,0.1,0,0.1,0c0.3,0,0.7,0,1.1,1c0.5,1.1,1.6,3.9,1.7,4.2
		c0.2,0.3,0.2,0.7,0,1c-0.1,0.3-0.3,0.7-0.6,0.9c-0.3,0.3-0.6,0.7-0.8,1c-0.3,0.3-0.6,0.6-0.2,1.1c0.8,1.4,1.9,2.8,3.1,3.9
		c1.3,1.2,2.9,2.1,4.5,2.8c0.6,0.3,0.9,0.2,1.2-0.1c0.3-0.4,1.4-1.6,1.8-2.2c0.4-0.6,0.8-0.5,1.3-0.3s3.3,1.5,3.9,1.8
		c0.6,0.3,0.9,0.4,1.1,0.7c0.2,0.9,0,1.8-0.3,2.7c-0.8,1.4-2.2,2.4-3.8,2.7c-0.5,0.1-0.9,0.1-1.4,0.1
		C1225.7,630.1,1225,630,1224.3,629.8L1224.3,629.8z"/>
</g>
</svg>
