<?xml version="1.0" encoding="utf-8"?>
<!-- Generator: Adobe Illustrator 23.1.0, SVG Export Plug-In . SVG Version: 6.00 Build 0)  -->
<svg version="1.1" id="Camada_1" xmlns="http://www.w3.org/2000/svg" xmlns:xlink="http://www.w3.org/1999/xlink" x="0px" y="0px"
	 viewBox="0 0 100 100" style="enable-background:new 0 0 100 100;" xml:space="preserve">
<style type="text/css">
	.st0{fill:#76C34C;}
	.st1{fill:#FFFFFF;}
</style>
<g transform="matrix(1, 0, 0, 1, 1170.5, 569.5)">
	<circle id="Elipse_710-2_1_" class="st0" cx="-1120.5" cy="-519.5" r="50"/>
</g>
<path id="WA_Logo" class="st1" d="M30.5,61.1c-6.2-10.8-2.6-24.7,8.2-30.9s24.7-2.6,30.9,8.2s2.6,24.7-8.2,30.9c-3.5,2-7.4,3-11.4,3
	l0,0c-3.8,0-7.4-0.9-10.8-2.7l-12,3.2L30.5,61.1z M40.5,65.9c2.9,1.7,6.2,2.6,9.5,2.6l0,0c10.3,0,18.8-8.3,18.8-18.8
	c0.2-10.3-8.3-18.6-18.6-18.6l0,0c-10.3,0-18.8,8.3-18.8,18.6c0,3.6,0.9,7.1,2.9,10.2l0.5,0.8l-2,6.8l7.1-1.8L40.5,65.9z M53.8,60.3
	c-1.1-0.3-2.1-0.8-3.2-1.2c-3.9-2-7.3-4.8-9.7-8.5c-1.4-1.7-2.1-3.6-2.3-5.8c0-1.8,0.8-3.5,2-4.7c0.5-0.5,0.9-0.8,1.5-0.8
	c0.3,0,0.8,0,1.1,0h0.2c0.3,0,0.8,0,1.2,0.9c0.5,1.1,1.7,3.9,1.8,4.2s0.2,0.6,0,1.1c-0.2,0.3-0.3,0.6-0.6,0.9
	c-0.3,0.3-0.6,0.8-0.9,1.1c-0.3,0.3-0.6,0.6-0.3,1.2c0.9,1.5,2,2.7,3.2,3.9c1.4,1.2,2.9,2.1,4.5,2.7c0.6,0.3,0.9,0.3,1.2-0.2
	s1.4-1.7,1.8-2.3s0.8-0.5,1.2-0.3s3.3,1.5,3.8,1.8s0.9,0.5,1.1,0.6c0.2,0.9,0,1.8-0.3,2.7c-0.9,1.4-2.3,2.4-3.8,2.7
	c-0.5,0-0.9,0.2-1.4,0.2C55.3,60.6,54.5,60.5,53.8,60.3L53.8,60.3z"/>
</svg>
